<?xml version="1.0" encoding="utf-8"?>
<svg width="2454" height="584" viewBox="0 0 2454 584" fill="none" xmlns="http://www.w3.org/2000/svg">
<g clip-path="url(#clip0)">
<path opacity="0.7" d="M329.826 99.3649L594.846 507.439C658.325 605.182 633.469 737.849 539.329 803.758L146.295 1078.93C52.1574 1144.84 -75.618 1119.04 -139.1 1021.3L-404.123 613.219C-467.597 515.473 -442.742 382.807 -348.601 316.897L44.4331 41.7249C138.573 -24.1841 266.347 1.62189 329.826 99.3649Z" fill="url(#paint0_linear)"/>
<path opacity="0.2" d="M1426.36 362.291C1387.5 323.434 1324.5 323.434 1285.64 362.291C1246.79 401.148 1246.79 464.148 1285.64 503.005C1324.5 541.862 1387.5 541.862 1426.36 503.005C1465.21 464.148 1465.21 401.148 1426.36 362.291Z" fill="url(#paint1_linear)"/>
<path opacity="0.2" d="M2397.61 204.972C2450.69 190.749 2482.19 136.189 2467.97 83.1095C2453.75 30.0296 2399.19 -1.47032 2346.11 12.7524C2293.03 26.9751 2261.53 81.5346 2275.75 134.615C2289.98 187.694 2344.53 219.194 2397.61 204.972Z" fill="url(#paint2_linear)"/>
</g>
<defs>
<linearGradient id="paint0_linear" x1="198.725" y1="50.4549" x2="-194.006" y2="1041.32" gradientUnits="userSpaceOnUse">
<stop stop-color="#FCD5D1" stop-opacity="0.34"/>
<stop offset="1" stop-color="#EA7A6E"/>
</linearGradient>
<linearGradient id="paint1_linear" x1="1285.64" y1="503.005" x2="1426.36" y2="362.291" gradientUnits="userSpaceOnUse">
<stop stop-color="#092240"/>
<stop offset="1" stop-color="#5C8BC5" stop-opacity="0"/>
</linearGradient>
<linearGradient id="paint2_linear" x1="2346.11" y1="12.7524" x2="2397.61" y2="204.972" gradientUnits="userSpaceOnUse">
<stop stop-color="#092240"/>
<stop offset="1" stop-color="#5C8BC5" stop-opacity="0"/>
</linearGradient>
<clipPath id="clip0">
<rect width="2454" height="584" fill="white"/>
</clipPath>
</defs>
</svg>
