<?xml version="1.0" encoding="utf-8"?>
<svg xmlns="http://www.w3.org/2000/svg" xmlns:xlink="http://www.w3.org/1999/xlink" width="1440.048" height="299.582" viewBox="0 0 1440.048 299.582">
  <defs>
    <linearGradient id="linear-gradient" x1="0.5" x2="0.5" y2="1" gradientUnits="objectBoundingBox">
      <stop offset="0" stop-color="#99aff7"/>
      <stop offset="1" stop-color="#7c98f5"/>
    </linearGradient>
  </defs>
  <g id="Group_792" data-name="Group 792" transform="translate(-189.151 -433.97)" opacity="0.15">
    <g id="handshake" transform="translate(455.001 392.942)">
      <path id="Path_593" data-name="Path 593" d="M42.016,138.808a4.281,4.281,0,0,0-3.379-.8,4.29,4.29,0,0,0-4.819-3.547,4.337,4.337,0,0,0-.818.195,4.286,4.286,0,0,0-5.755-2.759,4.293,4.293,0,0,0-7.066-1.713l-4.5-.3,2.761-22.424,4.946.336.084,0a1.23,1.23,0,0,0,1.095-.669l1.854-3.617a2.189,2.189,0,0,1,2.521-1.107l2.753.761a1.231,1.231,0,0,0,.656-2.372l-2.752-.761a4.659,4.659,0,0,0-5.367,2.355l-1.484,2.9-4-.272.095-.77a4.5,4.5,0,0,0-3.916-5.015L5.435,98.067a1.23,1.23,0,1,0-.3,2.442l9.481,1.167a2.038,2.038,0,0,1,1.774,2.272L13.133,130.4a2.042,2.042,0,0,1-2.272,1.774L1.38,131a1.23,1.23,0,1,0-.3,2.442l9.481,1.167a4.495,4.495,0,0,0,4.491-2.3l3.369.224a4.293,4.293,0,0,0,3.808,6.255,4.375,4.375,0,0,0,.6-.041l.038-.006c0,.013,0,.025,0,.038a4.288,4.288,0,0,0,4.246,3.7,4.33,4.33,0,0,0,.632-.048,4.283,4.283,0,0,0,4.249,3.744,4.326,4.326,0,0,0,.63-.048c0,.014,0,.027,0,.041a4.294,4.294,0,0,0,4.242,3.705,4.371,4.371,0,0,0,.6-.041,4.263,4.263,0,0,0,2.834-1.66l2.545-3.361A4.3,4.3,0,0,0,42.016,138.808Zm-19.528-2.493a1.831,1.831,0,0,1-1.71-2.919l.937-1.238a1.831,1.831,0,0,1,2.919,2.211l-.937,1.238A1.82,1.82,0,0,1,22.488,136.315Zm3.525,3.342a1.831,1.831,0,0,1-.354-2.565l.937-1.238h0l.828-1.093a1.831,1.831,0,0,1,2.919,2.211L28.577,139.3A1.833,1.833,0,0,1,26.013,139.657Zm4.881,3.7a1.831,1.831,0,0,1-.355-2.564h0l1.765-2.331h0l.64-.846a1.831,1.831,0,0,1,2.92,2.21L33.458,143h0A1.833,1.833,0,0,1,30.893,143.353Zm9.991-.019L38.339,146.7a1.831,1.831,0,1,1-2.919-2.211l2.406-3.177v0l.138-.183a1.831,1.831,0,1,1,2.919,2.211Z" transform="translate(0 0)" fill="url(#linear-gradient)"/>
      <path id="Path_594" data-name="Path 594" d="M216.635,132.073A1.231,1.231,0,0,0,215.264,131l-9.481,1.167a2.04,2.04,0,0,1-2.272-1.774l-.1-.789h0l-.022-.183-3.136-25.475a2.038,2.038,0,0,1,1.774-2.272l9.481-1.167a1.23,1.23,0,0,0-.3-2.442l-9.481,1.167a4.505,4.505,0,0,0-3.948,4.582l-2.391.294-7.4-4.166a5.876,5.876,0,0,0-3.437-.734h-.007l-2.228.206a1.23,1.23,0,0,0,.227,2.45l2.235-.207a3.425,3.425,0,0,1,2,.428l7.676,4.32a1.231,1.231,0,0,0,.828.195l2.777-.342,2.037,16.544.7,5.721-4.429,0a1.229,1.229,0,0,0-.8.3l-.343.267-11.12-9.584a14.926,14.926,0,0,0,7.228-5.279,1.231,1.231,0,0,0-1.908-1.554c-2.531,3.109-5.193,4.709-7.911,4.756-3.96.074-6.87-3.209-6.9-3.24a1.231,1.231,0,0,0-1.907.054l-3.305,4.3a6.4,6.4,0,0,1-7.383,2.1l-.353-.133a.822.822,0,0,1-.42-1.181l8.627-14.849a3.446,3.446,0,0,1,2.658-1.7l5.108-.472a1.23,1.23,0,1,0-.227-2.45l-5.108.472a5.912,5.912,0,0,0-4.559,2.911L159.123,118.1a3.283,3.283,0,0,0,1.679,4.72l.353.133a8.965,8.965,0,0,0,3.171.583,8.85,8.85,0,0,0,7.032-3.487l2.466-3.209a12.152,12.152,0,0,0,6.934,3.033l16.069,13.849a1.428,1.428,0,0,1,.15,2.013l-.626.726a2.19,2.19,0,0,1-3.082.226,1.232,1.232,0,0,0-.161-.116l-4.171-3.6a1.23,1.23,0,1,0-1.607,1.864l3.39,2.923-1.546,1.795a2.18,2.18,0,0,1-3.081.228l-.018-.014-3.876-3.342a1.23,1.23,0,0,0-1.607,1.864l2.962,2.554L182,142.656a2.188,2.188,0,0,1-1.914.745,1.23,1.23,0,1,0-.287,2.444,4.647,4.647,0,0,0,4.065-1.582l1.663-1.931a4.643,4.643,0,0,0,5.513-1.164l1.666-1.933a4.657,4.657,0,0,0,5.512-1.161l.627-.727a3.888,3.888,0,0,0-.408-5.484l-1.01-.87,3.692,0a4.5,4.5,0,0,0,4.969,3.624l9.481-1.167A1.231,1.231,0,0,0,216.635,132.073Z" transform="translate(-132.646 0)" fill="url(#linear-gradient)"/>
      <path id="Path_595" data-name="Path 595" d="M445.613,251.249a3.609,3.609,0,1,0,3.609,3.609A3.613,3.613,0,0,0,445.613,251.249Zm0,4.757a1.148,1.148,0,1,1,1.148-1.148A1.15,1.15,0,0,1,445.613,256.006Z" transform="translate(-369.489 -128.059)" fill="url(#linear-gradient)"/>
      <path id="Path_596" data-name="Path 596" d="M32.411,254.858a3.609,3.609,0,1,0-3.609,3.609A3.613,3.613,0,0,0,32.411,254.858Zm-4.757,0a1.148,1.148,0,1,1,1.148,1.148A1.149,1.149,0,0,1,27.654,254.858Z" transform="translate(-21.061 -128.059)" fill="url(#linear-gradient)"/>
    </g>
    <path id="_1477301" data-name="1477301" d="M47.988,30.9l-2.969-5.141a.956.956,0,1,0-1.657.957l2.969,5.141a.749.749,0,0,1,0,.75L35.7,51.018a.752.752,0,0,1-.649.373H24.566l8.3-10.843a.956.956,0,0,0-1.519-1.162L13.866,62.227a1.143,1.143,0,0,1-1.922-.795c0-.357-.749,1.331,10.344-21.91A2.67,2.67,0,0,0,19.88,35.7H10.048a.76.76,0,0,1-.758-.759c0-.316-1.357,1.9,20.661-32.506a1.128,1.128,0,0,1,2.045.881L24.637,24.086a2.668,2.668,0,0,0,2.515,3.558H38.8a.754.754,0,0,1,.6,1.214l-5.731,7.489a.957.957,0,1,0,1.519,1.163l5.731-7.49A2.67,2.67,0,0,0,38.8,25.732H27.152a.755.755,0,0,1-.756-.753c0-.19-.242.556,4.173-11.9h4.484a.753.753,0,0,1,.649.374L41.449,23.4a.957.957,0,1,0,1.657-.957l-5.747-9.954a2.669,2.669,0,0,0-2.306-1.33H31.246c2.767-7.81,2.7-7.445,2.7-8.157a3.048,3.048,0,0,0-5.609-1.6L22.1,11.162H13.8a2.67,2.67,0,0,0-2.306,1.33C-.061,32.5.5,31.232.5,32.233c0,.978-.228.317,6.646,12.224A.957.957,0,0,0,8.807,43.5C2.021,31.747,2.417,32.523,2.417,32.233s-.621.875,10.729-18.785a.753.753,0,0,1,.649-.374h7.079L7.8,33.512a2.669,2.669,0,0,0,2.247,4.105H19.88a.755.755,0,0,1,.681,1.08L14.5,51.391c-.645,0-1.091.085-1.357-.373l-2.427-4.2a.956.956,0,1,0-1.657.957l2.427,4.2a2.672,2.672,0,0,0,2.1,1.323L10.4,59.989a3.053,3.053,0,0,0,2.718,4.477,3,3,0,0,0,2.229-1.026L23.1,53.3H35.053a2.669,2.669,0,0,0,2.306-1.33L47.988,33.563A2.659,2.659,0,0,0,47.988,30.9Zm0,0" transform="translate(1580.854 609.885)" fill="url(#linear-gradient)"/>
    <g id="flag" transform="translate(1202 654.277)">
      <g id="Group_526" data-name="Group 526" transform="translate(0 22.723)">
        <path id="Path_597" data-name="Path 597" d="M61.773,76.312,48.728,55.11a1.945,1.945,0,0,0-3.313,0l-1.694,2.753a.911.911,0,0,0,1.551.954l1.694-2.753a.124.124,0,0,1,.211,0l13.045,21.2a.124.124,0,0,1-.105.189H52.892L32.687,44.615a1.939,1.939,0,0,0-.722-.688h0V37.748a8.416,8.416,0,0,0,2.218.293,17.152,17.152,0,0,0,5.924-1.428c2.636-.979,5.126-1.9,7.819-.823a1.126,1.126,0,0,0,1.545-1.046V24.459a1.126,1.126,0,0,0-.685-1.038c-3.419-1.458-6.415-.346-9.314.73-2.715,1.008-5.279,1.96-8.071.712a.911.911,0,0,0-1.282.831v.034a.933.933,0,0,0-.025.21V43.928a1.941,1.941,0,0,0-.721.688L19.781,60.206l-3.136-5.1a1.945,1.945,0,0,0-3.313,0L.288,76.312a1.945,1.945,0,0,0,1.656,2.964H60.117a1.945,1.945,0,0,0,1.656-2.964ZM31.941,26.987c2.948.808,5.595-.174,8.166-1.129,2.544-.944,4.954-1.839,7.544-.926v8.847c-2.956-.811-5.606.173-8.177,1.127-2.539.943-4.947,1.836-7.532.927ZM11.307,77.454l3.124-5.077a.911.911,0,1,0-1.551-.954L9.169,77.454H1.944a.124.124,0,0,1-.105-.189l13.045-21.2a.124.124,0,0,1,.211,0l3.618,5.879L15.1,67.814a.911.911,0,1,0,1.551.954l14.274-23.2a.124.124,0,0,1,.211,0L50.754,77.454Z" transform="translate(0 -22.723)" fill="url(#linear-gradient)"/>
      </g>
    </g>
    <g id="data" transform="translate(232.151 758.525)">
      <g id="Group_793" data-name="Group 793" transform="translate(-43 -86)">
        <path id="Path_692" data-name="Path 692" d="M5.642,13.519a15.073,15.073,0,0,1,.253-4.372A8.8,8.8,0,0,1,8.211,4.731a9.717,9.717,0,0,1,6.667-2.6,19.428,19.428,0,0,1,4.086.278L19.323.364A21.485,21.485,0,0,0,14.791.056a11.722,11.722,0,0,0-8.046,3.21A10.833,10.833,0,0,0,3.87,8.707l0,.013A17.111,17.111,0,0,0,3.577,13.7Zm0,0" transform="translate(-3.141 -0.037)" fill="url(#linear-gradient)"/>
        <path id="Path_693" data-name="Path 693" d="M36.837,231.04c-.624-1.139-1.2-2.284-1.7-3.4l-1.889.852c.527,1.168,1.124,2.362,1.774,3.547Zm0,0" transform="translate(-29.791 -204.015)" fill="url(#linear-gradient)"/>
        <path id="Path_694" data-name="Path 694" d="M9.961,164.476a33.888,33.888,0,0,0,.946,3.286l1.962-.67a31.748,31.748,0,0,1-.889-3.084Zm0,0" transform="translate(-8.922 -146.989)" fill="url(#linear-gradient)"/>
        <path id="Path_695" data-name="Path 695" d="M130.006,367.759l-.27-.309-1.564,1.359q.137.159.277.317c.526.6,1.074,1.2,1.628,1.8q.373.4.753.793l1.494-1.437q-.371-.385-.733-.772C131.051,368.929,130.518,368.341,130.006,367.759Zm0,0" transform="translate(-114.866 -329.319)" fill="url(#linear-gradient)"/>
        <path id="Path_696" data-name="Path 696" d="M83.895,313.558l1.636-1.272q-.226-.291-.447-.582c-.631-.83-1.242-1.673-1.815-2.5l-1.707,1.176c.592.858,1.221,1.727,1.872,2.582Q83.661,313.258,83.895,313.558Zm0,0" transform="translate(-73.093 -277.113)" fill="url(#linear-gradient)"/>
        <path id="Path_697" data-name="Path 697" d="M170.773,412.85a75.443,75.443,0,0,0,6.172,5.4,63.244,63.244,0,0,0,9.317,6.087,46.155,46.155,0,0,0,5.938,2.643l-1.893.542.57,1.993,5.3-1.516a1.037,1.037,0,0,0,.711-1.282l-1.381-4.827-1.993.57.878,3.067a41.957,41.957,0,0,1-7.158-3.019,61.153,61.153,0,0,1-9.009-5.887,73.478,73.478,0,0,1-6.005-5.253Zm0,0" transform="translate(-153.047 -368.679)" fill="url(#linear-gradient)"/>
        <path id="Path_698" data-name="Path 698" d="M448.193,355.918a35.049,35.049,0,0,0-2.6-8.453l-1.9.833a33,33,0,0,1,2.45,7.947c.742,4.635-.073,8.291-2.356,10.574a8.775,8.775,0,0,1-4.37,2.3,15.384,15.384,0,0,1-4.822.229c-.436-.042-.886-.1-1.338-.171l-.323,2.047c.492.078.985.141,1.463.187q1.011.1,1.97.1a16,16,0,0,0,3.505-.367,10.816,10.816,0,0,0,5.38-2.861C448.028,365.512,449.043,361.236,448.193,355.918Zm0,0" transform="translate(-388.006 -311.408)" fill="url(#linear-gradient)"/>
        <path id="Path_699" data-name="Path 699" d="M515.98,301.215l-1.8,1.026c.5.876.97,1.758,1.4,2.621l1.857-.921C516.989,303.041,516.5,302.124,515.98,301.215Zm0,0" transform="translate(-460.818 -269.957)" fill="url(#linear-gradient)"/>
        <path id="Path_700" data-name="Path 700" d="M470.951,231.789l-1.647,1.259c.773,1.011,1.527,2.054,2.242,3.1l1.713-1.167C472.523,233.9,471.746,232.829,470.951,231.789Zm0,0" transform="translate(-420.599 -207.736)" fill="url(#linear-gradient)"/>
        <path id="Path_701" data-name="Path 701" d="M422.854,174.066l-1.5,1.431c.877.919,1.741,1.875,2.567,2.841l1.575-1.347C424.647,176,423.758,175.013,422.854,174.066Zm0,0" transform="translate(-377.626 -156.003)" fill="url(#linear-gradient)"/>
        <path id="Path_702" data-name="Path 702" d="M179.041,7.292l2.027-.433L180.4,3.728a41.583,41.583,0,0,1,5.537,2.431,60.6,60.6,0,0,1,8.9,5.746c1.317,1.016,2.644,2.119,3.943,3.277.72.643,1.446,1.317,2.156,2,.308.3.622.606.935.919l1.465-1.465c-.321-.321-.644-.638-.961-.944-.729-.7-1.474-1.4-2.215-2.059-1.336-1.191-2.7-2.325-4.054-3.369q-1.976-1.537-4.081-2.913c.795-.448,1.593-.873,2.375-1.261l-.922-1.856c-.93.461-1.879.97-2.821,1.51l.658,1.149Q189.16,5.521,186.9,4.326a43.884,43.884,0,0,0-4.12-1.909l1.826-.39L184.179,0l-5.39,1.152a1.036,1.036,0,0,0-.8,1.23Zm0,0" transform="translate(-159.496)" fill="url(#linear-gradient)"/>
        <path id="Path_703" data-name="Path 703" d="M.315,430.484a21.457,21.457,0,0,0-.307,4.531,11.721,11.721,0,0,0,3.209,8.046,10.832,10.832,0,0,0,5.441,2.875l.013,0a17.1,17.1,0,0,0,3.474.357q.753,0,1.506-.066l-.182-2.065a15.016,15.016,0,0,1-4.372-.253A8.785,8.785,0,0,1,4.682,441.6a9.723,9.723,0,0,1-2.6-6.668,19.384,19.384,0,0,1,.278-4.086Zm0,0" transform="translate(0.012 -385.812)" fill="url(#linear-gradient)"/>
        <path id="Path_704" data-name="Path 704" d="M228.438,522.11c1.169-.527,2.362-1.124,3.547-1.773l-1-1.817c-1.139.624-2.284,1.2-3.4,1.7Zm0,0" transform="translate(-203.964 -464.712)" fill="url(#linear-gradient)"/>
        <path id="Path_705" data-name="Path 705" d="M164.425,551.295a33.807,33.807,0,0,0,3.286-.946l-.67-1.962a31.8,31.8,0,0,1-3.084.889Zm0,0" transform="translate(-146.938 -491.48)" fill="url(#linear-gradient)"/>
        <path id="Path_706" data-name="Path 706" d="M367.4,420.778l1.358,1.566.318-.277c.6-.527,1.2-1.075,1.8-1.628q.4-.373.794-.754l-1.437-1.493q-.385.372-.773.733c-.576.539-1.164,1.072-1.747,1.584Q367.557,420.644,367.4,420.778Zm0,0" transform="translate(-329.271 -374.795)" fill="url(#linear-gradient)"/>
        <path id="Path_707" data-name="Path 707" d="M309.152,468.817l1.176,1.707c.858-.591,1.727-1.221,2.582-1.871q.3-.228.6-.461l-1.272-1.637q-.29.226-.582.448C310.827,467.633,309.985,468.244,309.152,468.817Zm0,0" transform="translate(-277.066 -418.14)" fill="url(#linear-gradient)"/>
        <path id="Path_708" data-name="Path 708" d="M356.2,5.939c4.634-.741,8.291.073,10.574,2.356a8.78,8.78,0,0,1,2.3,4.37,15.376,15.376,0,0,1,.229,4.822c-.041.435-.1.885-.171,1.337l2.047.324c.078-.494.141-.986.187-1.463a17.442,17.442,0,0,0-.27-5.475,10.814,10.814,0,0,0-2.861-5.381c-2.773-2.772-7.049-3.788-12.367-2.937a35.065,35.065,0,0,0-8.453,2.6l.833,1.9A32.988,32.988,0,0,1,356.2,5.939Zm0,0" transform="translate(-311.361 -3.227)" fill="url(#linear-gradient)"/>
        <path id="Path_709" data-name="Path 709" d="M178.284,126.672l-1.347-1.575c-.994.851-1.978,1.74-2.925,2.643l1.431,1.5C176.362,128.362,177.319,127.5,178.284,126.672Zm0,0" transform="translate(-155.949 -112.116)" fill="url(#linear-gradient)"/>
        <path id="Path_710" data-name="Path 710" d="M236.105,80.666l-1.168-1.713c-1.081.737-2.156,1.514-3.2,2.309L233,82.908C234.011,82.136,235.055,81.382,236.105,80.666Zm0,0" transform="translate(-207.689 -70.76)" fill="url(#linear-gradient)"/>
        <path id="Path_711" data-name="Path 711" d="M427.945,164.3a1.036,1.036,0,0,0-1.281-.711l-4.827,1.381.57,1.993,3.067-.878a42.017,42.017,0,0,1-3.02,7.158,61.152,61.152,0,0,1-5.887,9.009,73.487,73.487,0,0,1-5.254,6L412.8,189.7a75.552,75.552,0,0,0,5.4-6.172,63.229,63.229,0,0,0,6.087-9.317,46.2,46.2,0,0,0,2.643-5.938l.542,1.893,1.993-.57Zm0,0" transform="translate(-368.625 -146.575)" fill="url(#linear-gradient)"/>
        <path id="Path_712" data-name="Path 712" d="M2.115,189.316a1.012,1.012,0,0,0,.217-.023l4.91-1.049-.433-2.027-3.13.67a41.506,41.506,0,0,1,2.431-5.537,60.544,60.544,0,0,1,5.746-8.9c1.016-1.317,2.119-2.643,3.277-3.943.643-.721,1.317-1.446,2-2.156.3-.311.609-.625.919-.935l-1.465-1.465c-.318.318-.636.641-.944.96-.7.73-1.4,1.475-2.059,2.216-1.192,1.336-2.326,2.7-3.369,4.053a62.645,62.645,0,0,0-5.94,9.2,43.436,43.436,0,0,0-1.909,4.12l-.39-1.827-2.027.433L1.1,188.5A1.037,1.037,0,0,0,2.115,189.316Zm0,0" transform="translate(0.051 -146.936)" fill="url(#linear-gradient)"/>
        <path id="Path_713" data-name="Path 713" d="M206.941,180.121v16.44c0,.877.492,2.112,2.987,3.015a18.139,18.139,0,0,0,5.971.907h.08a21.33,21.33,0,0,0,3.863-.353c3.231-.62,5.1-1.921,5.1-3.569v-16.44c0-.878-.548-2.112-3.044-3.015a18.328,18.328,0,0,0-6-.907,18.09,18.09,0,0,0-5.966.907C207.44,178.009,206.941,179.244,206.941,180.121Zm12.514,17.972a18.981,18.981,0,0,1-3.555.317,16.008,16.008,0,0,1-5.261-.783c-1.365-.494-1.626-.989-1.626-1.066v-2.893a6.85,6.85,0,0,0,.915.4,18.137,18.137,0,0,0,5.975.907,18.339,18.339,0,0,0,6.008-.907c.354-.128.574-.263.963-.4v2.893C222.875,196.756,222.036,197.6,219.456,198.094Zm3.419-7.038c0,.078-.312.573-1.676,1.067a16.23,16.23,0,0,1-5.3.783,15.988,15.988,0,0,1-5.26-.783c-1.365-.494-1.626-.989-1.626-1.067V188.2a6.794,6.794,0,0,0,.915.4,18.137,18.137,0,0,0,5.975.907,18.339,18.339,0,0,0,6.008-.907c.354-.128.574-.263.963-.4Zm-1.676-4.4a16.229,16.229,0,0,1-5.3.783,15.987,15.987,0,0,1-5.26-.783c-1.365-.494-1.626-.989-1.626-1.066v-2.855a6.925,6.925,0,0,0,.915.4,18.14,18.14,0,0,0,5.975.907,18.355,18.355,0,0,0,6.008-.907c.354-.128.574-.263.963-.4v2.855C222.875,185.666,222.563,186.161,221.2,186.655Zm-10.6-7.6a18.227,18.227,0,0,1,10.571,0c1.364.494,1.651.989,1.651,1.066s-.287.572-1.651,1.066a18.228,18.228,0,0,1-10.571,0c-1.365-.494-1.652-.989-1.652-1.066s.287-.572,1.652-1.066Zm0,0" transform="translate(-185.462 -157.915)" fill="url(#linear-gradient)"/>
      </g>
    </g>
    <g id="statistics" transform="translate(653.162 655)">
      <path id="Path_746" data-name="Path 746" d="M118.343,23.249,111.68,12.2a.974.974,0,0,0-1.667,0l-6.663,11.044a.973.973,0,0,0,.833,1.476h1.726v5.258H98.451a.973.973,0,0,0-.973.973v3.407H90.025a.973.973,0,0,0-.973.973v3.407H81.6a.973.973,0,0,0-.973.973V52.9a.973.973,0,0,0,.973.973H114.81a.973.973,0,0,0,.973-.973V24.725h1.726a.974.974,0,0,0,.833-1.476ZM82.572,40.691h6.48V51.925h-6.48ZM91,36.311h6.479V51.925H91Zm8.426-4.38h6.484V51.925H99.425Zm15.385-9.152a.974.974,0,0,0-.973.973V51.925h-5.981v-27.2h1.756a.973.973,0,0,0,0-1.947h-3.7l4.939-8.186,4.939,8.186Zm0,0" transform="translate(-72.777 -10.592)" fill="url(#linear-gradient)"/>
      <path id="Path_747" data-name="Path 747" d="M26.087,45.632H4.208V3.881l.511.677A.973.973,0,1,0,6.273,3.386l-2.261-3a.973.973,0,0,0-1.554,0L.2,3.386A.973.973,0,0,0,1.751,4.558l.51-.677v41.75H1.132a.973.973,0,0,0,0,1.947H2.261v1.129a.973.973,0,0,0,1.947,0V47.578H26.087a.973.973,0,0,0,0-1.947Zm0,0" transform="translate(0 0)" fill="url(#linear-gradient)"/>
      <path id="Path_748" data-name="Path 748" d="M298.931,469.376a.968.968,0,0,0-.089-.168.922.922,0,0,0-.121-.148.912.912,0,0,0-.148-.121.932.932,0,0,0-.168-.09.967.967,0,0,0-.562-.056,1.016,1.016,0,0,0-.182.056.962.962,0,0,0-.167.09.914.914,0,0,0-.148.121.971.971,0,0,0-.122.148.946.946,0,0,0-.09.168.984.984,0,0,0-.056.182.964.964,0,0,0-.019.19.987.987,0,0,0,.019.191,1.028,1.028,0,0,0,.056.182.973.973,0,0,0,.527.527,1.014,1.014,0,0,0,.182.056.951.951,0,0,0,.191.019.939.939,0,0,0,.19-.019.964.964,0,0,0,.182-.056.95.95,0,0,0,.168-.089,1,1,0,0,0,.148-.122.935.935,0,0,0,.121-.148,1,1,0,0,0,.089-.168,1.026,1.026,0,0,0,.056-.182.961.961,0,0,0,.019-.191.938.938,0,0,0-.019-.19A.982.982,0,0,0,298.931,469.376Zm0,0" transform="translate(-268.142 -423.144)" fill="url(#linear-gradient)"/>
      <path id="Path_749" data-name="Path 749" d="M352.413,448l-3-2.261a.973.973,0,0,0-1.172,1.554l.677.51H336.606a.973.973,0,1,0,0,1.947H348.92l-.677.511a.973.973,0,1,0,1.172,1.554l3-2.261a.973.973,0,0,0,0-1.554Zm0,0" transform="translate(-302.961 -402.173)" fill="url(#linear-gradient)"/>
      <path id="Path_750" data-name="Path 750" d="M96.5,77.107a.974.974,0,0,0-1.412-.65l-3.024,1.627a.973.973,0,1,0,.922,1.715l.607-.327c-1.645,3.534-5.816,7.247-11.116,9.844a32.531,32.531,0,0,1-5.439,2.1.973.973,0,1,0,.53,1.873,34.442,34.442,0,0,0,5.766-2.223c5.568-2.729,10.01-6.688,11.916-10.55l.079.363a.974.974,0,0,0,1.9-.415Zm0,0" transform="translate(-68.898 -68.91)" fill="url(#linear-gradient)"/>
    </g>
    <g id="target_2_" data-name="target (2)" transform="translate(1246 429.481)">
      <g id="Group_663" data-name="Group 663" transform="translate(10.846 13.001)">
        <g id="Group_662" data-name="Group 662">
          <path id="Path_756" data-name="Path 756" d="M140.48,146.479a1.006,1.006,0,0,0,1.006-1.006V144.4a8.537,8.537,0,0,0-4.884-7.709,6.1,6.1,0,1,0-8.735-8.246c0-.051,0-.1,0-.154a7.378,7.378,0,1,0-14.756,0c0,.052,0,.1,0,.154a6.1,6.1,0,1,0-8.732,8.248,8.476,8.476,0,0,0-.835.452,1.006,1.006,0,1,0,1.056,1.713,6.515,6.515,0,0,1,6.33-.273,11.674,11.674,0,0,0-2.182,6.809v5.512h-7.244V144.4a6.445,6.445,0,0,1,.643-2.824,1.006,1.006,0,0,0-1.812-.875,8.442,8.442,0,0,0-.843,3.7v7.512a1.006,1.006,0,0,0,1.006,1.006h8.25v3.208a1.006,1.006,0,0,0,1.006,1.006h2.146a1.006,1.006,0,0,0,0-2.012h-1.14v-9.725a9.725,9.725,0,1,1,19.451,0v9.725h-14a1.006,1.006,0,0,0,0,2.012h15a1.006,1.006,0,0,0,1.006-1.006v-3.208h8.25a1.006,1.006,0,0,0,1.006-1.006v-2.146a1.006,1.006,0,1,0-2.012,0v1.14h-7.244v-5.511a11.673,11.673,0,0,0-2.182-6.809,6.507,6.507,0,0,1,9.426,5.815v1.073A1.006,1.006,0,0,0,140.48,146.479Zm-32.462-10.6a4.091,4.091,0,1,1,4.091-4.091A4.1,4.1,0,0,1,108.018,135.881Zm4.257,1.14q-.307-.178-.627-.329a6.1,6.1,0,0,0,2.467-4.7,7.434,7.434,0,0,0,2.253,2.411A11.768,11.768,0,0,0,112.275,137.022Zm8.218-3.365a5.366,5.366,0,1,1,5.366-5.366A5.372,5.372,0,0,1,120.493,133.656Zm8.218,3.365a11.768,11.768,0,0,0-4.093-2.617,7.434,7.434,0,0,0,2.252-2.411,6.1,6.1,0,0,0,2.467,4.7Q129.018,136.844,128.711,137.022Zm4.257-1.14a4.091,4.091,0,1,1,4.091-4.091A4.1,4.1,0,0,1,132.968,135.881Z" transform="translate(-99.5 -120.913)" fill="url(#linear-gradient)"/>
        </g>
      </g>
      <g id="Group_681" data-name="Group 681" transform="translate(26.105 34.028)">
        <g id="Group_680" data-name="Group 680">
          <path id="Path_765" data-name="Path 765" d="M224.623,277.841a1.006,1.006,0,0,0-1.4.253l-4.344,6.258-3.913-3.888a1.006,1.006,0,1,0-1.418,1.427l4.764,4.734a1,1,0,0,0,.709.292c.03,0,.061,0,.091,0a1.006,1.006,0,0,0,.735-.428l5.028-7.244A1.006,1.006,0,0,0,224.623,277.841Z" transform="translate(-213.251 -277.661)" fill="url(#linear-gradient)"/>
        </g>
      </g>
      <g id="Group_682" data-name="Group 682" transform="translate(3.488 4.489)">
        <g id="Group_652" data-name="Group 652">
          <path id="Path_751" data-name="Path 751" d="M.945,0A.945.945,0,0,0,0,.945v10.4H1.89V1.89h9.45V0Z" fill="url(#linear-gradient)"/>
        </g>
      </g>
      <g id="Group_683" data-name="Group 683" transform="translate(48.85 4.489)">
        <g id="Group_654" data-name="Group 654">
          <path id="Path_752" data-name="Path 752" d="M394.4,0H384V1.89h9.45v9.45h1.89V.945A.945.945,0,0,0,394.4,0Z" transform="translate(-384)" fill="url(#linear-gradient)"/>
        </g>
      </g>
      <g id="Group_684" data-name="Group 684" transform="translate(3.488 49.85)">
        <g id="Group_656" data-name="Group 656">
          <path id="Path_753" data-name="Path 753" d="M1.89,393.45V384H0v10.4a.945.945,0,0,0,.945.945h10.4v-1.89Z" transform="translate(0 -384)" fill="url(#linear-gradient)"/>
        </g>
      </g>
      <g id="Group_685" data-name="Group 685" transform="translate(48.85 49.85)">
        <g id="Group_658" data-name="Group 658">
          <path id="Path_754" data-name="Path 754" d="M393.45,384v9.45H384v1.89h10.4a.945.945,0,0,0,.945-.945V384Z" transform="translate(-384 -384)" fill="url(#linear-gradient)"/>
        </g>
      </g>
    </g>
  </g>
</svg>
