<?xml version="1.0" encoding="utf-8"?>
<svg xmlns="http://www.w3.org/2000/svg" xmlns:xlink="http://www.w3.org/1999/xlink" width="113.291" height="113.291" viewBox="0 0 113.291 113.291">
  <defs>
    <radialGradient id="radial-gradient" cx="0.5" cy="0.5" r="0.5" gradientUnits="objectBoundingBox">
      <stop offset="0" stop-color="#a3f4ff" stop-opacity="0"/>
      <stop offset="0.501" stop-color="#a3f4ff" stop-opacity="0"/>
      <stop offset="1" stop-color="#a3f4ff" stop-opacity="0.396"/>
    </radialGradient>
  </defs>
  <g id="Group_508" data-name="Group 508" transform="translate(-125.424 -1083.505)">
    <g id="Group_503" data-name="Group 503" transform="translate(125.424 1083.505)">
      <circle id="Ellipse_16" data-name="Ellipse 16" cx="24.658" cy="24.658" r="24.658" transform="translate(31.988 31.988)" fill="url(#radial-gradient)"/>
      <circle id="Ellipse_15" data-name="Ellipse 15" cx="5.665" cy="5.665" r="5.665" transform="translate(50.648 50.648)" fill="#a3f4ff"/>
      <circle id="Ellipse_17" data-name="Ellipse 17" cx="39.985" cy="39.985" r="39.985" transform="translate(16.661 16.661)" opacity="0.478" fill="url(#radial-gradient)"/>
      <circle id="Ellipse_18" data-name="Ellipse 18" cx="56.646" cy="56.646" r="56.646" transform="translate(0 0)" opacity="0.228" fill="url(#radial-gradient)"/>
    </g>
    <g id="_910412" data-name="910412" transform="translate(119.939 1113)">
      <path id="Path_556" data-name="Path 556" d="M49.73,44.552A1.738,1.738,0,0,1,51.516,46.3c0,2.626,0,2.626,1.786,2.626,0,0-1.786.875-.893,1.751s1.786,0,1.786,1.751-.893,3.5,1.786,4.377a2.344,2.344,0,0,0,.289.07c.009.009.009.009.018,0a9.222,9.222,0,0,0,2.636,0h-.009c-.009.009-.009.009-.018,0-.1-.017,7.606-.995,7.511-1.024-1.5-.489-.631,6.441,2.048,4.688.717-.469,18.94,1.836,20.026-.735.6-1.43-2.64-5.35-3.645-11.339-1.183-.7,6.744-20.216,5.331-20.155-1.757.062-27.06,9.374-27.06,9.239,0-1.751-11.407,4.309-12.3,3.434s3.387,7.483,3.387,7.483c-1.786,0-.052.461-.052-2.165a1.738,1.738,0,0,0-1.786-1.751C47.9,43.677,72.58,40.608,72.685,36.5c.023-.885-1.078-3.554-1.27-4.418-.131-.657.149,3.548,0,2.927-.173-.669,6.684,2.18,6.63,1.492-.064-1.455-3.694,3.2-3.311,1.792,1.83-7.4-13.607-25.913-6.279-27.874a21.582,21.582,0,0,1,4.231-.678,22.876,22.876,0,0,0-2.567,0,21.6,21.6,0,0,0-4.289.683C58.5,12.382,52.776,17.529,50.947,24.926a14.07,14.07,0,0,0-.481,4.316,11.809,11.809,0,0,0,.342,2.04c.149.622.324,1.226.455,1.882a10.9,10.9,0,0,1,.254,2.635C51.411,39.9,45.274,43.677,49.73,44.552Z" transform="translate(-7.672 -7.811)" fill="#fff"/>
      <g id="Group_507" data-name="Group 507" transform="translate(39.561 1)">
        <path id="Path_557" data-name="Path 557" d="M235.85,496.091h21.885v1.751H235.85Z" transform="translate(-215.714 -445.302)" fill="#fff"/>
        <g id="Group_506" data-name="Group 506" transform="translate(0 0)" opacity="0.927">
          <path id="Path_558" data-name="Path 558" d="M83.824,26.4c1.368-7.429-.865-17.641-9-22.507A22.608,22.608,0,0,0,57.931,1.765C50.046,3.873,44.249,9.532,42.427,16.9a14.984,14.984,0,0,0-.51,4.591,15.41,15.41,0,0,0,.529,2.837,12.258,12.258,0,0,1,.523,3.639c-.037,1.467-1.047,2.989-1.94,4.332-.973,1.466-1.813,2.731-1.326,3.9a2.858,2.858,0,0,0,2.188,1.4,1.047,1.047,0,0,0,.159.016.821.821,0,0,1,.918.875c0,1.819.045,2.758.8,3.188a1.6,1.6,0,0,0-.136.432,1.56,1.56,0,0,0,.493,1.38,2.659,2.659,0,0,0,1.388.709l.106.023a2.239,2.239,0,0,1,.027.394,9.423,9.423,0,0,1-.069.974c-.145,1.4-.344,3.318,2.457,4.234a5.769,5.769,0,0,0,1.729.21,27.418,27.418,0,0,0,7.782-1.492,9.892,9.892,0,0,1,1.278,4.121.875.875,0,0,0,.875.875h3.5a.875.875,0,0,0,0-1.751H60.5a12.537,12.537,0,0,0-1.287-3.84c2.536-.994,4.77-2.272,5.843-3.675a.876.876,0,0,0-1.392-1.063c-2.477,3.242-12.785,5.7-15.087,4.95-1.458-.477-1.4-1.036-1.259-2.388a11.006,11.006,0,0,0,.079-1.155c0-1.475-.595-1.915-1.489-2.123a1.122,1.122,0,0,1-.471-.182,2.429,2.429,0,0,1,.579-.41.876.876,0,0,0-.386-1.661c-.316,0-.668,0-.852-.023a13.515,13.515,0,0,1-.056-1.727,2.561,2.561,0,0,0-2.562-2.624c-.631-.133-.822-.3-.839-.344-.127-.3.716-1.573,1.169-2.256.972-1.464,2.182-3.285,2.231-5.256a12.283,12.283,0,0,0-.362-3.247,8.725,8.725,0,0,1,3.3-1.82,2.714,2.714,0,0,1,1.3.091.875.875,0,1,0,.465-1.688,4.416,4.416,0,0,0-2.129-.117A9.021,9.021,0,0,0,43.9,22.916a10.4,10.4,0,0,1-.242-1.55,12.959,12.959,0,0,1,.464-4.044C45.819,10.48,51.015,5.426,58.384,3.456a20.794,20.794,0,0,1,15.54,1.938c7.419,4.437,9.44,13.834,8.179,20.687a39.062,39.062,0,0,1-4.519,12.449c-.481.9-.9,1.673-1.2,2.391a.854.854,0,0,0-.054.408c.024,2.1,1.914,7.627,3.536,10.461H70.2a.875.875,0,0,0,0,1.751h11.38v-.006a.874.874,0,0,0,.694-.363.889.889,0,0,0-.19-1.222c-.906-.688-3.905-7.933-4-10.536.264-.6.618-1.274,1.038-2.057A41.133,41.133,0,0,0,83.824,26.4Z" transform="translate(-39.561 -1)" fill="#4876dd"/>
          <path id="Path_559" data-name="Path 559" d="M296.458,496.091a.921.921,0,0,0-.622.254l-.105.131a.667.667,0,0,0-.079.158.552.552,0,0,0-.052.158,1.282,1.282,0,0,0-.018.175.919.919,0,0,0,.254.622.863.863,0,0,0,1.427-.289.877.877,0,0,0,.07-.333.867.867,0,0,0-.875-.875Z" transform="translate(-269.319 -445.302)" fill="#4876dd"/>
          <path id="Path_560" data-name="Path 560" d="M156.165,62.886l2.169-1.734a2.621,2.621,0,1,0,1.861-4.8l-1.676-2.324a2.6,2.6,0,0,0,.235-.6l1.623-.649a2.62,2.62,0,1,0,2.536-4.287L161.6,45.866a2.615,2.615,0,0,0-3.216-4.072l-1.467-1.218a2.616,2.616,0,0,0-4.346-2.721l-2.6-.649a2.61,2.61,0,0,0-5.022-.031l-3.468.694a2.614,2.614,0,0,0-4.179,3.085l-1.7,2.263a2.618,2.618,0,0,0-.15,5.122l1.405,3.469a2.621,2.621,0,1,0,4.309,2.741h4.7a2.535,2.535,0,0,0,2.865,1.71l2.906,4.42a2.619,2.619,0,1,0,4.525,2.206Zm-2.58-3.084a2.586,2.586,0,0,0-.4.041l-2.906-4.42a2.609,2.609,0,0,0,.561-1.006l2.955-.591a2.623,2.623,0,0,0,3.429,1.4l1.08,1.5a2.621,2.621,0,0,0-1.217,2.209,2.594,2.594,0,0,0,.156.857l-1.478,1.181A2.625,2.625,0,0,0,153.585,59.8Zm-12.816-7.73,4.3-3.583,1.464,3.284a2.62,2.62,0,0,0-.664,1.027h-4.7A2.6,2.6,0,0,0,140.769,52.072Zm-2.227-7.151a2.628,2.628,0,0,0-1.035-1.322l1.119-1.49a2.456,2.456,0,0,0,1.677.071l2.7,1.734a2.621,2.621,0,0,0-.64,1.006Zm9.089-3.84,2.628,2.628a2.622,2.622,0,0,0-.89,1.213H147.3a2.622,2.622,0,0,0-1.141-1.38Zm6.71,5.457,3.468-.694c.055.058.115.11.176.163l-1.618,4.045-2.836-2.269a2.612,2.612,0,0,0,.809-1.246Zm-.636,5.52-2.955.591a2.629,2.629,0,0,0-.5-.758l1.821-3.035,2.445,1.956a2.613,2.613,0,0,0-.809,1.246Zm-5.372-1.009c-.068,0-.132.015-.2.02l-1.5-3.37a2.62,2.62,0,0,0,.664-1.027h2.074a2.622,2.622,0,0,0,1.141,1.38l-1.82,3.033A2.591,2.591,0,0,0,148.333,51.048Zm-3.5-6.128a.875.875,0,1,1-.875.875A.875.875,0,0,1,144.831,44.921Zm11.38,7a.865.865,0,0,1,.316.064l.007,0c.008,0,.016,0,.024,0a.872.872,0,1,1-.347-.073Zm-3.5-6.128a.875.875,0,1,1-.875-.875A.875.875,0,0,1,152.709,45.8Zm7,14.006a.875.875,0,1,1,.875-.875A.875.875,0,0,1,159.713,59.8Zm-1.166-8.18a2.626,2.626,0,0,0-.607-.785l1.67-4.176c.035,0,.068.01.1.01a2.573,2.573,0,0,0,.315-.032l1.06,2.114a2.618,2.618,0,0,0-1.375,2.294c0,.035.009.068.01.1Zm3.793.3a.875.875,0,0,1-.8-.528c0-.008,0-.016,0-.024l-.006-.009a.863.863,0,0,1-.064-.315.875.875,0,1,1,.875.875Zm-1.751-7.879a.876.876,0,0,1-.875.875.865.865,0,0,1-.316-.064l-.007,0c-.008,0-.016,0-.024,0a.875.875,0,1,1,1.222-.8Zm-6.128-5.252a.875.875,0,1,1-.875.875A.875.875,0,0,1,154.46,38.793Zm0,3.5a2.6,2.6,0,0,0,1.331-.375l1.467,1.218a2.6,2.6,0,0,0-.172.908c0,.053.013.1.016.155l-2.851.57a2.627,2.627,0,0,0-2.014-1.559l-3.205-3.205a2.632,2.632,0,0,0,.821-1.024l2,.5c0,.063-.019.123-.019.187A2.629,2.629,0,0,0,154.46,42.295Zm-7-5.252a.875.875,0,1,1-.875.875A.875.875,0,0,1,147.457,37.042Zm-2.417,1.9a2.633,2.633,0,0,0,1.093,1.229l-1.589,2.648L141.8,41.059a2.6,2.6,0,0,0,.407-1.39c0-.053-.013-.1-.016-.155Zm-5.462-.15a.875.875,0,1,1-.875.875A.875.875,0,0,1,139.579,38.793Zm-3.5,6.128a.875.875,0,1,1-.875.875A.875.875,0,0,1,136.077,44.921Zm1.18,3.208a2.623,2.623,0,0,0,1.285-1.458h3.824a2.618,2.618,0,0,0,.791,1.131L139.2,51.1a2.625,2.625,0,0,0-.5-.05c-.087,0-.169.017-.253.026ZM138.7,54.55a.875.875,0,1,1,.875-.875A.875.875,0,0,1,138.7,54.55Zm8.754-.875a.875.875,0,1,1,.875.875A.875.875,0,0,1,147.457,53.675Zm5.252,8.754a.875.875,0,1,1,.875.875A.875.875,0,0,1,152.709,62.429Z" transform="translate(-123.819 -31.774)" fill="#4876dd"/>
        </g>
      </g>
    </g>
  </g>
</svg>
