<?xml version="1.0" encoding="utf-8"?>
<svg xmlns="http://www.w3.org/2000/svg" width="117.134" height="117.135" viewBox="0 0 117.134 117.135">
  <g id="Group_1314" data-name="Group 1314" transform="translate(-120.608 -3846)" opacity="0.3">
    <g id="Group_1318" data-name="Group 1318" transform="translate(120.608 3846)">
      <g id="Group_1317" data-name="Group 1317" transform="translate(0 0)">
        <circle id="Ellipse_105" data-name="Ellipse 105" cx="58.567" cy="58.567" r="58.567" fill="#253f95"/>
        <g id="data_1_" data-name="data (1)" transform="translate(15.984 15.985)">
          <path id="Path_1398" data-name="Path 1398" d="M195.478,256.141v7.648c0,1.537-2.388,2.872-5.893,3.545a27.927,27.927,0,0,1-5.183.464c-6.118,0-11.077-1.794-11.077-4.009v-7.648c0,2.215,4.959,4.009,11.077,4.009S195.478,258.356,195.478,256.141Zm0,0" transform="translate(-142.135 -210.105)" fill="#1a4ab7"/>
          <path id="Path_1399" data-name="Path 1399" d="M195.478,221.376v.159c0,2.215-4.958,4.009-11.076,4.009s-11.077-1.794-11.077-4.009v-7.594c0,2.215,4.959,4.007,11.077,4.007s11.076-1.792,11.076-4.007Zm0,0" transform="translate(-142.135 -175.499)" fill="#4876dd"/>
          <path id="Path_1400" data-name="Path 1400" d="M195.478,171.73v7.6c0,2.215-4.958,4.007-11.076,4.007s-11.077-1.792-11.077-4.007v-7.6c0,2.214,4.959,4.009,11.077,4.009S195.478,173.944,195.478,171.73Zm0,0" transform="translate(-142.135 -140.884)" fill="#1a4ab7"/>
          <path id="Path_1401" data-name="Path 1401" d="M184.4,149.449c6.116,0,11.076,1.8,11.076,4.01s-4.96,4.009-11.076,4.009-11.077-1.8-11.077-4.009S178.283,149.449,184.4,149.449Zm0,0" transform="translate(-142.135 -122.612)" fill="#4876dd"/>
          <g id="Group_1316" data-name="Group 1316" transform="translate(0.005 0.005)">
            <path id="Path_1402" data-name="Path 1402" d="M2.944,19.315a23.842,23.842,0,0,1,.4-6.92l0-.019a15.059,15.059,0,0,1,4-7.556C10.088,2.077,13.848.576,18.523.36a30.026,30.026,0,0,1,6.295.427l-.5,2.836a27.088,27.088,0,0,0-5.677-.386c-3.923.181-7.043,1.4-9.261,3.619a12.225,12.225,0,0,0-3.219,6.133,20.973,20.973,0,0,0-.351,6.074Zm0,0" transform="translate(-2.345 -0.339)" fill="#2367cb"/>
            <path id="Path_1403" data-name="Path 1403" d="M13.84,146.969c-.9-1.648-1.732-3.305-2.464-4.928L14,140.857c.7,1.554,1.5,3.145,2.364,4.727ZM9.334,136.9a47.025,47.025,0,0,1-1.314-4.567l2.8-.65a44.373,44.373,0,0,0,1.234,4.285Zm0,0" transform="translate(-6.582 -108.048)" fill="#2367cb"/>
            <path id="Path_1404" data-name="Path 1404" d="M75.788,262.32q-.527-.548-1.044-1.1c-.788-.844-1.549-1.684-2.262-2.5q-.193-.22-.385-.441l2.174-1.887c.124.143.249.286.375.429.694.79,1.435,1.608,2.2,2.429q.5.538,1.018,1.073Zm-7.17-8.266q-.324-.416-.64-.834c-.9-1.188-1.778-2.393-2.6-3.587L67.75,248c.8,1.156,1.644,2.325,2.519,3.478q.309.406.622.81Zm0,0" transform="translate(-53.62 -203.434)" fill="#2367cb"/>
            <path id="Path_1405" data-name="Path 1405" d="M351.616,312.054q-1.334,0-2.743-.135c-.662-.064-1.346-.151-2.034-.26l.45-2.843c.63.1,1.254.18,1.858.237a21.369,21.369,0,0,0,6.7-.317,12.189,12.189,0,0,0,6.069-3.2c3.171-3.17,4.3-8.25,3.274-14.689a45.885,45.885,0,0,0-3.4-11.04l2.637-1.157a48.7,48.7,0,0,1,3.61,11.742c1.182,7.389-.229,13.33-4.08,17.18a15.027,15.027,0,0,1-7.473,3.974A22.182,22.182,0,0,1,351.616,312.054Zm0,0" transform="translate(-284.432 -228.567)" fill="#2367cb"/>
            <path id="Path_1406" data-name="Path 1406" d="M413.876,246.664c-.594-1.2-1.247-2.421-1.942-3.641l2.5-1.426c.723,1.267,1.4,2.542,2.02,3.787Zm0,0" transform="translate(-337.812 -198.183)" fill="#2367cb"/>
            <path id="Path_1407" data-name="Path 1407" d="M347.594,154.124c-1-1.46-2.043-2.911-3.115-4.312l2.287-1.75c1.1,1.443,2.183,2.936,3.208,4.44Zm-6.461-8.448c-1.147-1.341-2.347-2.669-3.567-3.945l2.083-1.989c1.255,1.314,2.49,2.681,3.672,4.063Zm0,0" transform="translate(-276.827 -114.657)" fill="#2367cb"/>
            <path id="Path_1408" data-name="Path 1408" d="M16.914,367.122a23.713,23.713,0,0,1-4.828-.5,15.053,15.053,0,0,1-7.575-4c-2.743-2.742-4.242-6.5-4.459-11.178a29.957,29.957,0,0,1,.427-6.293l2.836.5a27.077,27.077,0,0,0-.386,5.675c.181,3.923,1.4,7.044,3.617,9.263a12.2,12.2,0,0,0,6.142,3.216,20.873,20.873,0,0,0,6.066.352l.252,2.868Q17.96,367.123,16.914,367.122Zm0,0" transform="translate(-0.03 -283.11)" fill="#2367cb"/>
            <path id="Path_1409" data-name="Path 1409" d="M132.028,424.016l-.65-2.8a44.409,44.409,0,0,0,4.284-1.234l.931,2.725A47.245,47.245,0,0,1,132.028,424.016Zm9.707-3.357-1.184-2.625c1.554-.7,3.145-1.5,4.728-2.363l1.383,2.525C145.016,419.1,143.357,419.929,141.736,420.66Zm0,0" transform="translate(-107.743 -340.933)" fill="#2367cb"/>
            <path id="Path_1410" data-name="Path 1410" d="M249.328,347.786l-1.633-2.371c1.17-.8,2.339-1.652,3.477-2.519q.408-.309.81-.622l1.766,2.273q-.416.324-.834.641C251.742,346.08,250.535,346.955,249.328,347.786Zm8.65-6.716-1.887-2.175.429-.374c.784-.69,1.6-1.431,2.429-2.2.357-.334.714-.676,1.071-1.018l1.994,2.076q-.549.527-1.1,1.046c-.85.792-1.688,1.552-2.494,2.261Zm0,0" transform="translate(-203.128 -275.025)" fill="#2367cb"/>
            <path id="Path_1411" data-name="Path 1411" d="M311.351,24.8l-2.844-.45c.1-.63.18-1.255.238-1.858a21.359,21.359,0,0,0-.317-6.7,12.192,12.192,0,0,0-3.2-6.072c-3.171-3.169-8.249-4.3-14.69-3.272a45.854,45.854,0,0,0-11.039,3.4L278.34,7.217a48.683,48.683,0,0,1,11.741-3.61c7.39-1.182,13.33.229,17.18,4.08a15.02,15.02,0,0,1,3.975,7.474,24.235,24.235,0,0,1,.374,7.606C311.547,23.427,311.46,24.111,311.351,24.8Zm0,0" transform="translate(-228.258 -2.686)" fill="#2367cb"/>
            <path id="Path_1412" data-name="Path 1412" d="M241.987,37.6l-1.432-2.5c1.31-.751,2.628-1.456,3.919-2.1l1.281,2.579C244.514,36.2,243.246,36.877,241.987,37.6Zm0,0" transform="translate(-197.273 -27.126)" fill="#2367cb"/>
            <path id="Path_1413" data-name="Path 1413" d="M141.426,75.961l-1.989-2.083c1.314-1.255,2.682-2.49,4.063-3.672l1.872,2.188C144.03,73.542,142.7,74.741,141.426,75.961Zm8.082-6.912-1.749-2.287c1.444-1.1,2.937-2.183,4.44-3.207l1.621,2.38C152.361,66.928,150.91,67.976,149.508,69.049Zm0,0" transform="translate(-114.351 -52.179)" fill="#2367cb"/>
          </g>
          <path id="Path_1414" data-name="Path 1414" d="M171.2,344.453l-2.768.793,1.22,4.26a58.162,58.162,0,0,1-9.944-4.2,85.153,85.153,0,0,1-12.516-8.177,101.63,101.63,0,0,1-8.339-7.3l-2.012,2.06a104.476,104.476,0,0,0,8.573,7.5,88.018,88.018,0,0,0,12.944,8.455,63.93,63.93,0,0,0,8.248,3.671l-2.628.753.792,2.767,7.308-2.092.045-.013a1.44,1.44,0,0,0,1-1.783Zm0,0" transform="translate(-112.219 -270.539)" fill="#2367cb"/>
          <path id="Path_1415" data-name="Path 1415" d="M142.641,3.635l1.456,6.807,2.816-.6-.93-4.349a57.594,57.594,0,0,1,7.691,3.377,84.088,84.088,0,0,1,12.364,7.982c1.831,1.412,3.674,2.944,5.478,4.552.983.878,1.991,1.814,3,2.785.418.4.855.832,1.3,1.274l2.036-2.036c-.455-.455-.905-.9-1.335-1.312-1.03-.995-2.065-1.957-3.078-2.861-1.855-1.653-3.751-3.229-5.63-4.679a86.938,86.938,0,0,0-12.783-8.252A60.613,60.613,0,0,0,149.3,3.67l2.538-.543-.6-2.815-7.488,1.6a1.452,1.452,0,0,0-1.123,1.62C142.627,3.567,142.634,3.6,142.641,3.635Zm0,0" transform="translate(-116.946 -0.313)" fill="#2367cb"/>
          <path id="Path_1416" data-name="Path 1416" d="M23.114,131.641c-.5.5-.92.928-1.311,1.333-.97,1-1.932,2.039-2.862,3.078-1.653,1.854-3.229,3.75-4.679,5.631a87.1,87.1,0,0,0-8.251,12.783,60.252,60.252,0,0,0-2.653,5.72l-.543-2.538-2.816.6,1.6,7.488a1.454,1.454,0,0,0,1.619,1.123c.034,0,.069-.011.1-.018l6.808-1.456-.6-2.815-4.349.93a57.342,57.342,0,0,1,3.378-7.691,84.188,84.188,0,0,1,7.982-12.365c1.413-1.832,2.945-3.675,4.551-5.477.9-1.009,1.84-2.017,2.786-3,.379-.394.784-.806,1.275-1.3Zm0,0" transform="translate(0 -108.008)" fill="#2367cb"/>
          <path id="Path_1417" data-name="Path 1417" d="M354.741,139.726l-2.093-7.308-.013-.045a1.441,1.441,0,0,0-1.782-.995l-6.7,1.918.792,2.768,4.26-1.218a58.252,58.252,0,0,1-4.195,9.942,84.966,84.966,0,0,1-8.177,12.515,101.909,101.909,0,0,1-7.3,8.341l2.06,2.012a104.718,104.718,0,0,0,7.5-8.574,87.9,87.9,0,0,0,8.456-12.943,64.11,64.11,0,0,0,3.671-8.25l.753,2.629Zm0,0" transform="translate(-270.232 -107.747)" fill="#2367cb"/>
        </g>
      </g>
    </g>
  </g>
</svg>
