<?xml version="1.0" encoding="utf-8"?>
<svg xmlns="http://www.w3.org/2000/svg" xmlns:xlink="http://www.w3.org/1999/xlink" width="1440" height="702" viewBox="0 0 1440 702">
  <defs>
    <radialGradient id="radial-gradient" cx="0.5" cy="0.5" r="0.5" gradientUnits="objectBoundingBox">
      <stop offset="0" stop-color="#a3f4ff" stop-opacity="0"/>
      <stop offset="0.501" stop-color="#a3f4ff" stop-opacity="0"/>
      <stop offset="1" stop-color="#a3f4ff" stop-opacity="0.396"/>
    </radialGradient>
    <clipPath id="clip-path">
      <rect id="Rectangle_2853" data-name="Rectangle 2853" width="522" height="421" transform="translate(0 1225)" fill="#fff" stroke="#707070" stroke-width="1"/>
    </clipPath>
    <linearGradient id="linear-gradient" x1="0.5" x2="0.5" y2="1" gradientUnits="objectBoundingBox">
      <stop offset="0" stop-color="#d4d4fa"/>
      <stop offset="1" stop-color="#f2f7ff" stop-opacity="0"/>
    </linearGradient>
  </defs>
  <g id="Group_1303" data-name="Group 1303" transform="translate(0 -944)">
    <rect id="Rectangle_2852" data-name="Rectangle 2852" width="1440" height="694" transform="translate(0 944)" fill="#fff"/>
    <g id="Group_1302" data-name="Group 1302" transform="translate(1221.919 1096)" opacity="0.5">
      <circle id="Ellipse_16" data-name="Ellipse 16" cx="31.842" cy="31.842" r="31.842" transform="translate(41.309 41.309)" fill="url(#radial-gradient)"/>
      <circle id="Ellipse_15" data-name="Ellipse 15" cx="7.315" cy="7.315" r="7.315" transform="translate(65.406 65.406)" fill="#a3f4ff"/>
      <circle id="Ellipse_17" data-name="Ellipse 17" cx="51.636" cy="51.636" r="51.636" transform="translate(21.515 21.515)" opacity="0.478" fill="url(#radial-gradient)"/>
      <circle id="Ellipse_18" data-name="Ellipse 18" cx="73.151" cy="73.151" r="73.151" transform="translate(0 0)" opacity="0.228" fill="url(#radial-gradient)"/>
    </g>
    <g id="Mask_Group_21" data-name="Mask Group 21" clip-path="url(#clip-path)">
      <g id="Group_900" data-name="Group 900" transform="translate(-13.402 -4142.383)">
        <g id="Group_739" data-name="Group 739" transform="translate(-81 5518.516)">
          <g id="Group_616" data-name="Group 616" transform="translate(0 70.001)" opacity="0.311">
            <path id="Path_426" data-name="Path 426" d="M416.083,235.5l-43.96-60.956L357.275,202.47,333.038,218.8,224.445,374H608.012Z" transform="translate(-224.445 -174.549)" fill="url(#linear-gradient)"/>
          </g>
          <g id="Group_738" data-name="Group 738" transform="translate(145.507)" opacity="0.311">
            <path id="Path_426-2" data-name="Path 426" d="M416.083,235.5l-43.96-60.956L357.275,202.47,333.038,218.8,224.445,374H608.012Z" transform="translate(-224.445 -174.549)" fill="url(#linear-gradient)"/>
          </g>
          <g id="Group_743" data-name="Group 743" transform="translate(337.291 70.001)" opacity="0.311">
            <path id="Path_426-3" data-name="Path 426" d="M320.36,208.877l21.968-34.327,7.42,15.724,12.112,9.2,54.268,87.4H224.445Z" transform="translate(-224.445 -174.549)" fill="url(#linear-gradient)"/>
          </g>
        </g>
      </g>
    </g>
  </g>
</svg>
