<?xml version="1.0" encoding="utf-8"?>
<svg xmlns="http://www.w3.org/2000/svg" width="116.285" height="116.285" viewBox="0 0 116.285 116.285">
  <g id="growth-strategy" transform="translate(-559.608 -4008.203)" opacity="0.3">
    <path id="Path_1418" data-name="Path 1418" d="M58.143,0A58.143,58.143,0,1,1,0,58.143,58.143,58.143,0,0,1,58.143,0Z" transform="translate(559.608 4008.203)" fill="#253f95"/>
    <path id="Path_854" data-name="Path 854" d="M223.37,413.867h9.024c.831,0,1.5,1.557,1.5,3.478l.169,37.512-11.986,2.021-.216-39.534C221.866,415.424,222.539,413.867,223.37,413.867Z" transform="translate(399.04 3667.532)" fill="#4876dd"/>
    <path id="Path_855" data-name="Path 855" d="M324.267,157.412l.147,39.971,11.886-6.249v-91.4a1.555,1.555,0,0,0-1.5-1.6h-9.025a1.555,1.555,0,0,0-1.5,1.6v8.011" transform="translate(314.689 3923.007)" fill="#2367cb"/>
    <path id="Path_858" data-name="Path 858" d="M120.97,217.6h9.024a1.7,1.7,0,0,1,1.5,1.838l.055,60.787-12.088-1.98V219.438A1.7,1.7,0,0,1,120.97,217.6Z" transform="translate(483.391 3844.238)" fill="#2367cb"/>
    <path id="Path_860" data-name="Path 860" d="M186.07,137.1l10.121,11.567H176.638s-6.016-1.7-6.016-15.041c0-11.189,6.438-17.124,13.357-17.949a1.513,1.513,0,0,1,1.684,1.5v1.775a1.132,1.132,0,0,0,1.132,1.132h2.467a1.123,1.123,0,0,1,1.1.857c.479,1.954,1.982,6.665,5.552,7.878a2.593,2.593,0,0,1,1.784,2.447v1.1a2.631,2.631,0,0,1-2.588,2.762h-4.149a2.587,2.587,0,0,1-1.435-.435l-1.3-.867a1.647,1.647,0,0,0-2.56,1.37v.817A1.646,1.646,0,0,0,186.07,137.1Z" transform="translate(441.252 3913.17)" fill="#4876dd"/>
    <path id="Path_861" data-name="Path 861" d="M190.7,337.022l-2.568,2.568a1.5,1.5,0,0,0-.44,1.064v2.385a1.5,1.5,0,0,0,1.5,1.5h22.561a1.5,1.5,0,0,0,1.5-1.5v-2.385a1.5,1.5,0,0,0-.44-1.064l-2.568-2.568Z" transform="translate(427.193 3730.832)" fill="#4876dd"/>
    <path id="Path_857" data-name="Path 857" d="M18.571,345.6H27.6a1.5,1.5,0,0,1,1.5,1.5v29.971l-12.033-6.187V347.1A1.5,1.5,0,0,1,18.571,345.6Z" transform="translate(567.742 3743.509)" fill="#2367cb"/>
  </g>
</svg>
