<?xml version="1.0" encoding="utf-8"?>
<svg xmlns="http://www.w3.org/2000/svg" xmlns:xlink="http://www.w3.org/1999/xlink" width="1440" height="576" viewBox="0 0 1440 576">
  <defs>
    <linearGradient id="linear-gradient" x1="1" y1="0.041" x2="0.203" y2="0.834" gradientUnits="objectBoundingBox">
      <stop offset="0" stop-color="#518acf"/>
      <stop offset="1" stop-color="#6454f0"/>
    </linearGradient>
    <linearGradient id="linear-gradient-2" x1="0.924" y1="0.76" x2="0.254" y2="0.237" xlink:href="#linear-gradient"/>
    <clipPath id="clip-path">
      <rect id="Rectangle_2855" data-name="Rectangle 2855" width="1440" height="576" fill="#fff" stroke="#707070" stroke-width="1"/>
    </clipPath>
    <clipPath id="clip-path-2">
      <rect id="Rectangle_1275" data-name="Rectangle 1275" width="1440" height="851.888" fill="url(#linear-gradient)"/>
    </clipPath>
    <clipPath id="clip-path-3">
      <rect id="Rectangle_1274" data-name="Rectangle 1274" width="2553.558" height="1603.595" rx="3.508" fill="none"/>
    </clipPath>
    <clipPath id="clip-path-4">
      <path id="Path_435" data-name="Path 435" d="M3237.469,2323.8C3302.63,2313.028,4790,1747.37,4790,1747.37l1521.37,767.679Z" transform="translate(-3237.469 -1747.37)" fill="none"/>
    </clipPath>
    <radialGradient id="radial-gradient" cx="0.5" cy="0.5" r="0.5" gradientUnits="objectBoundingBox">
      <stop offset="0" stop-color="#a3f4ff" stop-opacity="0"/>
      <stop offset="0.501" stop-color="#a3f4ff" stop-opacity="0"/>
      <stop offset="1" stop-color="#a3f4ff" stop-opacity="0.396"/>
    </radialGradient>
    <linearGradient id="linear-gradient-3" x1="0.5" x2="0.5" y2="1" gradientUnits="objectBoundingBox">
      <stop offset="0" stop-color="#1958c0"/>
      <stop offset="1" stop-color="#0d2c60"/>
    </linearGradient>
    <clipPath id="clip-path-5">
      <path id="Path_428" data-name="Path 428" d="M841.734,151.257l72.4,21.185,6.215,6.595h93.858L1326.1,262.553H224.445Z" transform="translate(-224.445 -151.257)" fill="url(#linear-gradient-2)"/>
    </clipPath>
  </defs>
  <g id="Mask_Group_23" data-name="Mask Group 23" clip-path="url(#clip-path)">
    <g id="Group_1303" data-name="Group 1303">
      <g id="Mask_Group_3" data-name="Mask Group 3" transform="translate(0 -276)" opacity="0.293" clip-path="url(#clip-path-2)">
        <g id="Group_482" data-name="Group 482" transform="translate(-1368 -160.204)">
          <g id="Group_485" data-name="Group 485">
            <g id="Group_484" data-name="Group 484" clip-path="url(#clip-path-3)">
              <g id="Group_483" data-name="Group 483" transform="translate(-65.161 394.164)">
                <g id="Group_482-2" data-name="Group 482" clip-path="url(#clip-path-4)">
                  <path id="Path_434" data-name="Path 434" d="M3237.469,2323.8C3302.63,2313.028,4790,1747.37,4790,1747.37l1521.37,767.679Z" transform="translate(-3237.469 -1747.37)" fill="#502f9e"/>
                </g>
              </g>
            </g>
          </g>
          <path id="Path_436" data-name="Path 436" d="M5850.871,1747.37l10.388,106.847,143.813,134.815,33.727,179.44,1069.02,278.34,63.745-33.895Z" transform="translate(-4363.498 -1353.206)" fill="#fff" opacity="0.143"/>
        </g>
      </g>
      <g id="Group_985" data-name="Group 985" transform="translate(0 -46)">
        <g id="Group_984" data-name="Group 984" transform="translate(1198.454 87.5)">
          <circle id="Ellipse_16" data-name="Ellipse 16" cx="52.657" cy="52.657" r="52.657" transform="translate(68.311 68.311)" fill="url(#radial-gradient)"/>
          <circle id="Ellipse_15" data-name="Ellipse 15" cx="12.097" cy="12.097" r="12.097" transform="translate(108.16 108.16)" fill="#a3f4ff"/>
          <circle id="Ellipse_17" data-name="Ellipse 17" cx="85.389" cy="85.389" r="85.389" transform="translate(35.579 35.579)" opacity="0.478" fill="url(#radial-gradient)"/>
          <circle id="Ellipse_18" data-name="Ellipse 18" cx="120.968" cy="120.968" r="120.968" transform="translate(0 0)" opacity="0.228" fill="url(#radial-gradient)"/>
        </g>
        <g id="growth_1_" data-name="growth (1)" transform="translate(1097.174 184.083)">
          <path id="Path_862" data-name="Path 862" d="M31.549,401.668H21.239C9.528,401.668,0,401.2,0,412.907V555.74a5.775,5.775,0,0,0,5.775,5.775H47.014a5.775,5.775,0,0,0,5.775-5.775V412.907C52.789,401.2,43.261,401.668,31.549,401.668Zm0,0" transform="translate(-7 -208.149)" fill="#cdd8f2"/>
          <path id="Path_863" data-name="Path 863" d="M138.659,321.332H128.35c-11.711,0-21.24-.471-21.24,11.241V506.335a5.776,5.776,0,0,0,5.775,5.775h41.24a5.776,5.776,0,0,0,5.775-5.775V332.573C159.9,320.861,150.371,321.332,138.659,321.332Zm0,0" transform="translate(-45.945 -158.743)" fill="#fff"/>
          <path id="Path_864" data-name="Path 864" d="M245.771,241h-10.31c-11.711,0-21.239-.135-21.239,11.99v217.1A5.879,5.879,0,0,0,220,476.064h41.237a5.879,5.879,0,0,0,5.775-5.979V252.99C267.01,240.865,257.483,241,245.771,241Zm0,0" transform="translate(-84.892 -122.697)" fill="#cdd8f2"/>
          <path id="Path_865" data-name="Path 865" d="M359.518,57.29,318.788,2.308a5.7,5.7,0,0,0-9.165,0L268.9,57.29a5.7,5.7,0,0,0,4.582,9.1h14.66v262.73a5.7,5.7,0,0,0,5.7,5.7H334.57a5.7,5.7,0,0,0,5.7-5.7V66.389h14.661a5.7,5.7,0,0,0,4.583-9.1Zm0,0" transform="translate(-92.39)" fill="url(#linear-gradient-3)"/>
        </g>
      </g>
      <g id="Group_980" data-name="Group 980" transform="translate(575.895 418.898)">
        <path id="Path_426" data-name="Path 426" d="M757.364,255.736l33.5-40.5,5.1,11.5h77.083l256.148,145.7H224.445Z" transform="translate(-27.549 -215.235)" fill="#395488"/>
        <g id="Mask_Group_2" data-name="Mask Group 2" transform="translate(0 44.866)" clip-path="url(#clip-path-5)">
          <path id="Path_427" data-name="Path 427" d="M795.951,75.245,712.314,99.051,892.66,178.657,448.815,198.444l-303.09-25.817L404.263,45.169,679.149,9.723l57.31,22.021L801.166,65.86Z" transform="translate(-27.64 -32.894)" fill="url(#linear-gradient-2)"/>
        </g>
      </g>
    </g>
  </g>
</svg>
