<?xml version="1.0" encoding="utf-8"?>
<svg xmlns="http://www.w3.org/2000/svg" xmlns:xlink="http://www.w3.org/1999/xlink" width="866" height="472" viewBox="0 0 866 472">
  <defs>
    <clipPath id="clip-path">
      <rect id="Rectangle_2846" data-name="Rectangle 2846" width="866" height="472" transform="translate(0 4601)" fill="#fff" stroke="#707070" stroke-width="1"/>
    </clipPath>
  </defs>
  <g id="Mask_Group_17" data-name="Mask Group 17" transform="translate(0 -4601)" opacity="0.215" clip-path="url(#clip-path)">
    <g id="Group_1247" data-name="Group 1247" transform="translate(488.557 2436.478)" opacity="0.8">
      <path id="Path_1331" data-name="Path 1331" d="M1695.4,3753.656h0a20.862,20.862,0,0,1-1.754-29.365l24.632-27.761a20.862,20.862,0,0,1,29.364-1.754h0a20.862,20.862,0,0,1,1.754,29.365l-24.632,27.761A20.862,20.862,0,0,1,1695.4,3753.656Z" transform="translate(-1919.09 -1207.677)" fill="#afd0ff"/>
      <path id="Path_1332" data-name="Path 1332" d="M2588.861,3219.51l-89.385,5.528a3.237,3.237,0,0,1-3.421-3.022l-4.723-76.37a3.237,3.237,0,0,1,3.022-3.421l89.386-5.528a3.237,3.237,0,0,1,3.421,3.022l4.723,76.37A3.237,3.237,0,0,1,2588.861,3219.51Z" transform="translate(-2557.837 -767.842)" fill="#226bd5"/>
      <path id="Path_1333" data-name="Path 1333" d="M2454.995,3179.944l-42.2-112.316-25.18-5.566-69.647,76.516-98.295,27.1-30.194,56.459,39.565,59.29,42.116,15.538,103.566-21.669c17-7.643,39.789-28.165,48.047-35.421a67.6,67.6,0,0,0,22.557-41.626c1.08-8,.186-12.169.186-12.169Z" transform="translate(-2317.703 -708.471)" fill="#afd0ff"/>
      <path id="Path_1334" data-name="Path 1334" d="M1593.213,2977.208l23.526-3.072s.495-.509,1.412-1.386a95.32,95.32,0,0,1,62.289-26.327c17.533-.668,41.383.257,55.119,8.509a40.024,40.024,0,0,1-3.917,26.815l13.815,21.775,178.483,111.755a27.668,27.668,0,0,1,11.337,13.97c2.168,6,2.687,12-3.01,20.372,0,0-3.344,8.094-17.6,8.742a25.106,25.106,0,0,1-14.423-3.836l-151.658-92.44,141.441,89.208c6.652,4.2,11.318,12.958,11.154,20.821-.178,8.495-.178,8.495-6.815,17.582,0,0-12.246,13.614-29.742,4.594l-134.053-83.428,119.4,77.272a21.825,21.825,0,0,1,9.754,22.055,20.383,20.383,0,0,1-3.982,9.024s-7.569,17.717-32.336,6.319l-126.219-77.771,97.031,61.358a19.974,19.974,0,0,1,9.141,16.5c.079,6.776-.663,12.335-7.335,18.378,0,0-13.994,17.754-35.874.961l-151.3-103.206-26.177-16.064s-10.181-5.659-11.954-28.506c0,0-1.446-9.61.294-12.685l-15.353.141Z" transform="translate(-1813.466 -616.335)" fill="#ffc3e4"/>
      <path id="Path_1335" data-name="Path 1335" d="M2367.482,2881.228c-15.623-7.25-38.207-14.767-69.27-18.729a1.1,1.1,0,0,0-.2-.007l-.042,0a89.365,89.365,0,0,0-50.737,19.782c-7.144,5.792-15.43,12.5-23.678,19.151,0,0-29.568,19.108-31.926,30.166a17.67,17.67,0,0,0-1.857,6.259c-3.16,21.521,20.372,36.761,38.89,25.349a159.175,159.175,0,0,0,23.611-18.389l30.274-20.478s-21.215,17.069,47.232,62.9c0,0,43.053,9.388,79.3,46.188l17.173,4.293,11.767-24.273-33.663-92.108A71.126,71.126,0,0,0,2367.482,2881.228Z" transform="translate(-2317.703 -549.701)" fill="#afd0ff"/>
      <path id="Path_1336" data-name="Path 1336" d="M1902.388,3896.313h0a20.862,20.862,0,0,1-1.754-29.364l13.541-15.262a20.862,20.862,0,0,1,29.364-1.754h0a20.862,20.862,0,0,1,1.754,29.365l-13.542,15.262A20.862,20.862,0,0,1,1902.388,3896.313Z" transform="translate(-2083.761 -1331.112)" fill="#afd0ff"/>
      <path id="Path_1337" data-name="Path 1337" d="M2051.411,4031.329h0a21.187,21.187,0,0,1-1.781-29.823l13.752-15.5a21.188,21.188,0,0,1,29.823-1.781h0a21.187,21.187,0,0,1,1.781,29.823l-13.753,15.5A21.187,21.187,0,0,1,2051.411,4031.329Z" transform="translate(-2202.23 -1437.884)" fill="#afd0ff"/>
      <path id="Path_1338" data-name="Path 1338" d="M2206.566,4166.778h0a21.324,21.324,0,0,1-1.793-30.015l13.842-15.6a21.324,21.324,0,0,1,30.015-1.792h0a21.323,21.323,0,0,1,1.793,30.015l-13.841,15.6A21.324,21.324,0,0,1,2206.566,4166.778Z" transform="translate(-2325.628 -1545.371)" fill="#afd0ff"/>
      <path id="Path_1344" data-name="Path 1344" d="M4048.189,2594.86v131.929l-258.113,113.3-48.556-110.62Z" transform="translate(-3668.558 -363.798)" fill="#afd0ff"/>
      <rect id="Rectangle_2845" data-name="Rectangle 2845" width="133.505" height="544.447" transform="translate(-723.85 2296.159) rotate(-69)" fill="#ffc3e4"/>
    </g>
  </g>
</svg>
