<?xml version="1.0" encoding="utf-8"?>
<svg xmlns="http://www.w3.org/2000/svg" width="114.245" height="114.244" viewBox="0 0 114.245 114.244">
  <g id="Group_1322" data-name="Group 1322" transform="translate(-741 -4546.148)">
    <g id="inbound-marketing" transform="translate(-260 186.149)" opacity="0.3">
      <g id="Group_757" data-name="Group 757" transform="translate(1001 4360)">
        <g id="Group_744" data-name="Group 744" transform="translate(0 0)">
          <path id="Path_1420" data-name="Path 1420" d="M57.122,0A57.122,57.122,0,1,1,0,57.122,57.122,57.122,0,0,1,57.122,0Z" fill="#253f95"/>
          <g id="target_4_" data-name="target (4)" transform="translate(3.471 5.399)">
            <path id="Path_919" data-name="Path 919" d="M250.155,10.682c.914,0,1.654-.341,1.654-.763V.763c0-.422-.74-.763-1.654-.763S248.5.341,248.5.763V9.919C248.5,10.341,249.24,10.682,250.155,10.682Zm0,0" transform="translate(-195.854 0)" fill="#2367cb"/>
            <path id="Path_920" data-name="Path 920" d="M250.155,417.871c.914,0,1.654-.347,1.654-.776v-9.318c0-.429-.74-.777-1.654-.777s-1.655.347-1.655.777v9.318C248.5,417.524,249.24,417.871,250.155,417.871Zm0,0" transform="translate(-195.854 -317.312)" fill="#2367cb"/>
            <path id="Path_921" data-name="Path 921" d="M408.039,251.809H420.5c.574,0,1.038-.74,1.038-1.654s-.465-1.655-1.038-1.655H408.039c-.574,0-1.038.74-1.038,1.655S407.465,251.809,408.039,251.809Zm0,0" transform="translate(-407 -199.922)" fill="#2367cb"/>
            <path id="Path_922" data-name="Path 922" d="M1.047,251.809H13.611c.579,0,1.047-.74,1.047-1.654s-.468-1.655-1.047-1.655H1.047c-.579,0-1.047.74-1.047,1.655S.468,251.809,1.047,251.809Zm0,0" transform="translate(91.863 -199.922)" fill="#2367cb"/>
            <g id="Ellipse_43" data-name="Ellipse 43" transform="translate(7.227 5.299)" fill="none" stroke="#4876dd" stroke-width="3" opacity="0.414">
              <circle cx="46.003" cy="46.003" r="46.003" stroke="none"/>
              <circle cx="46.003" cy="46.003" r="44.503" fill="none"/>
            </g>
          </g>
          <g id="Group_1323" data-name="Group 1323" transform="translate(27.816 29.956)">
            <ellipse id="Ellipse_41" data-name="Ellipse 41" cx="7.425" cy="7.425" rx="7.425" ry="7.425" transform="translate(3.516 6.951)" fill="#1a4ab7"/>
            <path id="Path_925" data-name="Path 925" d="M124.385,261.4H103.262a.759.759,0,0,1-.759-.759V250.458a10.941,10.941,0,0,1,10.941-10.941h0a10.941,10.941,0,0,1,10.941,10.941Z" transform="translate(-102.503 -217.717)" fill="#1a4ab7"/>
            <path id="Path_926" data-name="Path 926" d="M147.671,239.517h0a10.944,10.944,0,0,0-2.931.4,10.943,10.943,0,0,1,8.01,10.541V261.4h5.861V250.458A10.941,10.941,0,0,0,147.671,239.517Z" transform="translate(-136.73 -217.717)" fill="#1a4ab7"/>
            <ellipse id="Ellipse_42" data-name="Ellipse 42" cx="7.425" cy="7.425" rx="7.425" ry="7.425" transform="translate(39.856 6.951)" fill="#1a4ab7"/>
            <path id="Path_927" data-name="Path 927" d="M315.24,261.4H294.117V250.458a10.941,10.941,0,0,1,10.941-10.941h0A10.941,10.941,0,0,1,316,250.458V260.64A.758.758,0,0,1,315.24,261.4Z" transform="translate(-257.777 -217.717)" fill="#1a4ab7"/>
            <path id="Path_928" data-name="Path 928" d="M339.285,239.517h0a10.944,10.944,0,0,0-2.931.4,10.943,10.943,0,0,1,8.01,10.541V261.4h5.1a.759.759,0,0,0,.759-.759V250.458A10.941,10.941,0,0,0,339.285,239.517Z" transform="translate(-292.004 -217.717)" fill="#1a4ab7"/>
            <path id="Path_932" data-name="Path 932" d="M9.28,0A9.28,9.28,0,1,1,0,9.28,9.28,9.28,0,0,1,9.28,0Z" transform="translate(19.831)" fill="#4876dd"/>
            <path id="Path_929" data-name="Path 929" d="M204.087,253.69H174.345a.759.759,0,0,1-.759-.759V238.06a15.63,15.63,0,0,1,15.63-15.63h0a15.63,15.63,0,0,1,15.63,15.63v14.871A.758.758,0,0,1,204.087,253.69Z" transform="translate(-160.105 -203.87)" fill="#4876dd"/>
            <path id="Path_930" data-name="Path 930" d="M243.478,222.43h0a15.692,15.692,0,0,0-2.931.278,15.632,15.632,0,0,1,12.7,15.351v15.63h5.1a.759.759,0,0,0,.759-.759V238.06A15.63,15.63,0,0,0,243.478,222.43Z" transform="translate(-214.367 -203.87)" fill="#4876dd"/>
            <path id="Path_931" data-name="Path 931" d="M217.564,283.073a.914.914,0,0,1-.645-.266l-4.463-4.435a.915.915,0,1,1,1.29-1.3l3.689,3.666,10-11.8a.915.915,0,1,1,1.5,1.043l-10.626,12.7a.915.915,0,0,1-.669.389C217.62,283.072,217.592,283.073,217.564,283.073Z" transform="translate(-191.385 -240.477)" fill="#4876dd"/>
          </g>
        </g>
      </g>
    </g>
  </g>
</svg>
