<?xml version="1.0" encoding="utf-8"?>
<svg xmlns="http://www.w3.org/2000/svg" width="114.245" height="114.275" viewBox="0 0 114.245 114.275">
  <g id="lead-generation" transform="translate(-442.608 -4320)" opacity="0.3">
    <path id="Path_1419" data-name="Path 1419" d="M57.122,0A57.122,57.122,0,1,1,0,57.122,57.122,57.122,0,0,1,57.122,0Z" transform="translate(442.608 4320)" fill="#253f95"/>
    <path id="Path_896" data-name="Path 896" d="M232,263.773V260.6A28.629,28.629,0,0,0,260.6,232h3.177A31.809,31.809,0,0,1,232,263.773Zm0,0" transform="translate(267.404 4147.585)" fill="#1a4ab7"/>
    <path id="Path_897" data-name="Path 897" d="M103.827,87.294l-2.6-1.833A31.842,31.842,0,0,1,127.2,72v3.177A28.66,28.66,0,0,0,103.827,87.294Zm0,0" transform="translate(372.206 4275.813)" fill="#1a4ab7"/>
    <path id="Path_882" data-name="Path 882" d="M113.532,331.12,111.943,320a12.709,12.709,0,0,1,12.709,12.709v24.506L104,350.894V329.532Zm0,0" transform="translate(369.986 4077.061)" fill="#4876dd"/>
    <path id="Path_883" data-name="Path 883" d="M111.943,320l1.589,11.12L104,329.532Zm0,0" transform="translate(369.986 4077.061)" fill="#1a4ab7"/>
    <path id="Path_884" data-name="Path 884" d="M57.589,320l7.943,9.532L56,331.12Zm0,0" transform="translate(408.454 4077.061)" fill="#1a4ab7"/>
    <path id="Path_885" data-name="Path 885" d="M11.12,331.12l9.532-1.589V351.15L1.446,335.207,0,332.709A12.709,12.709,0,0,1,12.709,320Zm0,0" transform="translate(453.334 4077.061)" fill="#4876dd"/>
    <path id="Path_886" data-name="Path 886" d="M79.886,320l-7.943,9.532L64,320Zm0,0" transform="translate(402.043 4077.061)" fill="#1a4ab7"/>
    <path id="Path_887" data-name="Path 887" d="M75.06,204.766v6.355a9.532,9.532,0,0,1-19.064,0v-6.355a1.5,1.5,0,0,1,.016-.27c3.194-.572,10.263-2.066,12.694-4.5a11.816,11.816,0,0,0,6.339,4.575A.831.831,0,0,1,75.06,204.766Zm0,0" transform="translate(408.458 4173.231)" fill="#4876dd"/>
    <path id="Path_888" data-name="Path 888" d="M70.241,179.12a6.61,6.61,0,0,1-1.6-.191,11.816,11.816,0,0,1-6.339-4.575c-2.43,2.43-9.5,3.924-12.694,4.5-.984.175-1.6.27-1.6.27a11.12,11.12,0,1,1,22.241,0Zm0,0" transform="translate(414.866 4198.876)" fill="#4876dd"/>
    <path id="Path_889" data-name="Path 889" d="M297.3,20.652A20.652,20.652,0,1,1,276.652,0,20.652,20.652,0,0,1,297.3,20.652Zm0,0" transform="translate(248.17 4333.515)" fill="#1a4ab7"/>
    <path id="Path_890" data-name="Path 890" d="M316.6,46.3A14.3,14.3,0,1,1,302.3,32,14.3,14.3,0,0,1,316.6,46.3Zm0,0" transform="translate(222.525 4307.87)" fill="#1a4ab7"/>
    <path id="Path_893" data-name="Path 893" d="M340.766,60.766a1.589,1.589,0,0,1,1.589,1.589h3.177a4.767,4.767,0,0,0-3.177-4.473V56h-3.177v1.881a4.755,4.755,0,0,0,1.589,9.239,1.589,1.589,0,1,1-1.589,1.589H336a4.767,4.767,0,0,0,3.177,4.473v1.881h3.177V73.183a4.755,4.755,0,0,0-1.589-9.239,1.589,1.589,0,1,1,0-3.177Zm0,0" transform="translate(184.057 4288.636)" fill="#4876dd"/>
    <path id="Path_894" data-name="Path 894" d="M400,96h3.177v3.177H400Zm0,0" transform="translate(132.766 4256.579)" fill="#1a4ab7"/>
    <path id="Path_895" data-name="Path 895" d="M304,96h3.177v3.177H304Zm0,0" transform="translate(209.702 4256.579)" fill="#1a4ab7"/>
  </g>
</svg>
