<?xml version="1.0" encoding="utf-8"?>
<svg xmlns="http://www.w3.org/2000/svg" xmlns:xlink="http://www.w3.org/1999/xlink" width="113.291" height="113.292" viewBox="0 0 113.291 113.292">
  <defs>
    <radialGradient id="radial-gradient" cx="0.5" cy="0.5" r="0.5" gradientUnits="objectBoundingBox">
      <stop offset="0" stop-color="#a3f4ff" stop-opacity="0"/>
      <stop offset="0.501" stop-color="#a3f4ff" stop-opacity="0"/>
      <stop offset="1" stop-color="#a3f4ff" stop-opacity="0.396"/>
    </radialGradient>
  </defs>
  <g id="Group_518" data-name="Group 518" transform="translate(-120 -1626)">
    <g id="Group_517" data-name="Group 517" transform="translate(-5.424 542.495)">
      <g id="Group_503" data-name="Group 503" transform="translate(125.424 1083.505)">
        <circle id="Ellipse_16" data-name="Ellipse 16" cx="24.658" cy="24.658" r="24.658" transform="translate(31.988 31.988)" fill="url(#radial-gradient)"/>
        <circle id="Ellipse_15" data-name="Ellipse 15" cx="5.665" cy="5.665" r="5.665" transform="translate(50.648 50.648)" fill="#a3f4ff"/>
        <circle id="Ellipse_17" data-name="Ellipse 17" cx="39.985" cy="39.985" r="39.985" transform="translate(16.661 16.661)" opacity="0.478" fill="url(#radial-gradient)"/>
        <circle id="Ellipse_18" data-name="Ellipse 18" cx="56.646" cy="56.646" r="56.646" transform="translate(0 0)" opacity="0.228" fill="url(#radial-gradient)"/>
      </g>
      <path id="Path_591" data-name="Path 591" d="M169.407,1152.271l-7.245-12.854-.784-1.96,9.474-16.622h7.509l6.762-9.31h2.187l.653,1.949-2.839,6.872,5.607.488,8.6,16.622-9.612,16.855-11.358-.419-6.343,9.457-3.023-.97.411-2.139,3.235-6.348h-1.789Z" transform="translate(1.337 1.818)" fill="#fff"/>
      <path id="_1477301" data-name="1477301" d="M40,25.705l-2.47-4.277a.8.8,0,1,0-1.378.8l2.47,4.276a.623.623,0,0,1,0,.624L29.783,42.439a.626.626,0,0,1-.54.311H20.519l6.9-9.02a.8.8,0,1,0-1.263-.966l-14.54,19a.951.951,0,0,1-1.6-.661c0-.3-.623,1.108,8.6-18.226a2.221,2.221,0,0,0-2-3.175H8.442a.632.632,0,0,1-.63-.631c0-.263-1.129,1.584,17.186-27.04a.939.939,0,0,1,1.7.733l-6.12,17.273A2.219,2.219,0,0,0,22.67,23h9.69a.627.627,0,0,1,.5,1.01l-4.768,6.229a.8.8,0,1,0,1.263.968l4.768-6.231A2.221,2.221,0,0,0,32.36,21.4H22.67a.628.628,0,0,1-.629-.626c0-.158-.2.462,3.471-9.9h3.73a.626.626,0,0,1,.54.311l4.78,8.28a.8.8,0,1,0,1.378-.8l-4.781-8.28a2.22,2.22,0,0,0-1.918-1.106H26.076c2.3-6.5,2.249-6.193,2.249-6.785a2.536,2.536,0,0,0-4.666-1.33L18.467,9.285H11.56a2.221,2.221,0,0,0-1.918,1.106C.033,27.035.5,25.98.5,26.813c0,.813-.19.264,5.528,10.168a.8.8,0,0,0,1.378-.8c-5.645-9.777-5.315-9.131-5.315-9.373s-.517.728,8.925-15.626a.626.626,0,0,1,.54-.311h5.889l-10.876,17a2.22,2.22,0,0,0,1.869,3.415h8.179a.628.628,0,0,1,.567.9L12.149,42.749c-.537,0-.907.071-1.129-.311L9,38.942a.8.8,0,1,0-1.378.8l2.019,3.5a2.223,2.223,0,0,0,1.751,1.1L8.734,49.9A2.54,2.54,0,0,0,11,53.626a2.5,2.5,0,0,0,1.855-.854L19.3,44.341h9.941a2.22,2.22,0,0,0,1.918-1.107L40,27.919A2.212,2.212,0,0,0,40,25.705Zm0,0" transform="translate(161.324 1112.391)" fill="#5580df"/>
    </g>
  </g>
</svg>
