<?xml version="1.0" encoding="utf-8"?>
<svg xmlns="http://www.w3.org/2000/svg" xmlns:xlink="http://www.w3.org/1999/xlink" width="1440" height="576" viewBox="0 0 1440 576">
  <defs>
    <linearGradient id="linear-gradient" x1="1" y1="0.041" x2="0.203" y2="0.834" gradientUnits="objectBoundingBox">
      <stop offset="0" stop-color="#518acf"/>
      <stop offset="1" stop-color="#6454f0"/>
    </linearGradient>
    <linearGradient id="linear-gradient-2" x1="0.924" y1="0.76" x2="0.254" y2="0.237" xlink:href="#linear-gradient"/>
    <clipPath id="clip-path">
      <rect id="Rectangle_2857" data-name="Rectangle 2857" width="1440" height="576" fill="#fff" stroke="#707070" stroke-width="1"/>
    </clipPath>
    <clipPath id="clip-path-2">
      <rect id="Rectangle_1275" data-name="Rectangle 1275" width="1440" height="851.888" fill="url(#linear-gradient)"/>
    </clipPath>
    <clipPath id="clip-path-3">
      <rect id="Rectangle_1274" data-name="Rectangle 1274" width="2553.558" height="1603.595" rx="3.508" fill="none"/>
    </clipPath>
    <clipPath id="clip-path-4">
      <path id="Path_435" data-name="Path 435" d="M3237.469,2323.8C3302.63,2313.028,4790,1747.37,4790,1747.37l1521.37,767.679Z" transform="translate(-3237.469 -1747.37)" fill="none"/>
    </clipPath>
    <radialGradient id="radial-gradient" cx="0.5" cy="0.5" r="0.5" gradientUnits="objectBoundingBox">
      <stop offset="0" stop-color="#a3f4ff" stop-opacity="0"/>
      <stop offset="0.501" stop-color="#a3f4ff" stop-opacity="0"/>
      <stop offset="1" stop-color="#a3f4ff" stop-opacity="0.396"/>
    </radialGradient>
    <linearGradient id="linear-gradient-3" x1="0.5" x2="0.5" y2="1" gradientUnits="objectBoundingBox">
      <stop offset="0" stop-color="#99aff7"/>
      <stop offset="1" stop-color="#7c98f5"/>
    </linearGradient>
    <linearGradient id="linear-gradient-4" x1="0.5" x2="0.5" y2="1" gradientUnits="objectBoundingBox">
      <stop offset="0" stop-color="#5f56d8"/>
      <stop offset="1" stop-color="#7c98f5"/>
    </linearGradient>
    <linearGradient id="linear-gradient-5" x1="0.5" x2="0.5" y2="1" gradientUnits="objectBoundingBox">
      <stop offset="0" stop-color="#1958c0"/>
      <stop offset="1" stop-color="#0d2c60"/>
    </linearGradient>
    <clipPath id="clip-path-5">
      <path id="Path_428" data-name="Path 428" d="M841.734,151.257l72.4,21.185,6.215,6.595h93.858L1326.1,262.553H224.445Z" transform="translate(-224.445 -151.257)" fill="url(#linear-gradient-2)"/>
    </clipPath>
  </defs>
  <g id="Mask_Group_25" data-name="Mask Group 25" clip-path="url(#clip-path)">
    <g id="Group_1306" data-name="Group 1306">
      <g id="Mask_Group_3" data-name="Mask Group 3" transform="translate(0 -276)" opacity="0.293" clip-path="url(#clip-path-2)">
        <g id="Group_482" data-name="Group 482" transform="translate(-1368 -160.204)">
          <g id="Group_485" data-name="Group 485">
            <g id="Group_484" data-name="Group 484" clip-path="url(#clip-path-3)">
              <g id="Group_483" data-name="Group 483" transform="translate(-65.161 394.164)">
                <g id="Group_482-2" data-name="Group 482" clip-path="url(#clip-path-4)">
                  <path id="Path_434" data-name="Path 434" d="M3237.469,2323.8C3302.63,2313.028,4790,1747.37,4790,1747.37l1521.37,767.679Z" transform="translate(-3237.469 -1747.37)" fill="#502f9e"/>
                </g>
              </g>
            </g>
          </g>
          <path id="Path_436" data-name="Path 436" d="M5850.871,1747.37l10.388,106.847,143.813,134.815,33.727,179.44,1069.02,278.34,63.745-33.895Z" transform="translate(-4363.498 -1353.206)" fill="#fff" opacity="0.143"/>
        </g>
      </g>
      <g id="Group_985" data-name="Group 985" transform="translate(-50 -46)">
        <g id="Group_984" data-name="Group 984" transform="translate(884.429 183.475)">
          <circle id="Ellipse_16" data-name="Ellipse 16" cx="103.597" cy="103.597" r="103.597" transform="translate(134.396 134.396)" fill="url(#radial-gradient)"/>
          <circle id="Ellipse_15" data-name="Ellipse 15" cx="23.799" cy="23.799" r="23.799" transform="translate(212.794 212.794)" fill="#a3f4ff"/>
          <circle id="Ellipse_17" data-name="Ellipse 17" cx="167.995" cy="167.995" r="167.995" transform="translate(69.998 69.998)" opacity="0.478" fill="url(#radial-gradient)"/>
          <circle id="Ellipse_18" data-name="Ellipse 18" cx="237.993" cy="237.993" r="237.993" transform="translate(0 0)" opacity="0.228" fill="url(#radial-gradient)"/>
        </g>
        <g id="Group_1283" data-name="Group 1283" transform="translate(-78 -259)">
          <g id="seo_1_" data-name="seo (1)" transform="translate(1053.581 480.526) rotate(-14)">
            <path id="Path_866" data-name="Path 866" d="M0,0H38.523V42.975H0ZM0,0" transform="translate(0 217.956) rotate(-7)" fill="url(#linear-gradient-3)"/>
            <path id="Path_867" data-name="Path 867" d="M0,0H38.523V28.709c0,7.879-6.871,14.266-15.346,14.266H0ZM0,0" transform="translate(79.5 263.615) rotate(-7)" fill="#345a84"/>
            <path id="Path_868" data-name="Path 868" d="M80.137,40.069A40.069,40.069,0,1,1,40.069,0,40.07,40.07,0,0,1,80.137,40.069Zm0,0" transform="translate(117.973 38.113)" fill="none"/>
            <path id="Path_869" data-name="Path 869" d="M0,58.513,104.953,0V169.834L0,111.318Zm0,0" transform="translate(113.412 128.95) rotate(-7)" fill="url(#linear-gradient-4)"/>
            <path id="Path_870" data-name="Path 870" d="M0,0H51.844V74.1H0ZM0,0" transform="translate(49.35 265.873) rotate(-7)" fill="url(#linear-gradient-5)"/>
            <path id="Path_871" data-name="Path 871" d="M37.876,0,0,37.877V71.019H33.141L71.02,33.142ZM21.306,56.814a7.1,7.1,0,1,1,7.1-7.1A7.1,7.1,0,0,1,21.306,56.814Zm0,0" transform="translate(326.106 70.025)" fill="#e6e7e9"/>
            <path id="Path_872" data-name="Path 872" d="M20.747,0H94.838c11.458,0,20.747,9.8,20.747,21.884V84.8c0,12.086-9.29,21.884-20.747,21.884H20.747C9.286,106.681,0,96.883,0,84.8V21.884C0,9.8,9.286,0,20.747,0Zm0,0" transform="translate(23.269 174.57) rotate(-7)" fill="url(#linear-gradient-5)"/>
            <g id="Group_754" data-name="Group 754" transform="translate(268.687 186.774)">
              <path id="Path_874" data-name="Path 874" d="M0,47.22,47.22,0l66.109,66.109-47.22,47.22Zm0,0" transform="translate(0 0.009)" fill="#f5f6f7"/>
              <path id="Path_875" data-name="Path 875" d="M0,0,4.72,61.392l61.386,4.723ZM0,0" transform="translate(47.227)" fill="#e5e8eb"/>
            </g>
            <path id="Path_880" data-name="Path 880" d="M88.832,6.695,82.137,0,53.214,28.915a33.27,33.27,0,1,0,6.705,6.7ZM33.4,79.1A23.674,23.674,0,1,1,57.077,55.429,23.673,23.673,0,0,1,33.4,79.1Zm0,0" transform="translate(225.91 27.372)" fill="#e6e7e9"/>
            <path id="Path_881" data-name="Path 881" d="M47.377,0H28.426L0,28.426,52.114,80.54l37.9-37.9Zm-22.3,34.552L44.027,15.6l6.7,6.7L31.777,41.251Zm20.91,20.912-6.7-6.7L58.24,29.814l6.7,6.7Zm0,0" transform="translate(136.947 276.714)" fill="#e6e7e9"/>
          </g>
        </g>
      </g>
      <g id="Group_980" data-name="Group 980" transform="translate(575.895 418.898)">
        <path id="Path_426" data-name="Path 426" d="M757.364,255.736l33.5-40.5,5.1,11.5h77.083l256.148,145.7H224.445Z" transform="translate(-27.549 -215.235)" fill="#395488"/>
        <g id="Mask_Group_2" data-name="Mask Group 2" transform="translate(0 44.866)" clip-path="url(#clip-path-5)">
          <path id="Path_427" data-name="Path 427" d="M795.951,75.245,712.314,99.051,892.66,178.657,448.815,198.444l-303.09-25.817L404.263,45.169,679.149,9.723l57.31,22.021L801.166,65.86Z" transform="translate(-27.64 -32.894)" fill="url(#linear-gradient-2)"/>
        </g>
      </g>
    </g>
  </g>
</svg>
