<?xml version="1.0" encoding="utf-8"?>
<svg xmlns="http://www.w3.org/2000/svg" width="114.411" height="114.244" viewBox="0 0 114.411 114.244">
  <g id="marketing_automation" data-name="marketing automation" transform="translate(-297.608 -4359.607)" opacity="0.3">
    <circle id="Ellipse_19" data-name="Ellipse 19" cx="57.122" cy="57.122" r="57.122" transform="translate(297.608 4359.607)" fill="#253f95"/>
    <path id="Path_1434" data-name="Path 1434" d="M0,0H4.132V12.434H0ZM0,0" transform="translate(305.569 4440.147) rotate(-21)" fill="#4875dc"/>
    <path id="Path_1435" data-name="Path 1435" d="M0,0H11.146V8.306a4.292,4.292,0,0,1-4.44,4.128H0ZM0,0" transform="translate(324.536 4449.915) rotate(-21)" fill="#345a84"/>
    <path id="Path_1436" data-name="Path 1436" d="M23.187,11.593A11.593,11.593,0,1,1,11.593,0,11.594,11.594,0,0,1,23.187,11.593Zm0,0" transform="translate(319.552 4383.914) rotate(-14)" fill="#2367cb"/>
    <path id="Path_1437" data-name="Path 1437" d="M0,16.93,30.367,0V49.139L0,32.208Zm0,0" transform="translate(324.63 4409.735) rotate(-21)" fill="#4876dd"/>
    <path id="Path_1438" data-name="Path 1438" d="M0,0H15V21.441L5.761,17.894,0,9.761ZM0,0" transform="translate(316.229 4452.659) rotate(-21)" fill="#1a4ab7"/>
    <path id="Path_1439" data-name="Path 1439" d="M15.457,0,0,15.457V28.982H13.525L28.983,13.525ZM8.695,23.186a2.9,2.9,0,1,1,2.9-2.9A2.9,2.9,0,0,1,8.695,23.186Zm0,0" transform="translate(360.632 4373.611) rotate(-14)" fill="#2367cb"/>
    <path id="Path_1440" data-name="Path 1440" d="M6,0H27.44a6.174,6.174,0,0,1,6,6.332v18.2a6.174,6.174,0,0,1-6,6.332H6a6.174,6.174,0,0,1-6-6.332V6.332A6.174,6.174,0,0,1,6,0ZM6,0" transform="translate(302.516 4428.852) rotate(-21)" fill="#1a4ab7"/>
    <path id="Path_1441" data-name="Path 1441" d="M0,13.663,13.662,0,32.79,19.128,19.128,32.79Zm0,0" transform="translate(372.27 4415.102) rotate(-14)" fill="#2367cb"/>
    <path id="Path_1442" data-name="Path 1442" d="M0,0,1.366,17.763l17.761,1.366ZM0,0" transform="translate(385.528 4411.794) rotate(-14)" fill="#4876dd"/>
    <path id="Path_1443" data-name="Path 1443" d="M36.252,2.732,33.52,0l-11.8,11.8a13.577,13.577,0,1,0,2.736,2.736ZM13.632,32.281a9.661,9.661,0,1,1,9.661-9.661A9.661,9.661,0,0,1,13.632,32.281Zm0,0" transform="translate(314.906 4373.707) rotate(-14)" fill="#2367cb"/>
    <path id="Path_1444" data-name="Path 1444" d="M13.708,0H8.225L0,8.225,15.078,23.3,26.045,12.337ZM7.256,10l5.483-5.483,1.938,1.938L9.194,11.935Zm6.05,6.051-1.938-1.938,5.483-5.483,1.938,1.938Zm0,0" transform="translate(341.58 4449.571) rotate(-14)" fill="#2367cb"/>
  </g>
</svg>
