<?xml version="1.0" encoding="utf-8"?>
<svg xmlns="http://www.w3.org/2000/svg" xmlns:xlink="http://www.w3.org/1999/xlink" width="1440" height="988" viewBox="0 0 1440 988">
  <defs>
    <clipPath id="clip-path">
      <rect id="Rectangle_2850" data-name="Rectangle 2850" width="1440" height="988" transform="translate(0 1716)" fill="#fff" stroke="#707070" stroke-width="1"/>
    </clipPath>
    <linearGradient id="linear-gradient" x1="0.5" x2="0.5" y2="1" gradientUnits="objectBoundingBox">
      <stop offset="0" stop-color="#d4d4fa"/>
      <stop offset="1" stop-color="#f2f7ff" stop-opacity="0"/>
    </linearGradient>
    <radialGradient id="radial-gradient" cx="0.5" cy="0.5" r="0.5" gradientUnits="objectBoundingBox">
      <stop offset="0" stop-color="#a3f4ff" stop-opacity="0"/>
      <stop offset="0.501" stop-color="#a3f4ff" stop-opacity="0"/>
      <stop offset="1" stop-color="#a3f4ff" stop-opacity="0.396"/>
    </radialGradient>
  </defs>
  <g id="Mask_Group_18" data-name="Mask Group 18" transform="translate(0 -1716)" clip-path="url(#clip-path)">
    <g id="Group_1294" data-name="Group 1294">
      <g id="Group_1291" data-name="Group 1291" transform="translate(-70 -3157.516)">
        <g id="Group_739" data-name="Group 739">
          <g id="Group_616" data-name="Group 616" transform="translate(-81 5598.149)" opacity="0.311">
            <path id="Path_426" data-name="Path 426" d="M468.1,252.049l-55.891-77.5-18.878,35.5-30.815,20.767L224.445,428.132H712.118Z" transform="translate(-224.445 -165.182)" fill="url(#linear-gradient)"/>
          </g>
          <g id="Group_738" data-name="Group 738" transform="translate(104 5509.149)" opacity="0.311">
            <path id="Path_426-2" data-name="Path 426" d="M468.1,252.049l-55.891-77.5-18.878,35.5-30.815,20.767L224.445,428.132H712.118Z" transform="translate(-224.445 -165.182)" fill="url(#linear-gradient)"/>
          </g>
          <g id="Group_743" data-name="Group 743" transform="translate(347.836 5598.149)" opacity="0.311">
            <path id="Path_426-3" data-name="Path 426" d="M346.393,218.194l27.931-43.644,9.434,19.992,15.4,11.695,69,111.12H224.445Z" transform="translate(-224.445 -165.182)" fill="url(#linear-gradient)"/>
          </g>
        </g>
      </g>
      <g id="Group_1292" data-name="Group 1292" transform="translate(-56 -325)">
        <g id="Group_740" data-name="Group 740" transform="translate(1166 -3449)">
          <g id="Group_739-2" data-name="Group 739">
            <g id="Group_616-2" data-name="Group 616" transform="translate(-81 5598.149)" opacity="0.311">
              <path id="Path_426-4" data-name="Path 426" d="M494.27,237.753l-82.065-63.2-22.761,26.134-26.932,30.133L224.445,428.132H712.118Z" transform="translate(-224.445 -165.182)" fill="url(#linear-gradient)"/>
            </g>
            <g id="Group_738-2" data-name="Group 738" transform="translate(208 5554.149)" opacity="0.311">
              <path id="Path_426-5" data-name="Path 426" d="M468.1,252.049l-55.891-77.5-18.878,35.5-30.815,20.767L224.445,428.132H712.118Z" transform="translate(-224.445 -165.182)" fill="url(#linear-gradient)"/>
            </g>
          </g>
        </g>
        <g id="Group_723" data-name="Group 723" transform="translate(1163.059 2023)" opacity="0.512">
          <circle id="Ellipse_16" data-name="Ellipse 16" cx="49.006" cy="49.006" r="49.006" transform="translate(63.575 63.575)" fill="url(#radial-gradient)"/>
          <circle id="Ellipse_15" data-name="Ellipse 15" cx="11.258" cy="11.258" r="11.258" transform="translate(100.661 100.661)" fill="#a3f4ff"/>
          <circle id="Ellipse_17" data-name="Ellipse 17" cx="79.469" cy="79.469" r="79.469" transform="translate(33.112 33.112)" opacity="0.478" fill="url(#radial-gradient)"/>
          <circle id="Ellipse_18" data-name="Ellipse 18" cx="112.581" cy="112.581" r="112.581" transform="translate(0 0)" opacity="0.228" fill="url(#radial-gradient)"/>
        </g>
      </g>
      <g id="Group_1293" data-name="Group 1293" transform="translate(-72.941 2328)" opacity="0.512">
        <circle id="Ellipse_16-2" data-name="Ellipse 16" cx="49.006" cy="49.006" r="49.006" transform="translate(63.575 63.575)" fill="url(#radial-gradient)"/>
        <circle id="Ellipse_15-2" data-name="Ellipse 15" cx="11.258" cy="11.258" r="11.258" transform="translate(100.661 100.661)" fill="#a3f4ff"/>
        <circle id="Ellipse_17-2" data-name="Ellipse 17" cx="79.469" cy="79.469" r="79.469" transform="translate(33.112 33.112)" opacity="0.478" fill="url(#radial-gradient)"/>
        <circle id="Ellipse_18-2" data-name="Ellipse 18" cx="112.581" cy="112.581" r="112.581" transform="translate(0 0)" opacity="0.228" fill="url(#radial-gradient)"/>
      </g>
    </g>
  </g>
</svg>
