<?xml version="1.0" encoding="utf-8"?>
<svg xmlns="http://www.w3.org/2000/svg" width="94.499" height="35.704" viewBox="0 0 94.499 35.704">
  <g id="a-uit" transform="translate(-1693.5 1248.5)">
    <path id="Union_3" data-name="Union 3" d="M-1103.281-5109.46a.8.8,0,0,0-.161-.053,11.193,11.193,0,0,1-5.841-2.445,10.015,10.015,0,0,1-3.337-5.09,12.131,12.131,0,0,0-.38-1.516v-3.56a1.307,1.307,0,0,0,.13-.457,8.81,8.81,0,0,1,3.543-5.727,15.924,15.924,0,0,1,7.17-2.844,46.434,46.434,0,0,1,5.856-.427c.82-.029,1.638-.087,2.457-.126.178-.009.275-.079.284-.266a3.547,3.547,0,0,0-1.568-3.292,6.157,6.157,0,0,0-3.244-.942,16.082,16.082,0,0,0-4.08.261,19.735,19.735,0,0,0-4.741,1.509c-.461.221-.54.2-.766-.257q-1.454-2.924-2.906-5.848c-.2-.405-.192-.462.207-.651a31.665,31.665,0,0,1,4.745-1.832,25.562,25.562,0,0,1,5.323-1.019.979.979,0,0,0,.458-.121h5.75a5.951,5.951,0,0,0,1.5.257,13.34,13.34,0,0,1,6.274,2.605,9.564,9.564,0,0,1,3.043,4.534,15.456,15.456,0,0,1,.748,4.945q0,7.239,0,14.476c0,1.551.028,3.1.142,4.646a10.862,10.862,0,0,0,.3,2.025c.132.487.043.594-.457.594h-2.231c-1.766,0-3.532,0-5.3.009a.954.954,0,0,1-1.028-.642c-.254-.606-.605-1.172-.9-1.761-.143-.284-.28-.318-.537-.1a13.718,13.718,0,0,1-2.135,1.474,12.507,12.507,0,0,1-4.032,1.45l-1.21.2Zm33.22-.6h-.205a.472.472,0,0,1-.451-.719.215.215,0,0,1,.223-.123c.148,0,.3-.005.445-.005h49.414c.478,0,.452,0,.479.469.022.382-.209.363-.457.364-2.042,0-4.083.013-6.126.013Zm25.878-4.694c-.169-.109-.243-.117-.311.084-.044.129-.159.173-.3.188a11.165,11.165,0,0,1-1.265.02c-.278,0-.288-.2-.288-.4q0-1.814,0-3.626c0-1.2.008-2.4-.005-3.593,0-.321.1-.459.43-.447.444.017.89.009,1.334,0,.26,0,.355.081.343.364-.027.671,0,1.346-.018,2.018-.006.313.094.3.337.185a2.527,2.527,0,0,1,3.666,1.392,3.176,3.176,0,0,1-1.114,3.831,2.844,2.844,0,0,1-1.429.421A2.511,2.511,0,0,1-1044.182-5114.759Zm-.072-2.565a1.152,1.152,0,0,0,1.047,1.18,1.181,1.181,0,0,0,1.077-1.2,1.138,1.138,0,0,0-1.108-1.1h0A1.111,1.111,0,0,0-1044.254-5117.324Zm-26.965,1.167a3.325,3.325,0,0,1,.461-3.149,2.68,2.68,0,0,1,3.088-.764c.205.1.416.3.589-.044a.123.123,0,0,1,.093-.036c.546,0,1.094,0,1.64.016.2.006.151.193.152.321.005.421,0,.843,0,1.264v1.265c0,.831-.006,1.663,0,2.494,0,.215-.043.3-.281.3-.158-.006-.314,0-.47.006a4.544,4.544,0,0,1-.621,0c-.243-.023-.474,0-.621-.25-.076-.13-.169-.043-.258.014a2.507,2.507,0,0,1-1.344.393A2.551,2.551,0,0,1-1071.22-5116.157Zm1.907-1.2a1.112,1.112,0,0,0,1.022,1.224,1.139,1.139,0,0,0,1.055-1.169,1.093,1.093,0,0,0-.955-1.175h-.04A1.091,1.091,0,0,0-1069.313-5117.354Zm12.782,2.767a2.529,2.529,0,0,1-1.628-2.185,2.966,2.966,0,0,1,1.077-2.983,2.717,2.717,0,0,1,1.536-.509,3.329,3.329,0,0,1,2.323.613,2.836,2.836,0,0,1,.886,2.654c-.043.21-.2.222-.367.222h-1.5v0c-.5,0-1,0-1.5,0h-.036c-.092,0-.19,0-.229.1s.059.187.129.257a1.028,1.028,0,0,0,1.447-.026.368.368,0,0,1,.507-.081c.372.2.748.387,1.13.564.25.115.25.26.1.451a2.632,2.632,0,0,1-1.137.9,4,4,0,0,1-1.407.267A3.589,3.589,0,0,1-1056.531-5114.587Zm.733-3.907c-.079.061-.194.128-.167.236s.112.092.195.086a.405.405,0,0,1,.068,0c.134.005.27,0,.405,0v-.009c.181,0,.362,0,.542,0,.066,0,.145.009.168-.076s-.032-.126-.076-.178a.733.733,0,0,0-.57-.255A.942.942,0,0,0-1055.8-5118.494Zm24.9,3.917a2.586,2.586,0,0,1-1.535-2.364,2.788,2.788,0,0,1,1.849-3.2,2.542,2.542,0,0,1,2,.112c.337.173.329.021.328-.226-.006-.626.006-1.253-.014-1.88-.009-.28.081-.4.364-.4.478.006.957,0,1.436,0,.2,0,.307.055.3.3-.013,1.253-.005,2.507-.005,3.759h-.013c0,1.22-.006,2.438.006,3.659,0,.254-.075.342-.327.343-.387,0-.773.02-1.161-.012-.182-.015-.306-.063-.336-.261-.035-.225-.129-.209-.3-.1a2.716,2.716,0,0,1-1.525.5A2.611,2.611,0,0,1-1030.9-5114.577Zm.531-2.791a1.161,1.161,0,0,0,1.081,1.224,1.115,1.115,0,0,0,1.017-1.167,1,1,0,0,0-1.056-1.119h0A1,1,0,0,0-1030.367-5117.368Zm-8.932.055a2.914,2.914,0,0,1,3.138-2.972,2.909,2.909,0,0,1,3.06,2.979,2.821,2.821,0,0,1-2.955,2.96c-.059,0-.117,0-.174,0A2.891,2.891,0,0,1-1039.3-5117.312Zm3.135-1.115a1.021,1.021,0,0,0-1.047,1.1,1.089,1.089,0,0,0,1.017,1.154,1.087,1.087,0,0,0,1.006-1.2,1,1,0,0,0-.958-1.059Zm12.4,3.806a2.52,2.52,0,0,1-1.542-2.1,2.9,2.9,0,0,1,1.031-3c1.3-.935,3.93-.854,4.684,1.249a1.827,1.827,0,0,0,.088.185v1.437a1.067,1.067,0,0,1-.572.083,2.284,2.284,0,0,0-.231,0c-.128.006-.254.005-.381,0a3.141,3.141,0,0,0-.737.05,7.465,7.465,0,0,0-1.591-.038c-.221,0-.178.164-.074.286a1.041,1.041,0,0,0,1.334.186,3.95,3.95,0,0,0,.4-.36c.471.229.941.463,1.415.688.235.111.256.253.11.458a2.677,2.677,0,0,1-2.1,1.125c-.153.012-.306.019-.458.019A3.371,3.371,0,0,1-1023.762-5114.622Zm.7-3.772c-.094.143-.061.213.1.219.181.009.362,0,.544,0v-.005c.17,0,.341,0,.51,0s.235-.068.124-.229a.763.763,0,0,0-.633-.288A.768.768,0,0,0-1023.061-5118.394Zm-39.255,3.917c-.236.027-.345-.1-.418-.312-.245-.685-.478-1.376-.744-2.055-.371-.944-.7-1.9-1.039-2.858-.139-.39-.1-.441.3-.446.217,0,.434,0,.651,0,.993,0,1,0,1.316.951.2.616.38,1.241.574,1.859.032.1.012.267.159.263.116,0,.109-.158.137-.25.258-.826.52-1.652.76-2.484a.4.4,0,0,1,.462-.342c.262.007.524,0,.786,0,.194,0,.387,0,.582,0,.342.005.389.063.271.393-.442,1.234-.891,2.464-1.336,3.7-.151.417-.307.833-.448,1.253a.468.468,0,0,1-.513.349A12.964,12.964,0,0,0-1062.316-5114.477Zm11.121-.03c-.238,0-.195-.216-.195-.364-.005-.821,0-1.642,0-2.462,0-.8.006-1.6,0-2.394,0-.3.1-.441.417-.426.341.017.683.008,1.025,0,.2,0,.36.034.405.269.036.188.13.176.26.064a2.1,2.1,0,0,1,1.867-.4.3.3,0,0,1,.276.385c-.08.518-.221,1.022-.269,1.547-.017.186-.132.284-.338.183a1.849,1.849,0,0,0-.324-.106.9.9,0,0,0-1.162.7,2.825,2.825,0,0,0-.066.746c.019.661.016,1.321.023,1.982,0,.167-.037.271-.24.3a3.829,3.829,0,0,1-.448.024C-1050.379-5114.458-1050.786-5114.507-1051.195-5114.507Zm-5.75-8.455a2.279,2.279,0,0,1-.7-2.611,1.9,1.9,0,0,1,.737-.949c.3-.188.229-.3.021-.5a1.954,1.954,0,0,1-.515-1.95,2.124,2.124,0,0,1,1.845-1.535,14.908,14.908,0,0,1,1.591-.045c.381,0,.76,0,1.141-.012.137-.006.247.04.216.186-.04.186.161.448-.16.552-.182.06-.46-.021-.538.125-.087.161.172.313.23.5a2.092,2.092,0,0,1-.443,2.131c-.188.216-.2.326.04.5a2.342,2.342,0,0,1-.121,3.714,2.772,2.772,0,0,1-1.446.465A3.123,3.123,0,0,1-1056.945-5122.962Zm1.811-3.327a1.568,1.568,0,0,0-1.709,1.556,1.578,1.578,0,0,0,1.615,1.54,1.6,1.6,0,0,0,1.752-1.567,1.606,1.606,0,0,0-1.629-1.529Zm-1.45-2.17a1.388,1.388,0,0,0,1.455,1.361,1.3,1.3,0,0,0,1.27-1.329,1.281,1.281,0,0,0-1.346-1.323h-.007A1.392,1.392,0,0,0-1056.583-5128.459Zm32.284,6.032c-.145-.058-.1-.191-.1-.3q.006-3.13.013-6.262c0-.364-.009-.728-.022-1.093-.013-.341.19-.339.4-.337h.12c.262-.015.368.092.365.359-.008,1.208,0,2.418,0,3.626q0,1.747,0,3.491a.6.6,0,0,1-.6.546A.464.464,0,0,1-1024.3-5122.427Zm-12.507-2.181a2.709,2.709,0,0,1-2.582-2.943,2.837,2.837,0,0,1,1.168-2.521,2.822,2.822,0,0,1,2.838-.2,2.383,2.383,0,0,1,1.379,2.17c.066.875.107.866-.479.856-.087,0-.187,0-.3,0-.491.006-.98,0-1.471,0-.638,0-1.277.006-1.915,0-.279,0-.373.083-.284.368a1.922,1.922,0,0,0,1.217,1.376,2,2,0,0,0,2.226-.7.473.473,0,0,1,.813.036c.075.119.016.222-.045.316a2.6,2.6,0,0,1-2.31,1.258Q-1036.678-5124.6-1036.806-5124.608Zm.249-5.152a1.99,1.99,0,0,0-1.882,1.423c-.058.233,0,.309.241.3.489-.013.98,0,1.469,0v0c.512,0,1.026,0,1.539,0,.3,0,.377-.119.293-.405a1.712,1.712,0,0,0-1.6-1.32Zm-33.02,5.018a1.588,1.588,0,0,1-1.007-.911,2.817,2.817,0,0,1-.261-1.16c-.008-1.059-.005-2.119,0-3.178,0-.144-.04-.326.139-.386a.89.89,0,0,1,.635.006c.127.053.078.2.078.31,0,1.048,0,2.1,0,3.145a1.385,1.385,0,0,0,.769,1.341,1.414,1.414,0,0,0,2.067-1.157,28.332,28.332,0,0,0,.044-3.176c-.006-.46.293-.677.711-.491.176.079.11.235.111.359,0,1.4,0,2.8,0,4.2,0,.262.006.524,0,.787,0,.121.07.339-.134.316a.9.9,0,0,0-.165,0c-.177.014-.368.027-.421-.247-.013-.065-.026-.129-.048-.247a2.508,2.508,0,0,1-1.633.619A3.056,3.056,0,0,1-1069.578-5124.742Zm20.885.132a2.553,2.553,0,0,1-2.031-1.037c-.808-1.125-.9-3.51.691-4.485a2.818,2.818,0,0,1,2.754-.141,2.381,2.381,0,0,1,1.381,2.229c.026.8.014.8-.781.8h-1.469c-.616,0-1.232,0-1.847,0-.372,0-.409.059-.315.43a1.724,1.724,0,0,0,1.385,1.358,1.861,1.861,0,0,0,1.978-.7c.135-.177.223-.428.558-.238.435.245.457.259.164.675a2.583,2.583,0,0,1-2.239,1.12C-1048.54-5124.6-1048.616-5124.606-1048.693-5124.61Zm.135-3.424v0c.488,0,.977,0,1.465,0,.373,0,.414-.062.311-.423a1.731,1.731,0,0,0-1.707-1.3,1.93,1.93,0,0,0-1.823,1.39c-.065.247.006.338.253.336.2,0,.4,0,.6,0Zm-15.377,3.268c-.137-.046-.083-.2-.084-.3,0-.832,0-1.662,0-2.494h0c0-.832.012-1.663-.006-2.493-.005-.27.071-.375.343-.36.252.014.519-.039.513.356-.01.615,0,1.23,0,1.845,0,1.013,0,2.027,0,3.04,0,.166.048.368-.159.447a.622.622,0,0,1-.221.039A1.2,1.2,0,0,1-1063.934-5124.767Zm3.654.052a1.063,1.063,0,0,0-.174-.008c-.2,0-.4,0-.4-.329,0-.433,0-.866,0-1.3,0-.946-.006-1.892,0-2.838,0-.287-.057-.472-.392-.44-.278.027-.314-.145-.31-.367s-.01-.443.3-.416c.356.031.43-.152.4-.453-.016-.159,0-.32,0-.479,0-.6,0-.592.6-.711.226-.045.292.035.287.237-.009.365-.01.729-.023,1.094-.006.221.094.311.308.306.192,0,.387,0,.581,0,.421.006.232.329.27.53.041.22-.079.271-.276.266-.946-.03-.882-.114-.882.909,0,.536,0,1.07,0,1.607,0,.683-.005,1.367,0,2.05,0,.19-.022.343-.214.343A.482.482,0,0,1-1060.281-5124.715Zm17.537,0c-.324-.01-.4-.195-.492-.455-.368-1.006-.771-2-1.157-3-.247-.636-.483-1.278-.735-1.913-.1-.247-.025-.321.227-.337.35-.022.584.03.722.429.4,1.162.856,2.306,1.288,3.457.059.158.12.315.179.474l.092.013c.182-.462.37-.922.546-1.386.332-.885.656-1.773.986-2.66a.651.651,0,0,1,.834-.306c.169.1.085.243.039.363-.254.671-.519,1.339-.777,2.009-.373.966-.754,1.93-1.108,2.9a.543.543,0,0,1-.587.408Zm10.879,0c-.267-.005-.5.014-.493-.372.016-.8,0-1.6,0-2.392.009-.878-.041-1.754.018-2.631.012-.173.032-.3.234-.294.043,0,.089,0,.137,0,.17-.013.347-.024.4.218.057.263.071.354.32.1a2.1,2.1,0,0,1,2.125-.262c.207.108.281.225.154.459-.249.455-.238.461-.727.3a1.225,1.225,0,0,0-1.5.625,2.678,2.678,0,0,0-.272,1.291c-.005.854-.01,1.709,0,2.564,0,.289-.1.4-.382.4Zm4.939-.005a1.279,1.279,0,0,0-.145-.005c-.192,0-.386,0-.385-.33q.01-2.514,0-5.027c0-.328.19-.327.391-.327h.107c.239-.013.378.038.372.333-.018.843-.006,1.688-.006,2.531h0c0,.833-.009,1.664.006,2.5,0,.235-.077.336-.265.336A.656.656,0,0,1-1026.925-5124.727Zm2.449-7.294c.028-.594-.133-.6.7-.6.3,0,.3.006.287.5s-.013.491-.6.5h-.016C-1024.384-5131.623-1024.49-5131.724-1024.476-5132.021Zm-3-.155c0-.183-.1-.458.329-.448.576.014.6.011.609.425.01.53-.012.563-.387.57l-.186,0C-1027.466-5131.625-1027.468-5131.689-1027.479-5132.176Zm-36.649.042c0-.483,0-.46.605-.493.435-.023.375.244.373.5,0,.485-.012.5-.491.5S-1064.128-5131.653-1064.128-5132.134Z" transform="translate(2807 3896.164)" fill="rgba(0,0,0,0.18)" stroke="rgba(0,0,0,0)" stroke-miterlimit="10" stroke-width="1"/>
  </g>
</svg>
