<?xml version="1.0" encoding="utf-8"?>
<svg xmlns="http://www.w3.org/2000/svg" width="60.266" height="36.28" viewBox="0 0 60.266 36.28">
  <g id="ea" transform="translate(-9.883 -4)">
    <path id="Path_1" data-name="Path 1" d="M77.124,24.416c.866-1.2,2.659-6.329,1.768-11.215-.765-4.92-4.063-8.672-9.384-9.124a9.788,9.788,0,0,0-5.514.759c-.018.012-.071.051-.054.037A11.073,11.073,0,0,1,70.17,5.994a4.513,4.513,0,0,1,1.722,6.154,17.775,17.775,0,0,1-3.043,3.94,29.1,29.1,0,0,0-3.7,4.355c-.879,1.582-.886,3.31-.162,3.99,2.429,2.286,9.508.982,12.136-.018" transform="translate(-47.114 0)" fill="rgba(0,0,0,0.18)"/>
    <path id="Path_2" data-name="Path 2" d="M16.624,43.422c-.469-2.27,1.221-4.863,2.992-6.6s3.413-3.692,3.413-3.692c2.88-3.767.829-5.33.829-5.33-1.678-1.528-5.747-1.1-5.747-1.1a21.935,21.935,0,0,0-6.219,1.273c-.865,1.2-2.659,6.329-1.767,11.215.766,4.92,4.063,8.672,9.384,9.125a9.807,9.807,0,0,0,5.515-.76S17.594,48.115,16.624,43.422Z" transform="translate(0 -19.74)" fill="rgba(0,0,0,0.18)"/>
    <g id="Group_1" data-name="Group 1" transform="translate(10.387 18.857)">
      <path id="Path_3" data-name="Path 3" d="M163.556,203.176a1.106,1.106,0,0,1-1.184-1.027,1.2,1.2,0,0,1,2.377,0,1.109,1.109,0,0,1-1.193,1.027" transform="translate(-143.298 -190.663)" fill="rgba(0,0,0,0.18)"/>
      <path id="Path_4" data-name="Path 4" d="M115.4,232.92a4.43,4.43,0,0,1-2.271-.548l.54-1.34a3.223,3.223,0,0,0,1.415.374.859.859,0,0,0,.966-.832c0-1.13-2.653-.865-2.735-3.2a2.394,2.394,0,0,1,2.595-2.344,4.651,4.651,0,0,1,2.251.491l-.482,1.286a3,3,0,0,0-1.27-.362c-.657-.013-.935.367-.893.808.089.952,2.834.91,2.834,3.262,0,1.333-1.109,2.4-2.949,2.4" transform="translate(-100.379 -211.512)" fill="rgba(0,0,0,0.18)"/>
      <path id="Path_5" data-name="Path 5" d="M190.312,232.92a4.454,4.454,0,0,1-2.275-.548l.546-1.34a3.161,3.161,0,0,0,1.407.374.859.859,0,0,0,.966-.832c0-1.13-2.643-.865-2.727-3.2a2.379,2.379,0,0,1,2.584-2.344,4.637,4.637,0,0,1,2.256.491l-.487,1.286a2.972,2.972,0,0,0-1.266-.362c-.66-.013-.928.367-.887.808.082.952,2.824.91,2.824,3.262,0,1.333-1.1,2.4-2.941,2.4" transform="translate(-165.668 -211.512)" fill="rgba(0,0,0,0.18)"/>
      <path id="Path_6" data-name="Path 6" d="M71.656,232.92a4.43,4.43,0,0,1-2.27-.548l.539-1.34a3.229,3.229,0,0,0,1.417.374.861.861,0,0,0,.965-.832c0-1.13-2.652-.865-2.734-3.2a2.391,2.391,0,0,1,2.589-2.344,4.69,4.69,0,0,1,2.259.491l-.486,1.286a3.038,3.038,0,0,0-1.269-.362c-.663-.013-.937.367-.9.808.083.952,2.836.91,2.836,3.262,0,1.333-1.109,2.4-2.95,2.4" transform="translate(-62.25 -211.512)" fill="rgba(0,0,0,0.18)"/>
      <path id="Path_7" data-name="Path 7" d="M236.514,209.749l2.175-.563v2.177H240v1.43h-1.306v3.928c0,.578.209.87.692.889a2.2,2.2,0,0,0,.615-.086v1.36a3.678,3.678,0,0,1-1.226.211,2.065,2.065,0,0,1-2.255-2.2v-7.141" transform="translate(-207.922 -197.7)" fill="rgba(0,0,0,0.18)"/>
      <path id="Path_8" data-name="Path 8" d="M272.952,232.941c-2.087,0-3.28-.819-3.28-2.4,0-1.962,1.887-2.543,4.052-2.76v-.307c0-.785-.413-1.012-1.175-1.012a5.817,5.817,0,0,0-1.965.487l-.332-1.35a6.379,6.379,0,0,1,2.688-.557c1.632,0,2.952.717,2.952,2.783V232.2a5.525,5.525,0,0,1-2.94.743m.772-4.141c-1.249.127-1.889.582-1.889,1.653a1.135,1.135,0,0,0,1.219,1.278,1.242,1.242,0,0,0,.67-.158Z" transform="translate(-236.823 -211.518)" fill="rgba(0,0,0,0.18)"/>
      <path id="Path_9" data-name="Path 9" d="M332.132,232.8v-5.332a.965.965,0,0,0-1.108-1.054,2.055,2.055,0,0,0-.718.153V232.8h-2.179v-7.116a7.4,7.4,0,0,1,2.949-.646c2.383,0,3.239,1.036,3.239,2.418V232.8h-2.184" transform="translate(-287.774 -211.517)" fill="rgba(0,0,0,0.18)"/>
      <path id="Path_10" data-name="Path 10" d="M432.071,225.037c-2.108,0-3.4,1.544-3.4,3.929,0,2.429,1.383,3.973,3.624,3.973a6.014,6.014,0,0,0,2.548-.515v-1.58a5.116,5.116,0,0,1-2.3.582c-1.069,0-1.429-.55-1.59-1.663l4.215-.657c.1-2.569-.979-4.07-3.1-4.07m-1.248,3.649c-.068-1.573.3-2.343,1.164-2.343.773,0,1.215.589,1.215,1.95Z" transform="translate(-375.413 -211.516)" fill="rgba(0,0,0,0.18)"/>
      <path id="Path_11" data-name="Path 11" d="M387.964,232.939c-1.99,0-3.445-1.414-3.445-3.973s1.567-3.929,3.43-3.929a3.459,3.459,0,0,1,2.047.551L389.5,226.8a1.6,1.6,0,0,0-1-.3c-1.048,0-1.785.871-1.785,2.43,0,1.543.813,2.429,1.769,2.429a1.515,1.515,0,0,0,1.013-.311l.511,1.333a3.528,3.528,0,0,1-2.048.548" transform="translate(-336.926 -211.516)" fill="rgba(0,0,0,0.18)"/>
      <path id="Path_12" data-name="Path 12" d="M17.088,232.941c-2.092,0-3.285-.816-3.285-2.4,0-1.962,1.889-2.543,4.059-2.76v-.307c0-.785-.419-1.012-1.175-1.012a5.819,5.819,0,0,0-1.969.487l-.326-1.35a6.346,6.346,0,0,1,2.682-.557c1.634,0,2.961.717,2.961,2.783V232.2a5.585,5.585,0,0,1-2.947.743m.774-4.141c-1.256.127-1.893.582-1.893,1.653a1.136,1.136,0,0,0,1.224,1.278,1.259,1.259,0,0,0,.669-.158Z" transform="translate(-13.803 -211.518)" fill="rgba(0,0,0,0.18)"/>
      <rect id="Rectangle_1" data-name="Rectangle 1" width="2.175" height="7.62" transform="translate(19.174 13.663)" fill="rgba(0,0,0,0.18)"/>
      <path id="Path_13" data-name="Path 13" d="M333.125,119.723c-2.205,0-3.282.787-3.282,2.67v5.291h2.274v-5.413c0-.563.3-.981,1.066-1.033a3.221,3.221,0,0,1,.5.01l.265-1.473a6.5,6.5,0,0,0-.823-.052" transform="translate(-289.269 -119.723)" fill="rgba(0,0,0,0.18)"/>
      <path id="Path_14" data-name="Path 14" d="M271.613,128.781c-2.2,0-3.285-.824-3.285-2.709l0-5.256h2.263v5.415a.956.956,0,0,0,1.076,1.026,1.974,1.974,0,0,0,.942-.186v-6.255h2.269v7.239a8.392,8.392,0,0,1-3.268.726" transform="translate(-235.651 -120.675)" fill="rgba(0,0,0,0.18)"/>
      <path id="Path_15" data-name="Path 15" d="M365.529,127.828c-2.262,0-3.448-1.726-3.448-4.061s1.186-4.045,3.434-4.045c2.284,0,3.468,1.71,3.468,4.045s-1.184,4.061-3.453,4.061m0-6.706c-1,0-1.2,1.22-1.2,2.616s.219,2.551,1.2,2.551c1.005,0,1.207-1.14,1.207-2.551s-.2-2.616-1.207-2.616" transform="translate(-317.368 -119.722)" fill="rgba(0,0,0,0.18)"/>
      <path id="Path_16" data-name="Path 16" d="M428.156,127.786a4.271,4.271,0,0,1-1.135-.131v2.6h-2.264V120.3a6.59,6.59,0,0,1,2.993-.576c2.337,0,3.847,1.369,3.847,4,0,2.507-1.413,4.061-3.441,4.061m-.433-6.737a1.8,1.8,0,0,0-.7.117v5.182a1.642,1.642,0,0,0,.592.1c1.206,0,1.741-.94,1.741-2.7s-.432-2.7-1.632-2.7" transform="translate(-371.998 -119.723)" fill="rgba(0,0,0,0.18)"/>
      <path id="Path_17" data-name="Path 17" d="M211.25,119.722c-2.218,0-3.543,1.573-3.543,4.031,0,2.665,1.445,4.075,3.782,4.075a6.368,6.368,0,0,0,2.635-.522v-1.621a5.42,5.42,0,0,1-2.382.593c-1.119,0-1.53-.577-1.687-1.726l4.418-.654c.107-2.647-1.016-4.175-3.223-4.175m-1.333,3.732c-.075-1.611.334-2.405,1.247-2.405.8,0,1.257.618,1.257,2Z" transform="translate(-182.813 -119.722)" fill="rgba(0,0,0,0.18)"/>
    </g>
    <path id="Path_18" data-name="Path 18" d="M221.706,248.249" transform="translate(-184.628 -212.892)" fill="rgba(0,0,0,0.18)"/>
  </g>
</svg>
