<?xml version="1.0" encoding="utf-8"?>
<svg xmlns="http://www.w3.org/2000/svg" width="91.5" height="16.594" viewBox="0 0 91.5 16.594">
  <g id="johnson2" transform="translate(-0.001 -2.638)">
    <path id="Union_7" data-name="Union 7" d="M-2666.641-3823.52a9.262,9.262,0,0,1,1.576-4.58,9.871,9.871,0,0,1-1.093-1.194,4.115,4.115,0,0,0-.746-.081,6.326,6.326,0,0,0-1.5.249c-.032.811-.2,1.377-.48,1.377-.185,0-.234-.216-.234-.5,0-.2-.033-.433-.033-.7a3.979,3.979,0,0,1-.86.118c-1.445,0-2.59-.431-2.59-1.294,0-.451.3-.9,1.3-.9a2.707,2.707,0,0,1,2.053.816,2.481,2.481,0,0,0-.547-1.281.243.243,0,0,1-.05-.147c0-.064.2-.166.4-.266a1.083,1.083,0,0,1,.482-.165.187.187,0,0,1,.131.049,3.841,3.841,0,0,1,.467,2.023v.334a6.057,6.057,0,0,1,1.339-.2,2.55,2.55,0,0,1,.467.032,5.54,5.54,0,0,1-.779-3.053c0-3.2,2.953-5.344,4.3-5.344.179,0,.247.069.247.2a3.384,3.384,0,0,1-.051.447,14.364,14.364,0,0,0-.349,2.952,36.1,36.1,0,0,0,.314,3.885c1.661-1.659,3.054-2.509,3.685-2.509.1,0,.216.02.216.1a.882.882,0,0,1-.266.422,2.855,2.855,0,0,0-.611,1.873c0,1.028.544,1.925,1.474,1.925a1.476,1.476,0,0,0,1.376-1.625,3.013,3.013,0,0,0-.031-.533h-.217c-.765,0-1.625-.364-1.625-1.243a.835.835,0,0,1,.881-.867,1.8,1.8,0,0,1,1.5,1.4,4.561,4.561,0,0,0,1.645-.615v-1.726c0-2.122.879-3.915,2.022-3.915.615,0,1.013.5,1.013,1.393a6.2,6.2,0,0,1-1.692,4.15v2.223c0,.28,0,.431.034.431a2.849,2.849,0,0,0,.463-.763c.316-.6.713-1.247,1.01-1.728.218-.346.546-.9,1.145-.9.434,0,.748.315.748,1.1v2.79c0,.083.019.116.049.116a.246.246,0,0,0,.1-.1c.217-.3,1.376-2.1,2.076-3.285a1.082,1.082,0,0,1,1-.615c.432,0,.745.315.745,1.1v2.124c0,.1.017.168.036.168s.064-.032.114-.135c.316-.6.978-1.807,1.526-2.638a1.106,1.106,0,0,1,.978-.615c.435,0,.749.315.749,1.1v2.905c0,.1.018.117.049.117s.067-.053.1-.1a20.818,20.818,0,0,0,2.24-3.8c.082-.228.132-.345.247-.345.138,0,.183.212.251.394.185.45.548,1.031.848,1.7a10.8,10.8,0,0,1,1.989-1.429,4.3,4.3,0,0,1,1.808-.531c.1,0,.217.02.217.1,0,.153-.118.254-.268.422a2.85,2.85,0,0,0-.612,1.873c0,1.028.546,1.925,1.475,1.925a1.478,1.478,0,0,0,1.378-1.625,3.526,3.526,0,0,0-.014-.583,1.112,1.112,0,0,1-.265.019,2.067,2.067,0,0,1-.818-.119,1.142,1.142,0,0,1-.775-1.093.833.833,0,0,1,.878-.867,1.719,1.719,0,0,1,1.457,1.263,4.785,4.785,0,0,0,.817-.5c.5-.348.844-.813,1.525-.813.647,0,.814.483.814,1.1v2.124c0,.117.013.168.048.168s.083-.1.119-.168a28.224,28.224,0,0,1,1.457-2.6,1.122,1.122,0,0,1,.976-.615c.448,0,.8.315.8,1.1v2.905c0,.1.047.181.116.181.182,0,.283-.145.381-.248.5-.546.581-.7.729-.7a.247.247,0,0,1,.265.235.384.384,0,0,1-.047.164c-.665,1.128-1.045,1.86-1.811,1.86-.732,0-1.061-.481-1.061-1.211v-2.591c0-.215-.033-.265-.1-.265-.05,0-.117.1-.2.235-.348.579-1.145,2.106-1.69,3.25a.906.906,0,0,1-.8.582c-.414,0-.578-.25-.578-.78v-3.255c0-.215-.07-.331-.22-.331a.9.9,0,0,0-.461.233,4.17,4.17,0,0,1-.881.567,3.519,3.519,0,0,1,.046.742,2.584,2.584,0,0,1-2.536,2.824,2.457,2.457,0,0,1-2.34-2.724,2.886,2.886,0,0,1,.514-1.69,5.782,5.782,0,0,0-2.091,1.462,3.535,3.535,0,0,1,.265,1.21,1.618,1.618,0,0,1-1.458,1.742.91.91,0,0,1-.878-.981,2.726,2.726,0,0,1,.8-1.608,7.535,7.535,0,0,0-.5-.931c-.481.817-1.279,2.089-1.826,2.806-.3.38-.6.714-1.063.714-.348,0-.743-.2-.743-.963v-2.821c0-.218-.018-.3-.083-.3s-.134.117-.219.25c-.347.594-1.16,2.106-1.708,3.25a.882.882,0,0,1-.781.582c-.414,0-.578-.25-.578-.78v-2.973c0-.213-.037-.248-.1-.248s-.148.086-.215.2c-.364.633-1.278,2.091-2.138,3.321a.926.926,0,0,1-.767.481c-.349,0-.746-.2-.746-.963v-2.839c0-.2-.031-.28-.063-.28-.136,0-.3.346-.6.878-.382.683-1.014,1.826-1.245,2.326-.281.611-.48.877-.867.877a.552.552,0,0,1-.577-.6v-3.335a4.322,4.322,0,0,1-1.478.513c.018.2.034.382.034.6a2.615,2.615,0,0,1-2.537,2.824,2.458,2.458,0,0,1-2.342-2.724,3.925,3.925,0,0,1,.168-1.06,11.041,11.041,0,0,0-1.792,1.61c.066.762.1,1.527.1,2.289,0,2.557-1.244,6.007-2.9,6.007C-2666.39-3821.628-2666.641-3822.444-2666.641-3823.52Zm.8-.133c.017.611.316.963.664.963.915.014,1.445-1.844,1.445-3.435a18.25,18.25,0,0,0-.25-2.422A7.87,7.87,0,0,0-2665.845-3823.653Zm25.683-5.126c0,.233.137.382.268.382.182,0,.281-.266.281-.532a2.186,2.186,0,0,0-.148-.749A1.953,1.953,0,0,0-2640.162-3828.78Zm-25.882-4.1a6,6,0,0,0,1.378,4.184l.532-.716a24.509,24.509,0,0,1-.4-3.22,10.494,10.494,0,0,1,.614-3.565c.3-.831.531-1.295.531-1.4,0-.048-.015-.063-.063-.063C-2664.333-3837.654-2666.044-3835.7-2666.044-3832.878Zm-5.255,2.839c0,.362.478.612,1.127.612a5.564,5.564,0,0,0,.746-.033c-.465-.579-.894-.946-1.427-.946C-2671.184-3830.406-2671.3-3830.271-2671.3-3830.04Zm37.162-2.174c0,.294.331.482.726.482.069,0,.168-.02.233-.02-.181-.462-.514-.694-.728-.694A.215.215,0,0,0-2634.137-3832.214Zm-23.994,0c0,.33.332.462.946.462-.179-.462-.5-.694-.714-.694A.217.217,0,0,0-2658.131-3832.214Zm4.63-2.389v1.211a5.686,5.686,0,0,0,.929-2.95c0-.949-.034-1.115-.3-1.115C-2653.022-3837.457-2653.5-3837.076-2653.5-3834.6Zm-61.8,11.082a9.311,9.311,0,0,1,1.576-4.58c-1.44-1.41-2.271-2.506-2.271-4.778,0-3.2,2.953-5.344,4.3-5.344.178,0,.25.069.25.2a3.532,3.532,0,0,1-.054.447,14.365,14.365,0,0,0-.346,2.952,36.1,36.1,0,0,0,.314,3.885c1.661-1.659,3.053-2.509,3.683-2.509.1,0,.218.02.218.1a.867.867,0,0,1-.268.422,2.846,2.846,0,0,0-.612,1.873c0,1.028.549,1.925,1.478,1.925a1.476,1.476,0,0,0,1.375-1.625,2.835,2.835,0,0,0-.033-.533h-.216c-.761,0-1.625-.364-1.625-1.243a.837.837,0,0,1,.881-.867,1.8,1.8,0,0,1,1.507,1.4,4.561,4.561,0,0,0,1.645-.615v-1.726c0-2.122.878-3.915,2.025-3.915.613,0,1.009.5,1.009,1.393a6.2,6.2,0,0,1-1.692,4.15v2.223c0,.28,0,.431.032.431a2.868,2.868,0,0,0,.467-.763c.314-.6.711-1.247,1.01-1.728.219-.346.548-.9,1.146-.9.43,0,.744.315.744,1.1v2.79c0,.083.019.116.052.116a.284.284,0,0,0,.1-.1c.216-.3,1.376-2.1,2.072-3.285a1.087,1.087,0,0,1,1-.615c.433,0,.75.315.75,1.1v2.124c0,.1.012.168.029.168s.067-.032.119-.135c.314-.6.98-1.807,1.527-2.638a1.1,1.1,0,0,1,.98-.615c.428,0,.743.315.743,1.1v2.905c0,.1.019.117.055.117.016,0,.063-.053.1-.1a20.694,20.694,0,0,0,2.24-3.8c.081-.228.132-.345.25-.345s.181.212.247.394c.184.45.549,1.031.847,1.7a10.851,10.851,0,0,1,1.994-1.429,4.262,4.262,0,0,1,1.807-.531c.1,0,.214.02.214.1,0,.153-.114.254-.267.422a2.86,2.86,0,0,0-.61,1.873c0,1.028.545,1.925,1.477,1.925a1.477,1.477,0,0,0,1.376-1.625,3.133,3.133,0,0,0-.02-.583,1.051,1.051,0,0,1-.263.019,2.05,2.05,0,0,1-.814-.119,1.144,1.144,0,0,1-.78-1.093.836.836,0,0,1,.881-.867,1.727,1.727,0,0,1,1.461,1.263,4.735,4.735,0,0,0,.811-.5c.5-.348.846-.813,1.526-.813.649,0,.815.483.815,1.1v2.124c0,.117.015.168.049.168s.08-.1.115-.168a28.771,28.771,0,0,1,1.459-2.6,1.121,1.121,0,0,1,.979-.615c.448,0,.8.315.8,1.1v2.905c0,.1.05.181.117.181.184,0,.282-.145.382-.248.5-.546.58-.7.73-.7a.244.244,0,0,1,.263.235.381.381,0,0,1-.046.164c-.668,1.128-1.047,1.86-1.812,1.86-.728,0-1.061-.481-1.061-1.211v-2.591c0-.215-.035-.265-.1-.265-.047,0-.116.1-.2.235-.348.579-1.143,2.106-1.692,3.25a.9.9,0,0,1-.8.582c-.412,0-.581-.25-.581-.78v-3.255c0-.215-.064-.331-.214-.331a.9.9,0,0,0-.464.233,4.048,4.048,0,0,1-.881.567,3.355,3.355,0,0,1,.05.742,2.587,2.587,0,0,1-2.54,2.824,2.456,2.456,0,0,1-2.339-2.724,2.865,2.865,0,0,1,.516-1.69,5.736,5.736,0,0,0-2.091,1.462,3.55,3.55,0,0,1,.263,1.21,1.618,1.618,0,0,1-1.458,1.742.913.913,0,0,1-.879-.981,2.748,2.748,0,0,1,.8-1.608,7.193,7.193,0,0,0-.5-.931c-.483.817-1.279,2.089-1.823,2.806-.3.38-.6.714-1.061.714-.351,0-.75-.2-.75-.963v-2.821c0-.218-.015-.3-.084-.3-.05,0-.133.117-.215.25-.35.594-1.161,2.106-1.712,3.25a.877.877,0,0,1-.776.582c-.416,0-.582-.25-.582-.78v-2.973c0-.213-.034-.248-.1-.248s-.149.086-.217.2c-.362.633-1.276,2.091-2.14,3.321a.92.92,0,0,1-.765.481c-.345,0-.743-.2-.743-.963v-2.839c0-.2-.036-.28-.066-.28-.134,0-.3.346-.6.878-.381.683-1.009,1.826-1.244,2.326-.279.611-.479.877-.862.877a.552.552,0,0,1-.579-.6v-3.335a4.356,4.356,0,0,1-1.478.513c.014.2.032.382.032.6a2.614,2.614,0,0,1-2.538,2.824,2.458,2.458,0,0,1-2.34-2.724,3.958,3.958,0,0,1,.166-1.06,11.1,11.1,0,0,0-1.789,1.61c.065.762.1,1.527.1,2.289,0,2.557-1.243,6.007-2.9,6.007C-2715.052-3821.628-2715.3-3822.444-2715.3-3823.52Zm.8-.133c.014.611.311.963.664.963.913.014,1.443-1.844,1.443-3.435a17.345,17.345,0,0,0-.251-2.422A7.879,7.879,0,0,0-2714.505-3823.653Zm25.685-5.126c0,.233.133.382.264.382.184,0,.283-.266.283-.532a2.2,2.2,0,0,0-.151-.749A1.962,1.962,0,0,0-2688.821-3828.78Zm-25.883-4.1a5.989,5.989,0,0,0,1.377,4.184l.531-.716a23.968,23.968,0,0,1-.4-3.22,10.445,10.445,0,0,1,.616-3.565c.3-.831.53-1.295.53-1.4,0-.048-.015-.063-.067-.063C-2712.995-3837.654-2714.7-3835.7-2714.7-3832.878Zm31.9.665c0,.294.333.482.729.482.067,0,.167-.02.234-.02-.186-.462-.514-.694-.732-.694A.217.217,0,0,0-2682.8-3832.214Zm-23.989,0c0,.33.33.462.943.462-.183-.462-.5-.694-.711-.694A.216.216,0,0,0-2706.789-3832.214Zm4.626-2.389v1.211a5.678,5.678,0,0,0,.93-2.95c0-.949-.032-1.115-.3-1.115C-2701.68-3837.457-2702.162-3837.076-2702.162-3834.6Z" transform="translate(2716 3840.861)" fill="rgba(0,0,0,0.18)"/>
  </g>
</svg>
