<?xml version="1.0" encoding="utf-8"?>
<svg xmlns="http://www.w3.org/2000/svg" width="84.631" height="25.772" viewBox="0 0 84.631 25.772">
  <g id="pepsi" transform="translate(-79.809 -156.672)">
    <path id="Union_2" data-name="Union 2" d="M-2484.679-3709.812c7.715-2.389,13.339-2.414,17.171-5.226a8.873,8.873,0,0,0,3.236-9.805v-.025a12.692,12.692,0,0,1-3,17.3,12.639,12.639,0,0,1-7.527,2.479A12.675,12.675,0,0,1-2484.679-3709.812Zm54.849,1.543a.249.249,0,0,1-.249-.249v-8.411a13.368,13.368,0,0,1,.249-2.738,5.9,5.9,0,0,1,5.724-4.43,5.912,5.912,0,0,1,5.922,6.022,5.967,5.967,0,0,1-1.692,4.23,5.7,5.7,0,0,1-4.056,1.668h-.374a5.838,5.838,0,0,1-3.783-1.642v5.3a.249.249,0,0,1-.249.249Zm5.649-13.812a3.963,3.963,0,0,0-3.808,4.056,3.786,3.786,0,0,0,3.907,3.883,3.781,3.781,0,0,0,3.684-3.982,3.849,3.849,0,0,0-3.808-3.982Zm-32.526,13.812a.249.249,0,0,1-.248-.249v-8.411a13.436,13.436,0,0,1,.248-2.738,5.906,5.906,0,0,1,5.725-4.43,5.912,5.912,0,0,1,5.922,6.022,5.971,5.971,0,0,1-1.692,4.23,5.7,5.7,0,0,1-4.057,1.668h-.373a5.838,5.838,0,0,1-3.783-1.642v5.3a.249.249,0,0,1-.249.249Zm5.65-13.812a3.963,3.963,0,0,0-3.808,4.056,3.786,3.786,0,0,0,3.907,3.883,3.78,3.78,0,0,0,3.683-3.982,3.849,3.849,0,0,0-3.807-3.982Zm-35.142-1.808a12.689,12.689,0,0,1,11.326-6.977,12.562,12.562,0,0,1,7.615,2.538h.025a26.38,26.38,0,0,1-17.844,17.694A12.69,12.69,0,0,1-2486.2-3723.889Zm42.981,6.859a5.868,5.868,0,0,1,5.823-6.794,5.806,5.806,0,0,1,5.724,5.227l.075.572a.516.516,0,0,1-.249.548,6.9,6.9,0,0,1-2.538.871,11.164,11.164,0,0,1-3.385-.074,5.439,5.439,0,0,0-3.334.248v.05a3.891,3.891,0,0,0,6.569,1.17.365.365,0,0,1,.5-.051s.92.448,1.369.7a.279.279,0,0,1,.05.448,5.932,5.932,0,0,1-4.032,2.165,7.444,7.444,0,0,1-.746.051A5.763,5.763,0,0,1-2443.219-3717.03Zm5.275-4.778a4.038,4.038,0,0,0-3.433,3.484v.075a7.084,7.084,0,0,1,2.488-.448l1.493.074-.025.025a10,10,0,0,0,3.783-.249,4.1,4.1,0,0,0-3.807-2.986Zm25.757,9.781a6.437,6.437,0,0,1-4.554-1.867l-.075.075c-.125-.15-.174-.249-.05-.4l1.195-1c.2-.125.273-.125.448.024h.025c1.369,1.344,4.6,2.166,5.425-.2.05-.746-.5-1.269-1.494-1.443l-1.493-.3c-2.414-.5-3.732-1.618-3.732-3.235,0-2.016,1.791-3.559,4.181-3.559a5.93,5.93,0,0,1,4.082,1.369c.174.174.224.324.05.5l-1,.9a.453.453,0,0,1-.573-.024,3.588,3.588,0,0,0-2.489-.872c-1.02,0-2.115.5-2.115,1.493,0,.9,1.195,1.294,1.568,1.394.722.2,1.593.348,2.339.5.672.174,2.912.8,2.912,3.161,0,1.741-1.418,3.459-4.6,3.484Zm7.142-.374a.249.249,0,0,1-.249-.249v-10.7a.249.249,0,0,1,.249-.249h1.492a.249.249,0,0,1,.249.249v10.7a.249.249,0,0,1-.249.249Zm-.623-13.687a1.369,1.369,0,0,1,1.369-1.369,1.369,1.369,0,0,1,1.369,1.369,1.369,1.369,0,0,1-1.369,1.369A1.369,1.369,0,0,1-2405.667-3726.087Z" transform="translate(2567.369 3887.538)" fill="rgba(0,0,0,0.18)"/>
  </g>
</svg>
