<?xml version="1.0" encoding="utf-8"?>
<svg xmlns="http://www.w3.org/2000/svg" width="86.539" height="31.4" viewBox="0 0 86.539 31.4">
  <g id="sdxworx" transform="translate(-20.698 -230)">
    <path id="Union_1" data-name="Union 1" d="M-2539.736-3585.534l2.4-21.654h3.981l-2.565,21.654Zm23.368-12.19c-.016-3.673,2.2-5.9,4.781-5.9a3.527,3.527,0,0,1,3.215,1.65h.05v-6.547h1.948v13.28c0,.969.017,2.091.083,2.839h-1.749l-.083-1.9h-.05a3.917,3.917,0,0,1-3.615,2.16C-2514.369-3592.147-2516.369-3594.392-2516.369-3597.724Zm1.966-.136c0,2.244,1.083,4.081,3.148,4.081a2.957,2.957,0,0,0,2.849-2.38,3.576,3.576,0,0,0,.083-.868v-1.886a3.843,3.843,0,0,0-.083-.868,2.887,2.887,0,0,0-2.8-2.295C-2513.221-3602.076-2514.4-3600.258-2514.4-3597.86Zm-29.764,5.614-1.533-8.246h3.7l1.449,8.246Zm60.409-.017c-2.865,0-5.114-2.133-5.114-5.53,0-3.6,2.365-5.713,5.3-5.713,3.064,0,5.147,2.249,5.147,5.513,0,4-2.765,5.731-5.3,5.731Zm-3.148-5.614c0,2.365,1.316,4.131,3.2,4.131h.016c1.849,0,3.249-1.749,3.249-4.2,0-1.815-.9-4.114-3.2-4.114C-2485.907-3602.058-2486.906-3599.927-2486.906-3597.878Zm-37.4,4.847.468-1.466a5.555,5.555,0,0,0,2.582.75c1.4,0,2.048-.683,2.048-1.6,0-.933-.549-1.449-1.966-1.982-1.948-.716-2.848-1.766-2.848-3.048,0-1.732,1.416-3.165,3.681-3.165a4.843,4.843,0,0,1,2.6.666l-.467,1.4a4.31,4.31,0,0,0-2.182-.617c-1.15,0-1.766.667-1.766,1.467,0,.916.616,1.316,2.016,1.848,1.832.683,2.8,1.616,2.8,3.248,0,1.917-1.483,3.249-3.965,3.249A6.182,6.182,0,0,1-2524.307-3593.031Zm61.408.515-1.565-2.416c-.417-.616-.766-1.216-1.149-1.866h-.051c-.349.65-.732,1.216-1.133,1.866l-1.549,2.416h-2.132l3.8-5.5-3.615-5.263h2.166l1.516,2.3c.4.616.733,1.15,1.083,1.75h.067c.349-.617.7-1.183,1.083-1.75l1.482-2.3h2.116l-3.648,5.2,3.731,5.564Zm-31.463,0-1.633-5.131c-.367-1.216-.682-2.3-.949-3.564h-.05a33.807,33.807,0,0,1-.967,3.581l-1.715,5.115h-1.766l-3.215-10.761h2l1.432,5.447c.284,1.2.567,2.332.767,3.448h.066c.25-1.083.6-2.249.95-3.431l1.749-5.464h1.633l1.649,5.38c.4,1.266.7,2.416.949,3.515h.067a35.779,35.779,0,0,1,.816-3.5l1.517-5.4h1.915l-3.448,10.761Zm17.738-.019v-7.379c0-1.266-.016-2.366-.083-3.365h1.7l.083,2.115h.066a3.24,3.24,0,0,1,2.982-2.365,1.868,1.868,0,0,1,.533.066v1.816c-.217-.016-.417-.033-.682-.033a2.732,2.732,0,0,0-2.6,2.482,5.482,5.482,0,0,0-.066.933v5.73Zm-56.5-.045,4.93-23.354h4.131l-5.181,23.354Z" transform="translate(2567 3846.434)" fill="rgba(0,0,0,0.18)" stroke="rgba(0,0,0,0)" stroke-miterlimit="10" stroke-width="1"/>
  </g>
</svg>
