<?xml version="1.0" encoding="utf-8"?>
<svg xmlns="http://www.w3.org/2000/svg" width="44.627" height="44.627" viewBox="0 0 44.627 44.627">
  <g id="sipwell" transform="translate(0 0)">
    <path id="Union_6" data-name="Union 6" d="M-2650.216-3849.037c-.024-.035-.063-.031-.1-.033-.263-.011-.525-.035-.787-.056a21.549,21.549,0,0,1-2.25-.29,22.3,22.3,0,0,1-18.271-20.79,1.462,1.462,0,0,0-.056-.45v-1.8h.047q0,.065,0,.13c0-.044,0-.088,0-.132s.011-.07.013-.108c.019-.389.053-.78.094-1.164a21.929,21.929,0,0,1,.354-2.241,22.261,22.261,0,0,1,17.193-17.2,21.774,21.774,0,0,1,2.381-.375c.482-.05.964-.087,1.447-.1a.287.287,0,0,0,.153-.025h1.294a.25.25,0,0,0,.138.025c.583.015,1.165.064,1.744.126a21.838,21.838,0,0,1,2.945.537,22.3,22.3,0,0,1,16.518,17.945,19.18,19.18,0,0,1,.275,2.663c0,.046-.014.1.03.133v1.771c-.04.031-.029.076-.029.116,0,.443-.048.881-.092,1.32a21.449,21.449,0,0,1-.4,2.489,22.305,22.305,0,0,1-16.031,16.731,21.833,21.833,0,0,1-3.046.587q-.846.1-1.7.148c-.045,0-.1-.011-.131.034Zm-1.832-16.348a3.33,3.33,0,0,0,1.238,1.781,3.737,3.737,0,0,0,1.934.753,3.05,3.05,0,0,0,1.811-.364,1.234,1.234,0,0,0,.339-.254.537.537,0,0,0,.123-.515.3.3,0,0,0-.136-.225.3.3,0,0,0-.262-.03c-.222.047-.446.077-.669.1a5.915,5.915,0,0,1-1.619.009,2.241,2.241,0,0,1-.791-.256.805.805,0,0,1-.425-.677,1.945,1.945,0,0,1,0-.282.753.753,0,0,1,.384-.617,2.529,2.529,0,0,1,.654-.271,1.593,1.593,0,0,1,.689-.022,2.234,2.234,0,0,1,1,.5.053.053,0,0,1,.021.064.515.515,0,0,1-.065.013c-.367.023-.735.041-1.1.07a3.406,3.406,0,0,0-.517.051.362.362,0,0,0-.259.261.359.359,0,0,0,.1.352.594.594,0,0,0,.171.112,2.444,2.444,0,0,0,1.118.22,3.265,3.265,0,0,0,1.217-.307.631.631,0,0,0,.4-.638,1.527,1.527,0,0,0-.67-1.228,2.315,2.315,0,0,0-1.076-.424c-.312-.036-.628-.055-.943-.079a1.953,1.953,0,0,0-.93.2c-.237.1-.468.213-.7.322a2.19,2.19,0,0,1-.694.2c-.011-.1-.019-.2-.033-.3a.707.707,0,0,0-.408-.5.706.706,0,0,0-.641.038,1.119,1.119,0,0,0-.354.378c-.116.2-.232.4-.336.607-.222.442-.434.888-.651,1.332a1.979,1.979,0,0,1-.235.393.5.5,0,0,1-.658.165,1.668,1.668,0,0,1-.325-.19c-.2-.147-.4-.294-.6-.435a3.9,3.9,0,0,0-.675-.406.994.994,0,0,0-.91.049,3.459,3.459,0,0,0-.471.315c-.237.186-.47.373-.708.558a1.559,1.559,0,0,1-.463.265.462.462,0,0,1-.539-.153,1.212,1.212,0,0,1-.212-.386c-.075-.213-.142-.425-.218-.643a8.059,8.059,0,0,0-.563-1.336,2.618,2.618,0,0,0-.349-.506.589.589,0,0,0-.43-.225.59.59,0,0,0-.453.176.5.5,0,0,0-.193.4,1.076,1.076,0,0,0,.136.513q.566,1.133,1.134,2.273a5.456,5.456,0,0,0,.453.779,1.559,1.559,0,0,0,.4.4.761.761,0,0,0,.6.109,1.824,1.824,0,0,0,.647-.318,6.075,6.075,0,0,0,.585-.48,2.9,2.9,0,0,1,.558-.409.919.919,0,0,1,.906-.01,1.646,1.646,0,0,1,.212.131,3.787,3.787,0,0,1,.393.342,3.29,3.29,0,0,0,.739.562,1.146,1.146,0,0,0,1.393-.127,2.088,2.088,0,0,0,.272-.262,4.884,4.884,0,0,0,.567-.814c.122-.212.24-.432.367-.643a1.791,1.791,0,0,1,.508-.554c.065-.046.1-.072.13-.072S-2652.077-3865.49-2652.048-3865.385Zm10.876,1.68a2.8,2.8,0,0,1,.22.18,2.272,2.272,0,0,0,.841.483,2.4,2.4,0,0,0,1.34,0c.4-.108.794-.243,1.189-.368a.935.935,0,0,0,.239-.118.517.517,0,0,0,.249-.465.864.864,0,0,0-.117-.406.354.354,0,0,0-.4-.184,1.3,1.3,0,0,0-.386.135,1.655,1.655,0,0,1-.853.2,2.35,2.35,0,0,1-.579-.038.973.973,0,0,1-.789-.787,2.313,2.313,0,0,1-.012-.816c.042-.291.1-.578.156-.868a3.826,3.826,0,0,0,.075-.752.435.435,0,0,0-.233-.417.547.547,0,0,0-.7.173,1.219,1.219,0,0,0-.163.354c-.192.628-.368,1.262-.508,1.9a1.44,1.44,0,0,1-1.012,1.109,2.545,2.545,0,0,1-1.537.019.9.9,0,0,1-.668-.746,2.975,2.975,0,0,1-.02-.8c.03-.4.107-.791.165-1.186a2.168,2.168,0,0,0,.04-.47.416.416,0,0,0-.21-.359.417.417,0,0,0-.415,0,.614.614,0,0,0-.13.089.832.832,0,0,0-.175.221,2.943,2.943,0,0,0-.355.907,9.02,9.02,0,0,0-.166,1.393,2.6,2.6,0,0,0,.1.888,1.878,1.878,0,0,0,1.855,1.408,3.41,3.41,0,0,0,.855-.124,4.783,4.783,0,0,0,1.452-.555.933.933,0,0,1,.156-.07.486.486,0,0,1,.2-.041A.488.488,0,0,1-2641.172-3863.705Zm-8.117-5.927a1.663,1.663,0,0,0,1.323-.472.445.445,0,0,0,.136-.4c-.054-.425-.082-.85-.109-1.275-.042-.662-.05-1.324-.061-1.984-.01-.547,0-1.094.01-1.641.017-1.01.017-2.019.02-3.028,0-.452,0-.905-.021-1.356a5.283,5.283,0,0,1,0-.583c.021-.4.023-.8.019-1.2a.928.928,0,0,0-.019-.172.463.463,0,0,0-.443-.438,4.066,4.066,0,0,0-.722-.056q-.8-.007-1.609-.011a1.805,1.805,0,0,0-.377.028.7.7,0,0,0-.584.584,2.356,2.356,0,0,0-.034.518c.011.751.034,1.5.03,2.255,0,.973,0,1.947,0,2.919h-.021v5.333a2.067,2.067,0,0,0,.052.531.437.437,0,0,0,.454.361,1.224,1.224,0,0,0,.157-.012,4.2,4.2,0,0,1,.47-.029C-2650.176-3869.744-2649.736-3869.653-2649.29-3869.632Zm3.395-6.188v5.471a.912.912,0,0,0,.034.312.284.284,0,0,0,.208.2c.046.013.092.023.138.033a6.571,6.571,0,0,0,2.145.153,3.873,3.873,0,0,0,.912-.176.55.55,0,0,0,.388-.505,2.308,2.308,0,0,0-.018-.519,4.4,4.4,0,0,1-.07-.816c.01-.212.014-.431.028-.646a3.262,3.262,0,0,1,.089-.637.814.814,0,0,1,.49-.561,2.884,2.884,0,0,1,.3-.109c.307-.1.623-.151.936-.217a4.429,4.429,0,0,0,2.014-.962,4.036,4.036,0,0,0,1.426-2.373,4.942,4.942,0,0,0-.166-2.4,3.31,3.31,0,0,0-.961-1.5,4.137,4.137,0,0,0-1.115-.7,4.507,4.507,0,0,0-1.719-.43c-.887-.021-1.776-.027-2.665-.028-.431,0-.861,0-1.293,0h-.347a1.021,1.021,0,0,0-.249.031.6.6,0,0,0-.46.43,1.573,1.573,0,0,0-.063.467c0,.583.01,1.168.014,1.751.008,1.244,0,2.491,0,3.737Zm-15.488,2.51a.64.64,0,0,0-.291.436c-.023.087-.041.175-.06.262a5.2,5.2,0,0,0-.136,1.345,1.391,1.391,0,0,0,.979,1.332,4,4,0,0,0,.94.192,10.716,10.716,0,0,0,1.134.04c.235,0,.472,0,.707.01a5.349,5.349,0,0,0,1.255-.112,6.347,6.347,0,0,0,2.009-.718,3.213,3.213,0,0,0,1.487-1.775,4.28,4.28,0,0,0,.213-1.74,3.186,3.186,0,0,0-.389-1.3,3.918,3.918,0,0,0-1.377-1.382,11.123,11.123,0,0,0-1.26-.653c-.363-.168-.726-.333-1.076-.53a1.2,1.2,0,0,1-.348-.266.5.5,0,0,1-.12-.4.5.5,0,0,1,.23-.353,1.248,1.248,0,0,1,.271-.126,2.735,2.735,0,0,1,1.487-.1c.341.066.674.163,1.011.245a1.431,1.431,0,0,0,.437.05.354.354,0,0,0,.336-.242,1.028,1.028,0,0,0,.063-.291c.04-.5.036-1.009.032-1.514a2.955,2.955,0,0,0-.039-.425,1.073,1.073,0,0,0-.906-.978,5.5,5.5,0,0,0-.561-.088c-.374-.038-.752-.03-1.131-.036-.042,0-.084-.008-.126-.01a6.075,6.075,0,0,0-2.526.355,4.6,4.6,0,0,0-1.812,1.226,3.1,3.1,0,0,0-.735,1.359,4.009,4.009,0,0,0-.091,1.018,3.325,3.325,0,0,0,.946,2.292,5.613,5.613,0,0,0,1.842,1.242c.432.192.866.381,1.3.572a1.3,1.3,0,0,1,.3.172.512.512,0,0,1,.218.434.516.516,0,0,1-.24.422,1.065,1.065,0,0,1-.517.173c-.195.022-.389.027-.583.041a6.511,6.511,0,0,1-1.71-.1c-.217-.04-.43-.1-.647-.142a.636.636,0,0,0-.175-.024A.639.639,0,0,0-2661.383-3873.31Zm15.479-2.51h0Zm-6,9.775a.252.252,0,0,1-.037-.181.4.4,0,0,1,.234-.325l-.1.489c0,.021-.009.043-.034.048h-.012A.062.062,0,0,1-2651.9-3866.046Zm.2-.509,0,0h0Zm9.977-10.166a.419.419,0,0,1-.31-.14.42.42,0,0,1-.105-.323,2.529,2.529,0,0,1,.021-.394.886.886,0,0,0-.016-.375.277.277,0,0,1-.017-.123,4.609,4.609,0,0,0,.018-.519,1.506,1.506,0,0,1,.053-.373.442.442,0,0,1,.4-.334,1,1,0,0,1,1.062.618,1.265,1.265,0,0,1,.1.49,2.064,2.064,0,0,1-.213.962.928.928,0,0,1-.835.523A.889.889,0,0,1-2641.726-3876.72Z" transform="translate(2671.679 3893.664)" fill="rgba(0,0,0,0.18)"/>
  </g>
</svg>
