<?xml version="1.0" encoding="utf-8"?>
<svg xmlns="http://www.w3.org/2000/svg" width="85.731" height="18.011" viewBox="0 0 85.731 18.011">
  <g id="teamleader" transform="translate(-0.5 -60.725)">
    <path id="Union_5" data-name="Union 5" d="M-2530.937-3840.039a4.133,4.133,0,0,1,.287-3.384,3.2,3.2,0,0,1,3.564-1.471,3.024,3.024,0,0,1,2.338,2.622c.169,1.469.169,1.469-1.316,1.469h-.89v0c-.572,0-1.145-.013-1.716,0-.521.014-.644.219-.44.681a1.461,1.461,0,0,0,2.25.485,1.165,1.165,0,0,1,1.445.363c.285.392-.124.573-.329.756a2.95,2.95,0,0,1-1.988.745A3.408,3.408,0,0,1-2530.937-3840.039Zm3.021-3.446a1.306,1.306,0,0,0-1.267.792c-.192.4-.077.6.386.575.185-.011.371-.009.556-.006l.27,0c.3,0,.593-.007.89,0,.517.013.576-.255.4-.652a1.2,1.2,0,0,0-1.222-.712Zm-29.825,5.538a3.016,3.016,0,0,1-2.241-2.37,4.107,4.107,0,0,1,.252-2.854,3.181,3.181,0,0,1,3.969-1.646,3.3,3.3,0,0,1,2.124,3.59.448.448,0,0,1-.522.419c-.594,0-1.187,0-1.78,0v.006c-.572,0-1.145-.012-1.716,0-.545.014-.634.175-.408.672a1.42,1.42,0,0,0,2.238.5c.31-.272,1.482.09,1.556.487.042.223-.143.341-.272.472a2.849,2.849,0,0,1-2.113.857A4.84,4.84,0,0,1-2557.74-3837.947Zm1.745-4.17c.486.035.53-.2.4-.583a1.075,1.075,0,0,0-1.044-.777,1.3,1.3,0,0,0-1.4.649c-.263.5-.166.689.4.705.275.009.55,0,.825,0,.17,0,.341-.006.511-.006C-2556.2-3842.128-2556.1-3842.125-2556-3842.118Zm46.591,2.371a4.169,4.169,0,0,1,.1-3.51,3.2,3.2,0,0,1,4.014-1.532,3.331,3.331,0,0,1,2.027,3.591c-.067.34-.279.389-.549.39-.594,0-1.187,0-1.78,0v.006c-.572,0-1.144.007-1.715,0-.511-.008-.572.23-.395.645a1.412,1.412,0,0,0,2.269.5c.163-.146.292-.341.531-.174.34.237.827.293,1,.718.075.182-.159.324-.285.462a3.044,3.044,0,0,1-2.207.834A3.136,3.136,0,0,1-2509.4-3839.747Zm1.7-3.03c-.226.486-.137.635.413.653.273.01.547,0,.821,0,.295,0,.59-.008.884,0,.412.013.528-.147.382-.541a1.135,1.135,0,0,0-1.08-.818c-.062,0-.124-.006-.185-.006A1.214,1.214,0,0,0-2507.7-3842.777Zm-44.4,4.517a1.969,1.969,0,0,1-.909-1.85,2.079,2.079,0,0,1,1.307-1.811,8,8,0,0,1,2.367-.4c.287-.044.621,0,.629-.449a.728.728,0,0,0-.592-.79,1.319,1.319,0,0,0-1.575.592,1.967,1.967,0,0,1-1.646.192c-.176-.154-.121-.347-.063-.529a2.2,2.2,0,0,1,1.521-1.5,4.388,4.388,0,0,1,2.507-.051,2.181,2.181,0,0,1,1.658,2.089c.03.464,0,.932,0,1.4h.013c0,.4,0,.806,0,1.208,0,.325.014.594.385.782.4.2.216.64.208.983-.007.308-.249.426-.511.481a1.258,1.258,0,0,1-1.341-.354c-.266-.334-.427-.239-.711-.034a2.846,2.846,0,0,1-1.649.48A2.931,2.931,0,0,1-2552.1-3838.26Zm2.875-2.612c-.377.053-.762.044-1.14.1-.477.07-.89.271-.823.844.062.538.491.629.947.628a1.444,1.444,0,0,0,1.492-.96c.086-.347.068-.623-.323-.623A1.128,1.128,0,0,0-2549.226-3840.872Zm32.322,1.031a4.6,4.6,0,0,1,.142-3.467,2.874,2.874,0,0,1,3.7-1.473c.492.167.641.106.6-.421-.034-.484.036-.977-.016-1.458a1.247,1.247,0,0,1,.815-1.388c1.045-.53,1.027-.568,1.027.6v4.189c0,1.46.007,2.92-.007,4.38,0,.3.147.731-.251.828-.429.1-.953.241-1.317-.134-.218-.224-.328-.149-.525-.044a3.175,3.175,0,0,1-1.5.392A2.821,2.821,0,0,1-2516.9-3839.84Zm1.868-2.878a2.957,2.957,0,0,0-.286,1.418,2.961,2.961,0,0,0,.345,1.326,1.327,1.327,0,0,0,2.3-.057,3.129,3.129,0,0,0,.06-2.638,1.239,1.239,0,0,0-1.194-.788h-.067A1.235,1.235,0,0,0-2515.036-3842.719Zm-8.035,4.551a1.94,1.94,0,0,1-1.185-1.877,2,2,0,0,1,1.213-1.86,8.341,8.341,0,0,1,2.487-.418c.268-.043.575-.011.6-.412a.723.723,0,0,0-.494-.794,1.332,1.332,0,0,0-1.634.549,1.973,1.973,0,0,1-1.695.2c-.145-.143-.088-.312-.045-.475a2.15,2.15,0,0,1,1.48-1.529,4.315,4.315,0,0,1,2.564-.058,2.156,2.156,0,0,1,1.641,2.092c.028.463,0,.931,0,1.4h.011c0,.4,0,.8,0,1.207a.723.723,0,0,0,.386.779c.413.221.224.684.2,1.044s-.342.4-.617.422a1.355,1.355,0,0,1-1.269-.426c-.221-.278-.378-.2-.627-.038a2.925,2.925,0,0,1-1.647.528A3.232,3.232,0,0,1-2523.07-3838.168Zm2.763-2.722c-.419.042-.842.057-1.259.112-.474.063-.9.256-.857.814a.716.716,0,0,0,.811.663c1.026-.015,1.559-.43,1.689-1.146.057-.309-.018-.448-.287-.448C-2520.24-3840.9-2520.273-3840.894-2520.307-3840.89Zm-14.009,1.092c-.029-1.546-.009-3.094-.009-4.64,0-.763.037-1.529-.013-2.288a1.1,1.1,0,0,1,.736-1.243c.344-.135.657-.613.992-.416.283.165.1.669.106,1.021.016,1.081.006,2.161.006,3.242,0,1.25.006,2.5,0,3.75,0,.443.055.78.609.854.586.078.333.585.375.924a.544.544,0,0,1-.5.673,2.293,2.293,0,0,1-.455.047A1.828,1.828,0,0,1-2534.316-3839.8Zm-1.942,1.835c-1.109-.013-1.109.014-1.111-1.126,0-1.081,0-2.161-.006-3.242,0-.475-.1-.9-.655-1.016a1.112,1.112,0,0,0-1.281.591,2.091,2.091,0,0,0-.229,1.106c0,1-.023,1.992,0,2.988.016.7-.383.692-.8.688-.082,0-.166,0-.246,0-.5.028-.8-.073-.785-.682.035-1.1.02-2.2,0-3.306-.016-1-.323-1.443-.965-1.445a1.337,1.337,0,0,0-1.244,1.436c-.043,1.079-.056,2.162-.013,3.241.029.724-.354.776-.911.762-.522-.012-.97.017-.928-.74.051-.908.012-1.822.012-2.733,0-.889,0-1.78,0-2.669,0-.308-.072-.707.391-.731.409-.021.936-.256,1.158.323.116.3.2.217.394.1a2.512,2.512,0,0,1,3.351.172c.255.206.356.079.517-.073a2.313,2.313,0,0,1,1.552-.631,2.142,2.142,0,0,1,2.493,2.348c.013,1.292-.013,2.586.012,3.878.01.52-.13.762-.69.762Zm35.112-.011a2.525,2.525,0,0,0-.254,0c-.891,0-.9,0-.9-.87s0-1.737,0-2.6c0-.89,0-1.779,0-2.669,0-.261-.067-.629.33-.64.413-.011.953-.269,1.21.224.207.4.331.231.558.086a2.834,2.834,0,0,1,.682-.329c.4-.122.886-.3,1.213.015s.124.844.138,1.278c.009.259-.192.271-.4.288-1.5.125-1.9.566-1.906,2.086,0,.826-.016,1.652,0,2.478.01.448-.155.666-.551.666A1.286,1.286,0,0,1-2501.145-3837.973Zm-61.523,0c-.516,0-.954.034-.938-.729.039-2.033,0-4.069.02-6.1.006-.512-.147-.729-.685-.706-.7.03-1.4-.006-2.1-.014v-1.653c2.288-.01,4.577-.016,6.865-.034.422,0,.535.2.55.589.041,1.094.029,1.12-1.038,1.121-1.76,0-1.76,0-1.76,1.772,0,1.675-.031,3.349.014,5.023.019.692-.337.735-.8.735Zm70.447-5.83q-1.328-2.024-2.635-4.063c-.089-.137-.263-.279-.182-.449s.235-.149.386-.138c.042,0,.083.007.122.007.493,0,.988,0,1.482,0h.913c.281,0,.512.042.511.4,0,1.581,0,3.162-.009,4.741,0,.044-.035.089-.073.182A1.871,1.871,0,0,1-2492.222-3843.8Zm1.65-.058c-.165-.1-.109-.309-.109-.473q-.006-2.5,0-5c0-1.649,0-3.3,0-4.948,0-.144-.064-.355.107-.41s.224.167.3.283c1.489,2.3,2.965,4.6,4.466,6.892.245.374.208.569-.168.808-1.392.883-2.766,1.8-4.149,2.694-.1.066-.208.189-.333.189A.211.211,0,0,1-2490.572-3843.856Zm5.477-4.343q-.53-.8-1.047-1.614c-.127-.2-.071-.335.171-.335,1.388-.006,2.778,0,4.165,0l.068.2c-.974.634-1.947,1.27-2.925,1.9a.284.284,0,0,1-.153.049A.36.36,0,0,1-2485.1-3848.2Zm-7-1.19c-2.5-.008-5,0-7.5-.009a1.237,1.237,0,0,1-.229-.061,4.5,4.5,0,0,1,1.1-.8c2.184-1.446,4.381-2.873,6.577-4.3.135-.087.272-.281.441-.184s.082.311.082.474c0,1.446,0,2.893.006,4.339,0,.34-.076.548-.47.548Z" transform="translate(2567.369 3916.003)" fill="rgba(0,0,0,0.18)" stroke="rgba(0,0,0,0)" stroke-miterlimit="10" stroke-width="1"/>
  </g>
</svg>
