<?xml version="1.0" encoding="utf-8"?>
<svg xmlns="http://www.w3.org/2000/svg" width="92.724" height="22.049" viewBox="0 0 92.724 22.049">
  <g id="Group_36" data-name="Group 36" transform="translate(0)">
    <path id="Path_64" data-name="Path 64" d="M339.642,1233.646a9.7,9.7,0,0,1-4.084-.751,4.864,4.864,0,0,1,.043-8.881,10.549,10.549,0,0,1,5.041-.7,9.091,9.091,0,0,1,2.892.626,4.873,4.873,0,0,1-.009,9.048A10.247,10.247,0,0,1,339.642,1233.646Zm-.016-2.408a6.574,6.574,0,0,0,1.636-.174,2.466,2.466,0,0,0,2.021-2.491,2.433,2.433,0,0,0-1.913-2.674,6.317,6.317,0,0,0-3.581.037,2.682,2.682,0,0,0,.029,5.061,5.893,5.893,0,0,0,1.81.245Z" transform="translate(-294.166 -1215.706)" fill="rgba(0,0,0,0.18)"/>
    <path id="Path_66" data-name="Path 66" d="M161.849,1185.7c2.3,0,4.6.008,6.909-.009.334,0,.414.095.4.412a15.039,15.039,0,0,0,0,1.653c.021.346-.106.4-.414.4-1.568-.015-3.136-.009-4.7-.006-.588,0-.515-.076-.515.5q0,4.832.006,9.664c0,.3-.062.414-.382.36a5.7,5.7,0,0,1-2.365-.838,2.775,2.775,0,0,1-1.233-2.446q.011-3.381,0-6.761c0-.544.065-.475-.459-.476-1.409,0-2.817-.009-4.226.006-.277,0-.354-.071-.346-.348.022-.587.022-1.177,0-1.763-.011-.276.071-.349.344-.347C157.2,1185.7,159.521,1185.7,161.849,1185.7Z" transform="translate(-129.078 -1180.882)" fill="rgba(0,0,0,0.18)"/>
    <path id="Path_67" data-name="Path 67" d="M705.423,1235.037c-.4,0-.809-.016-1.212.006-.275.015-.41-.046-.465-.351a8.04,8.04,0,0,0-.5-1.531.348.348,0,0,0-.378-.257q-3.324.012-6.649,0a.348.348,0,0,0-.378.257,9.318,9.318,0,0,0-.515,1.6c-.042.209-.12.283-.335.278q-1.359-.017-2.718,0c-.254,0-.264-.067-.218-.294a11.61,11.61,0,0,1,1.558-3.737,26.626,26.626,0,0,1,4.565-5.533,2.237,2.237,0,0,1,2.7-.024,22.947,22.947,0,0,1,5.722,7.817,10.943,10.943,0,0,1,.446,1.51c.063.247-.036.262-.23.259C706.354,1235.031,705.889,1235.037,705.423,1235.037Zm-8.292-4.225h4.834a15.5,15.5,0,0,0-1.679-2.173c-.236-.258-.44-.7-.751-.693-.283.006-.492.435-.722.687A16.1,16.1,0,0,0,697.131,1230.813Z" transform="translate(-627.089 -1217.318)" fill="rgba(0,0,0,0.18)"/>
    <g id="Group_36-2" data-name="Group 36" transform="translate(0 0)">
      <path id="Path_61" data-name="Path 61" d="M223.894,482.336a12.785,12.785,0,0,0,1.314,1.346,17.186,17.186,0,0,0,6.919,3.728c.064.018.119.035.17-.034.191-.259.392-.512.56-.788a14.523,14.523,0,0,0,1.091-1.871,22.426,22.426,0,0,0,1.166-2.7,26.668,26.668,0,0,0,1.163-4.184c.044-.231.077-.463.114-.695a.319.319,0,0,1,.053.013,16.386,16.386,0,0,1,3.215,1.835,8.191,8.191,0,0,1,1.224,1.089,19.423,19.423,0,0,1-1.014,3.462c-.283.672-.582,1.333-.928,1.975-.3.556-.638,1.089-.982,1.618-.242.323-.473.654-.753.987a12.494,12.494,0,0,0,3.48-.511c-.2.175-.38.331-.561.479s-.366.3-.555.435a10.62,10.62,0,0,1-4.321,1.942c-.271.053-.545.087-.818.126a.49.49,0,0,0-.182.057,8.811,8.811,0,0,1-3.126,1.123,6.327,6.327,0,0,1-4.754-1.017,4.356,4.356,0,0,1-1.572-1.989c-.008-.021-.017-.043-.023-.065a.213.213,0,0,1,0-.05,3.542,3.542,0,0,0,1.872,1.309,4.154,4.154,0,0,0,2.309.016c-.257-.1-.48-.179-.7-.268a11.16,11.16,0,0,1-4.206-2.853,7.618,7.618,0,0,1-1.882-4.019,6.392,6.392,0,0,1,.059-2.565,3.566,3.566,0,0,1,.738-1.482c.033-.038.051-.1.121-.091a3.068,3.068,0,0,0-.2.392,2.345,2.345,0,0,0,.047,1.711A4.664,4.664,0,0,0,223.894,482.336Z" transform="translate(-222.07 -469.83)" fill="rgba(0,0,0,0.18)"/>
      <path id="Path_62" data-name="Path 62" d="M258.417,288.716c.345-.528.683-1.063.982-1.618a21.781,21.781,0,0,0,.928-1.975,2.786,2.786,0,0,0,.609-.283,6.135,6.135,0,0,0,1.61-1.192c.04-.043.081-.076.049-.153a5.613,5.613,0,0,0-1.253-1.831,8.189,8.189,0,0,0-1.224-1.089,16.39,16.39,0,0,0-3.215-1.835.322.322,0,0,0-.053-.013,13.02,13.02,0,0,0-1.527-.6,22.69,22.69,0,0,0-3.278-.825,18.179,18.179,0,0,0-3.909-.278,9.177,9.177,0,0,0-3.163.652,3.959,3.959,0,0,0-1.8,1.417c-.013.018-.016.058-.065.042a10.077,10.077,0,0,1,1.164-2.088,8.93,8.93,0,0,1,4.463-3.27,12.809,12.809,0,0,1,4.8-.684,13.584,13.584,0,0,1,2.312.31.312.312,0,0,0,.149.015h0c0,.018.01.018.022.021.187.049.374.095.56.146a11.72,11.72,0,0,1,4.376,2.149c.023.019.042.052.081.039h0c-.008.023.01.03.025.04a10.664,10.664,0,0,1,1.162,1.183,8.588,8.588,0,0,1,1.275,8.669,5.77,5.77,0,0,1-.678,1.184,3.73,3.73,0,0,1-1.458,1.2A8.141,8.141,0,0,1,258.417,288.716Z" transform="translate(-242.528 -271.414)" fill="rgba(0,0,0,0.18)"/>
      <path id="Path_63" data-name="Path 63" d="M247.647,475.047a4.664,4.664,0,0,1-.96-1.536,2.345,2.345,0,0,1-.047-1.711,3.073,3.073,0,0,1,.2-.392h0l.036-.043,0-.007a.065.065,0,0,0,.016-.018,2.894,2.894,0,0,1,.957-.708,8.234,8.234,0,0,1,2.65-.826,15,15,0,0,1,6.269.422c.186.05.369.108.553.171-.322.034-.642.064-.962.114a18.2,18.2,0,0,0-2.746.674,16.7,16.7,0,0,0-3.834,1.717,6.062,6.062,0,0,0-1.814,1.619C247.852,474.689,247.754,474.871,247.647,475.047Z" transform="translate(-245.823 -462.541)" fill="rgba(0,0,0,0.18)"/>
      <path id="Path_65" data-name="Path 65" d="M546.869,217.457c-.04.013-.058-.02-.081-.039a11.721,11.721,0,0,0-4.376-2.149c-.186-.051-.373-.1-.56-.146l-.022-.021h0a2.864,2.864,0,0,0-.921-.8,3.9,3.9,0,0,0-2.228-.514,7.3,7.3,0,0,0-1.6.283,1.769,1.769,0,0,1,.429-.3,5.365,5.365,0,0,1,2.131-.625,7.49,7.49,0,0,1,3.719.553,6.261,6.261,0,0,1,3.5,3.694A.334.334,0,0,1,546.869,217.457Z" transform="translate(-528.36 -213.103)" fill="rgba(0,0,0,0.18)"/>
      <path id="Path_68" data-name="Path 68" d="M358.368,670a14.522,14.522,0,0,1-1.091,1.871,16.531,16.531,0,0,1-3.056-1.193,18.151,18.151,0,0,1-4-2.8l-.193-.179A21.66,21.66,0,0,0,358.368,670Z" transform="translate(-346.491 -655.113)" fill="rgba(0,0,0,0.18)"/>
    </g>
    <path id="Path_69" data-name="Path 69" d="M539.821,1226.4c1.9,0,3.8.006,5.692-.007.278,0,.358.074.348.348-.021.526-.018,1.053,0,1.579.009.259-.075.332-.332.329-1.163-.013-2.326.006-3.489-.014-.315-.005-.382.1-.38.393.013,2.069.007,4.137.006,6.207,0,.591-.158.824-.716.992a3.808,3.808,0,0,1-2.311-.014.826.826,0,0,1-.673-.953c0-2.081-.006-4.162.008-6.244,0-.307-.077-.388-.383-.383-1.162.018-2.326,0-3.489.013-.262,0-.334-.079-.325-.333.018-.526.022-1.053,0-1.579-.013-.283.083-.345.354-.343C536.025,1226.4,537.923,1226.4,539.821,1226.4Z" transform="translate(-480.457 -1218.59)" fill="rgba(0,0,0,0.18)"/>
    <path id="Path_70" data-name="Path 70" d="M924.492,1234.562a26.072,26.072,0,0,1-4.653-.213,3.622,3.622,0,0,1-3.3-3.8c-.042-1.7-.011-3.4-.02-5.107a.674.674,0,0,1,.468-.675,3.438,3.438,0,0,1,2.577-.01.743.743,0,0,1,.5.775c-.012,1.494-.006,2.989,0,4.483,0,.184,0,.368.016.551.106,1.048.713,1.6,1.935,1.641,1.3.048,2.6.028,3.9.036.539,0,1.078.008,1.616,0,.207-.005.278.059.273.27-.013.6-.015,1.2,0,1.8,0,.222-.084.259-.28.258C926.5,1234.557,925.5,1234.562,924.492,1234.562Z" transform="translate(-835.065 -1216.851)" fill="rgba(0,0,0,0.18)"/>
  </g>
</svg>
