<?xml version="1.0" encoding="utf-8"?>
<svg xmlns="http://www.w3.org/2000/svg" width="49.53" height="32.59" viewBox="0 0 49.53 32.59">
  <g id="wdp" transform="translate(0 0)">
    <path id="Union_4" data-name="Union 4" d="M-2718.555-3914.752c-1.132-.011-2.266-.021-3.4,0-.417.008-.549-.163-.548-.563q.016-4.084,0-8.168c0-.465.19-.567.6-.562,1.558.015,3.117.006,4.675.006l-.006.014c1.52,0,3.039-.016,4.557,0a5.973,5.973,0,0,1,2.507.616,3.385,3.385,0,0,1,1.983,2.693,5.748,5.748,0,0,1-.4,3.692c-.853,1.564-2.341,2.024-3.967,2.15-1.347.1-2.7.129-4.044.129C-2717.246-3914.74-2717.9-3914.746-2718.555-3914.752Zm.524-6.465c.011.789-.009,1.578.009,2.366.012.527-.227,1.2.1,1.545.231.241.6.2.959.156a2.267,2.267,0,0,1,.555-.022,11.048,11.048,0,0,0,2.013-.132,2,2,0,0,0,1.686-2.267,1.993,1.993,0,0,0-1.776-2.021,27.311,27.311,0,0,0-3.129-.1h-.035C-2717.976-3921.693-2718.035-3921.511-2718.031-3921.218Zm-13.779,5.812c-.311-.992-.587-2-.878-3-.113-.385-.236-.77-.354-1.153-.254.071-.236.25-.283.4-.386,1.28-.792,2.55-1.156,3.84a.672.672,0,0,1-.751.574q-1.627-.021-3.254,0a.637.637,0,0,1-.7-.484c-.674-1.969-1.364-3.931-2.055-5.894-.293-.833-.592-1.665-.92-2.487-.124-.31-.018-.409.26-.41q1.835-.01,3.668,0c.387,0,.4.336.465.587.366,1.448.718,2.9,1.078,4.35a2.611,2.611,0,0,0,.132.306,5.788,5.788,0,0,0,.619-1.732c.323-.992.589-2,.858-3a.619.619,0,0,1,.252-.413.62.62,0,0,1,.473-.1c.807.025,1.619.04,2.425-.008a.692.692,0,0,1,.82.62c.367,1.367.763,2.726,1.157,4.086.048.148.053.349.326.469.3-1.151.593-2.267.88-3.382.122-.476.24-.954.34-1.436a.371.371,0,0,1,.127-.258.373.373,0,0,1,.271-.093c1.224,0,2.447-.005,3.669,0,.267,0,.378.071.26.4q-1.508,4.183-2.968,8.385a.637.637,0,0,1-.7.5c-1.125,0-2.249-.022-3.372.009h-.028C-2731.624-3914.742-2731.712-3915.09-2731.81-3915.405Zm25.7.108c0-.472.049-.945.045-1.417-.014-2.246.063-4.494-.055-6.738-.025-.483.149-.6.611-.594,1.577.027,3.155.011,4.733.011v.009c1.577,0,3.155-.021,4.733.009a4.048,4.048,0,0,1,2.277.715,2.386,2.386,0,0,1,1.072,1.935c.114,2.171-.651,3.148-2.8,3.574a17.391,17.391,0,0,1-3.914.181c-.523-.016-1.046-.031-1.568-.027-.479,0-.638.122-.618.59.028.571,0,1.144.01,1.715.007.4-.161.581-.567.578-1.144-.008-2.289-.013-3.433,0h-.016C-2705.988-3914.752-2706.117-3914.962-2706.114-3915.3Zm4.58-6.5a.365.365,0,0,0-.129.284c-.188,1.469-.107,1.572,1.356,1.572h.54c.173-.013.367-.011.573-.009a6.447,6.447,0,0,0,1.011-.046c.535-.08.895-.283.894-.883,0-.518-.316-.846-.935-.938a23.6,23.6,0,0,0-3.008-.066.369.369,0,0,0-.061,0A.367.367,0,0,0-2701.534-3921.8Zm-16.564-8.444c-2.652-.935-5.312-1.855-7.967-2.78l-9.863-3.435-5.627-1.957a3.789,3.789,0,0,1-.383-.152c-.087-.044-.181-.1-.168-.221s.127-.12.219-.153q4.433-1.523,8.864-3.05c.8-.274,1.606-.527,2.408-.79a.512.512,0,0,1,.427.062.513.513,0,0,0-.43-.063,10.819,10.819,0,0,1,2.373-.9c1.935-.7,3.887-1.354,5.833-2.026,1.519-.523,3.042-1.037,4.554-1.58.379-.137.655.085.951.186,2.524.85,5.04,1.734,7.559,2.6q1.889.654,3.781,1.3a.369.369,0,0,1,.227.238l-1.556.542q-5.225,1.823-10.45,3.652a.776.776,0,0,1-.562,0c-3.852-1.346-7.708-2.68-11.559-4.031-.345-.121-.469-.074-.461.3.017.729.016,1.458.022,2.184l0,0,.419.132a.308.308,0,0,0,.182.205.308.308,0,0,0,.274-.022l.274.076a5.72,5.72,0,0,0,1.818.661l.411.123c.05.155.161.15.273.146a.723.723,0,0,1,.1,0,3,3,0,0,1,.678.173c2.5.88,5,1.741,7.51,2.614a.96.96,0,0,0,.68-.015c1.331-.474,2.668-.926,4-1.39,2.539-.883,5.077-1.77,7.619-2.645a.436.436,0,0,0,.354-.468c-.011-.742-.019-1.484-.028-2.227a9.071,9.071,0,0,1,2.24.68q4.656,1.617,9.3,3.266a.73.73,0,0,0,.225.022c.173,0,.346,0,.337.224-.012.276-.376.283-.614.368-2.953,1.033-5.9,2.077-8.854,3.1-3.435,1.195-6.875,2.374-10.313,3.564q-2.116.733-4.227,1.482a1.2,1.2,0,0,1-.412.073A1.2,1.2,0,0,1-2718.1-3930.243Zm12.76-12.7,0-.014s0,.01,0,.014Zm0-.013h0v.013Z" transform="translate(2742.214 3947.33)" fill="rgba(0,0,0,0.18)"/>
  </g>
</svg>
