<?xml version="1.0" encoding="utf-8"?>
<svg xmlns="http://www.w3.org/2000/svg" xmlns:xlink="http://www.w3.org/1999/xlink" width="211.384" height="29.832" viewBox="0 0 211.384 29.832">
  <defs>
    <linearGradient id="linear-gradient" x1="0.5" x2="0.5" y2="1" gradientUnits="objectBoundingBox">
      <stop offset="0" stop-color="#6ee2f5"/>
      <stop offset="1" stop-color="#6454f0"/>
    </linearGradient>
  </defs>
  <g id="logo_gradient" data-name="logo gradient" transform="translate(-6036 -5223)">
    <g id="GROWTH_AGENCY-2" data-name="GROWTH AGENCY-2" transform="translate(6036 5168)">
      <g id="Group_1341" data-name="Group 1341">
        <path id="Path_1477" data-name="Path 1477" d="M54.6,68.934h5.608v.448a9.272,9.272,0,0,1-.36,2.707,5.765,5.765,0,0,1-1.187,2.039,6.147,6.147,0,0,1-4.808,2.127A6.611,6.611,0,0,1,48.979,74.2a7.084,7.084,0,0,1,8.034-11.382,8.561,8.561,0,0,1,2.592,2.11l-1.459,1.4A4.95,4.95,0,0,0,54.077,64.1a4.863,4.863,0,0,0-3.612,1.485,4.958,4.958,0,0,0-1.459,3.656,5.1,5.1,0,0,0,4.922,5.1,4.091,4.091,0,0,0,2.716-1.02,3.625,3.625,0,0,0,1.344-2.461H54.6Z" fill="#627ee2"/>
        <path id="Path_1478" data-name="Path 1478" d="M67.384,70.217,71.585,76h-2.5L65.2,70.445h-.369V76H62.787V62.43h2.4a6,6,0,0,1,3.884,1.01,3.715,3.715,0,0,1,1.319,2.971,3.857,3.857,0,0,1-.827,2.479A3.684,3.684,0,0,1,67.384,70.217Zm-2.549-1.556h.65q2.91,0,2.91-2.223,0-2.083-2.831-2.084h-.729Z" fill="#627ee2"/>
        <path id="Path_1479" data-name="Path 1479" d="M72.64,69.153a6.649,6.649,0,0,1,2.1-4.922,6.916,6.916,0,0,1,5.028-2.056,7.1,7.1,0,0,1,7.057,7.057A6.67,6.67,0,0,1,84.733,74.2a7.171,7.171,0,0,1-9.791.229A6.669,6.669,0,0,1,72.64,69.153Zm2.065.027a4.9,4.9,0,0,0,1.512,3.7,5.008,5.008,0,0,0,7.075-.026,5.268,5.268,0,0,0,.018-7.278,5.063,5.063,0,0,0-7.146,0A4.9,4.9,0,0,0,74.705,69.18Z" fill="#627ee2"/>
        <path id="Path_1480" data-name="Path 1480" d="M89.488,62.43l3.533,9.07,3.692-9.729,3.533,9.729L104,62.43h2.224l-6.065,14.431-3.489-9.615L93.03,76.87,87.265,62.43Z" fill="#627ee2"/>
        <path id="Path_1481" data-name="Path 1481" d="M112.463,64.354V76h-2.048V64.354h-3.12V62.43h8.279v1.924Z" fill="#627ee2"/>
        <path id="Path_1482" data-name="Path 1482" d="M119.45,67.738H125.3V62.43h2.048V76H125.3V69.663H119.45V76H117.4V62.43h2.048Z" fill="#627ee2"/>
        <path id="Path_1483" data-name="Path 1483" d="M144.13,72.7h-5.81L136.809,76H134.6l6.714-14.423L147.795,76h-2.241Zm-.835-1.925-2.013-4.614-2.109,4.614Z" fill="#627ee2"/>
        <path id="Path_1484" data-name="Path 1484" d="M155.854,68.934h5.608v.448a9.272,9.272,0,0,1-.36,2.707,5.765,5.765,0,0,1-1.187,2.039,6.147,6.147,0,0,1-4.808,2.127,6.611,6.611,0,0,1-4.878-2.057,7.084,7.084,0,0,1,8.034-11.382,8.561,8.561,0,0,1,2.592,2.11l-1.459,1.4a4.95,4.95,0,0,0-4.069-2.223,4.861,4.861,0,0,0-3.612,1.485,4.958,4.958,0,0,0-1.459,3.656,5.1,5.1,0,0,0,4.922,5.1,4.091,4.091,0,0,0,2.716-1.02,3.625,3.625,0,0,0,1.344-2.461h-3.384Z" fill="#627ee2"/>
        <path id="Path_1485" data-name="Path 1485" d="M171.525,64.354h-5.44v3.261h5.282V69.54h-5.282v4.535h5.44V76h-7.488V62.43h7.488Z" fill="#627ee2"/>
        <path id="Path_1486" data-name="Path 1486" d="M174.215,76V61.507l9.9,10.353V62.43h2.048v14.4l-9.9-10.327V76Z" fill="#627ee2"/>
        <path id="Path_1487" data-name="Path 1487" d="M199.562,63.159v2.426a5.677,5.677,0,0,0-3.673-1.485,4.678,4.678,0,0,0-3.525,1.5,5.065,5.065,0,0,0-1.441,3.656,4.942,4.942,0,0,0,1.441,3.6A4.76,4.76,0,0,0,195.9,74.33a4.34,4.34,0,0,0,1.837-.351,5.36,5.36,0,0,0,.875-.475,10.311,10.311,0,0,0,.953-.721v2.47a7.394,7.394,0,0,1-3.691.993,6.814,6.814,0,0,1-4.966-2.03,6.733,6.733,0,0,1-2.048-4.94,6.973,6.973,0,0,1,1.714-4.623,6.826,6.826,0,0,1,5.458-2.487A6.926,6.926,0,0,1,199.562,63.159Z" fill="#627ee2"/>
        <path id="Path_1488" data-name="Path 1488" d="M204.889,70.138l-4.43-7.708h2.355l3.1,5.423,3.111-5.423h2.356l-4.447,7.708V76h-2.048Z" fill="#627ee2"/>
      </g>
    </g>
    <g id="logo-white-small" transform="translate(6034 5219.4)">
      <path id="Path_389" data-name="Path 389" d="M28.576,3.6,22.009,15.094l1.528,2.746,5.038-8.814L40.889,30.563l-34.205.089L15.7,14.884l6.245,10.929,1.539-2.7L15.7,9.469,2,33.431l43.518-.188Z" transform="translate(0)" fill="url(#linear-gradient)"/>
      <path id="Path_390" data-name="Path 390" d="M182.1,134.126l1.606,3,5.016-8.881-1.606-2.846Z" transform="translate(-160.157 -108.313)" fill="url(#linear-gradient)"/>
    </g>
  </g>
</svg>
