<?xml version="1.0" encoding="utf-8"?>
<svg id="logo_white" data-name="logo white" xmlns="http://www.w3.org/2000/svg" width="211.384" height="29.832" viewBox="0 0 211.384 29.832">
  <g id="logo-white-small">
    <path id="Path_389" data-name="Path 389" d="M26.576,0,20.009,11.494l1.528,2.746,5.038-8.814L38.889,26.964l-34.2.089L13.7,11.284l6.245,10.929,1.539-2.7L13.7,5.869,0,29.832l43.518-.188Z" fill="#fff"/>
    <path id="Path_390" data-name="Path 390" d="M19.943,22.213l1.606,3,5.016-8.881-1.606-2.846Z" fill="#fff"/>
  </g>
  <g id="GROWTH_AGENCY" data-name="GROWTH AGENCY">
    <g id="Group_1340" data-name="Group 1340">
      <path id="Path_1465" data-name="Path 1465" d="M54.6,13.934h5.608v.448a9.272,9.272,0,0,1-.36,2.707,5.765,5.765,0,0,1-1.187,2.039,6.147,6.147,0,0,1-4.808,2.127A6.611,6.611,0,0,1,48.979,19.2a6.821,6.821,0,0,1-2.03-4.957,7.052,7.052,0,0,1,7.093-7.075,6.888,6.888,0,0,1,2.971.65A8.561,8.561,0,0,1,59.6,9.926l-1.459,1.4A4.95,4.95,0,0,0,54.077,9.1a4.863,4.863,0,0,0-3.612,1.485,4.958,4.958,0,0,0-1.459,3.656,5.1,5.1,0,0,0,4.922,5.1,4.091,4.091,0,0,0,2.716-1.02,3.625,3.625,0,0,0,1.344-2.461H54.6Z" fill="#fff"/>
      <path id="Path_1466" data-name="Path 1466" d="M67.384,15.217,71.585,21h-2.5L65.2,15.445h-.369V21H62.787V7.43h2.4a6,6,0,0,1,3.884,1.01,3.715,3.715,0,0,1,1.319,2.971,3.857,3.857,0,0,1-.827,2.479A3.684,3.684,0,0,1,67.384,15.217Zm-2.549-1.556h.65q2.91,0,2.91-2.223,0-2.083-2.831-2.084h-.729Z" fill="#fff"/>
      <path id="Path_1467" data-name="Path 1467" d="M72.64,14.153a6.649,6.649,0,0,1,2.1-4.922,6.916,6.916,0,0,1,5.028-2.056,6.784,6.784,0,0,1,4.974,2.074,6.78,6.78,0,0,1,2.083,4.983A6.67,6.67,0,0,1,84.733,19.2a7.171,7.171,0,0,1-9.791.229A6.669,6.669,0,0,1,72.64,14.153Zm2.065.027a4.9,4.9,0,0,0,1.512,3.7,5.008,5.008,0,0,0,7.075-.026,5,5,0,0,0,1.468-3.639,4.977,4.977,0,0,0-1.45-3.639,5.063,5.063,0,0,0-7.146,0A4.9,4.9,0,0,0,74.705,14.18Z" fill="#fff"/>
      <path id="Path_1468" data-name="Path 1468" d="M89.488,7.43l3.533,9.07,3.692-9.729,3.533,9.729L104,7.43h2.224l-6.065,14.431-3.489-9.615L93.03,21.87,87.265,7.43Z" fill="#fff"/>
      <path id="Path_1469" data-name="Path 1469" d="M112.463,9.354V21h-2.048V9.354h-3.12V7.43h8.279V9.354Z" fill="#fff"/>
      <path id="Path_1470" data-name="Path 1470" d="M119.45,12.738H125.3V7.43h2.048V21H125.3V14.663H119.45V21H117.4V7.43h2.048Z" fill="#fff"/>
      <path id="Path_1471" data-name="Path 1471" d="M144.13,17.7h-5.81L136.809,21H134.6l6.714-14.423L147.795,21h-2.241Zm-.835-1.925-2.013-4.614-2.109,4.614Z" fill="#fff"/>
      <path id="Path_1472" data-name="Path 1472" d="M155.854,13.934h5.608v.448a9.272,9.272,0,0,1-.36,2.707,5.765,5.765,0,0,1-1.187,2.039,6.147,6.147,0,0,1-4.808,2.127,6.611,6.611,0,0,1-4.878-2.057,6.821,6.821,0,0,1-2.03-4.957,7.052,7.052,0,0,1,7.093-7.075,6.888,6.888,0,0,1,2.971.65,8.561,8.561,0,0,1,2.592,2.11l-1.459,1.4A4.95,4.95,0,0,0,155.327,9.1a4.861,4.861,0,0,0-3.612,1.485,4.958,4.958,0,0,0-1.459,3.656,5.1,5.1,0,0,0,4.922,5.1,4.091,4.091,0,0,0,2.716-1.02,3.625,3.625,0,0,0,1.344-2.461h-3.384Z" fill="#fff"/>
      <path id="Path_1473" data-name="Path 1473" d="M171.525,9.354h-5.44v3.261h5.282V14.54h-5.282v4.535h5.44V21h-7.488V7.43h7.488Z" fill="#fff"/>
      <path id="Path_1474" data-name="Path 1474" d="M174.215,21V6.507l9.9,10.353V7.43h2.048v14.4l-9.9-10.327V21Z" fill="#fff"/>
      <path id="Path_1475" data-name="Path 1475" d="M199.562,8.159v2.426A5.677,5.677,0,0,0,195.889,9.1a4.678,4.678,0,0,0-3.525,1.5,5.065,5.065,0,0,0-1.441,3.656,4.942,4.942,0,0,0,1.441,3.6A4.76,4.76,0,0,0,195.9,19.33a4.341,4.341,0,0,0,1.837-.351,5.361,5.361,0,0,0,.875-.475,10.312,10.312,0,0,0,.953-.721v2.47a7.394,7.394,0,0,1-3.691.993,6.814,6.814,0,0,1-4.966-2.03,6.733,6.733,0,0,1-2.048-4.94,6.973,6.973,0,0,1,1.714-4.623,6.826,6.826,0,0,1,5.458-2.487A6.926,6.926,0,0,1,199.562,8.159Z" fill="#fff"/>
      <path id="Path_1476" data-name="Path 1476" d="M204.889,15.138l-4.43-7.708h2.355l3.1,5.423,3.111-5.423h2.356l-4.447,7.708V21h-2.048Z" fill="#fff"/>
    </g>
  </g>
</svg>
