<?xml version="1.0" encoding="utf-8"?>
<svg id="EA" xmlns="http://www.w3.org/2000/svg" width="98" height="98" viewBox="0 0 98 98">
  <circle id="Ellipse_6" data-name="Ellipse 6" cx="49" cy="49" r="49" fill="#6aa6e5"/>
  <g id="Group_23" data-name="Group 23" transform="translate(16 29)">
    <path id="Path_1" data-name="Path 1" d="M78.566,26.647c.96-1.331,2.95-7.021,1.961-12.441-.849-5.458-4.507-9.62-10.41-10.121A10.858,10.858,0,0,0,64,4.927c-.02.013-.079.056-.059.041a12.283,12.283,0,0,1,6.91,1.244c3.019,1.764,2.867,4.814,1.91,6.827a19.718,19.718,0,0,1-3.375,4.37,32.276,32.276,0,0,0-4.1,4.831c-.975,1.755-.983,3.671-.18,4.427,2.695,2.536,10.547,1.09,13.463-.02" transform="translate(-56.239 -4)" fill="#fff"/>
    <path id="Path_2" data-name="Path 2" d="M17.36,45.256c-.521-2.518,1.355-5.394,3.32-7.317s3.786-4.1,3.786-4.1c3.195-4.179.92-5.912.92-5.912-1.861-1.695-6.375-1.224-6.375-1.224a24.332,24.332,0,0,0-6.9,1.413c-.96,1.33-2.949,7.02-1.96,12.441.85,5.458,4.508,9.62,10.409,10.122a10.879,10.879,0,0,0,6.117-.843S18.437,50.462,17.36,45.256Z" transform="translate(-9.883 -23.422)" fill="#fff"/>
    <g id="Group_1" data-name="Group 1" transform="translate(0.558 16.481)">
      <path id="Path_3" data-name="Path 3" d="M163.685,203.4a1.226,1.226,0,0,1-1.313-1.139,1.331,1.331,0,0,1,2.637,0,1.23,1.23,0,0,1-1.324,1.139" transform="translate(-141.213 -189.521)" fill="#fff"/>
      <path id="Path_4" data-name="Path 4" d="M115.651,233.782a4.914,4.914,0,0,1-2.52-.608l.6-1.486a3.575,3.575,0,0,0,1.57.415.953.953,0,0,0,1.072-.923c0-1.254-2.943-.96-3.034-3.546a2.656,2.656,0,0,1,2.878-2.6,5.159,5.159,0,0,1,2.5.545L118.178,227a3.325,3.325,0,0,0-1.409-.4c-.729-.014-1.037.407-.991.9.1,1.057,3.144,1.01,3.144,3.618,0,1.479-1.23,2.664-3.272,2.664" transform="translate(-98.985 -210.034)" fill="#fff"/>
      <path id="Path_5" data-name="Path 5" d="M190.561,233.782a4.941,4.941,0,0,1-2.524-.608l.606-1.486a3.506,3.506,0,0,0,1.56.415.953.953,0,0,0,1.072-.923c0-1.254-2.932-.96-3.025-3.546a2.64,2.64,0,0,1,2.866-2.6,5.144,5.144,0,0,1,2.5.545l-.54,1.426a3.3,3.3,0,0,0-1.4-.4c-.732-.014-1.029.407-.984.9.091,1.057,3.133,1.01,3.133,3.618,0,1.479-1.222,2.664-3.262,2.664" transform="translate(-163.223 -210.034)" fill="#fff"/>
      <path id="Path_6" data-name="Path 6" d="M71.9,233.782a4.914,4.914,0,0,1-2.518-.608l.6-1.486a3.581,3.581,0,0,0,1.572.415.955.955,0,0,0,1.071-.923c0-1.254-2.942-.96-3.033-3.546a2.652,2.652,0,0,1,2.873-2.6,5.2,5.2,0,0,1,2.506.545L74.434,227a3.37,3.37,0,0,0-1.407-.4c-.735-.014-1.039.407-1,.9.092,1.057,3.146,1.01,3.146,3.618,0,1.479-1.23,2.664-3.272,2.664" transform="translate(-61.47 -210.034)" fill="#fff"/>
      <path id="Path_7" data-name="Path 7" d="M236.514,209.811l2.413-.625V211.6h1.449v1.586h-1.449v4.357c0,.641.232.965.767.986a2.437,2.437,0,0,0,.682-.1v1.508a4.081,4.081,0,0,1-1.361.234,2.291,2.291,0,0,1-2.5-2.445v-7.922" transform="translate(-204.797 -196.445)" fill="#fff"/>
      <path id="Path_8" data-name="Path 8" d="M273.31,233.8c-2.316,0-3.638-.908-3.638-2.665,0-2.176,2.094-2.821,4.495-3.061v-.341c0-.87-.458-1.122-1.3-1.122a6.453,6.453,0,0,0-2.18.54l-.368-1.5a7.076,7.076,0,0,1,2.982-.618c1.81,0,3.274.8,3.274,3.087v4.854a6.129,6.129,0,0,1-3.261.825m.857-4.594c-1.386.141-2.1.645-2.1,1.834a1.259,1.259,0,0,0,1.353,1.417,1.377,1.377,0,0,0,.743-.175Z" transform="translate(-233.232 -210.04)" fill="#fff"/>
      <path id="Path_9" data-name="Path 9" d="M332.57,233.649v-5.915a1.07,1.07,0,0,0-1.229-1.169,2.281,2.281,0,0,0-.8.169v6.915h-2.417v-7.894a8.21,8.21,0,0,1,3.272-.717c2.644,0,3.593,1.149,3.593,2.682v5.929H332.57" transform="translate(-283.363 -210.039)" fill="#fff"/>
      <path id="Path_10" data-name="Path 10" d="M432.443,225.037c-2.338,0-3.768,1.713-3.768,4.359,0,2.695,1.534,4.407,4.02,4.407a6.672,6.672,0,0,0,2.826-.571v-1.753a5.676,5.676,0,0,1-2.553.646c-1.186,0-1.586-.61-1.764-1.844l4.675-.729c.108-2.85-1.086-4.514-3.437-4.514m-1.384,4.048c-.075-1.745.332-2.6,1.291-2.6.857,0,1.348.654,1.348,2.163Z" transform="translate(-369.591 -210.039)" fill="#fff"/>
      <path id="Path_11" data-name="Path 11" d="M388.341,233.8c-2.208,0-3.822-1.569-3.822-4.407s1.738-4.359,3.8-4.359a3.838,3.838,0,0,1,2.27.611l-.549,1.35a1.779,1.779,0,0,0-1.106-.327c-1.163,0-1.98.966-1.98,2.7,0,1.712.9,2.695,1.962,2.695a1.68,1.68,0,0,0,1.124-.344l.567,1.479a3.914,3.914,0,0,1-2.271.608" transform="translate(-331.723 -210.039)" fill="#fff"/>
      <path id="Path_12" data-name="Path 12" d="M17.447,233.8c-2.321,0-3.644-.905-3.644-2.665,0-2.176,2.1-2.821,4.5-3.061v-.341c0-.87-.465-1.122-1.3-1.122a6.455,6.455,0,0,0-2.184.54l-.362-1.5a7.041,7.041,0,0,1,2.975-.618c1.813,0,3.285.8,3.285,3.087v4.854a6.2,6.2,0,0,1-3.269.825m.859-4.594c-1.394.141-2.1.645-2.1,1.834a1.26,1.26,0,0,0,1.358,1.417,1.4,1.4,0,0,0,.742-.175Z" transform="translate(-13.803 -210.04)" fill="#fff"/>
      <rect id="Rectangle_1" data-name="Rectangle 1" width="2.413" height="8.453" transform="translate(21.27 15.157)" fill="#fff"/>
      <path id="Path_13" data-name="Path 13" d="M333.483,119.723c-2.446,0-3.64.873-3.64,2.962v5.87h2.522V122.55c0-.625.334-1.088,1.182-1.146a3.576,3.576,0,0,1,.555.011l.294-1.634a7.2,7.2,0,0,0-.913-.058" transform="translate(-284.834 -119.723)" fill="#fff"/>
      <path id="Path_14" data-name="Path 14" d="M271.972,129.651c-2.444,0-3.644-.914-3.644-3.006l0-5.831h2.511v6.007a1.06,1.06,0,0,0,1.194,1.138,2.189,2.189,0,0,0,1.045-.206v-6.939H275.6v8.031a9.311,9.311,0,0,1-3.625.806" transform="translate(-232.08 -120.659)" fill="#fff"/>
      <path id="Path_15" data-name="Path 15" d="M365.906,128.714c-2.51,0-3.825-1.915-3.825-4.5s1.315-4.487,3.809-4.487c2.534,0,3.847,1.9,3.847,4.487s-1.313,4.5-3.831,4.5m0-7.439c-1.105,0-1.332,1.353-1.332,2.9,0,1.564.243,2.829,1.332,2.829,1.115,0,1.339-1.265,1.339-2.829,0-1.549-.224-2.9-1.339-2.9" transform="translate(-312.481 -119.722)" fill="#fff"/>
      <path id="Path_16" data-name="Path 16" d="M428.527,128.668a4.739,4.739,0,0,1-1.259-.145V131.4h-2.511V120.362a7.311,7.311,0,0,1,3.32-.639c2.593,0,4.268,1.519,4.268,4.44,0,2.782-1.567,4.5-3.817,4.5m-.481-7.473a1.994,1.994,0,0,0-.779.13v5.748a1.822,1.822,0,0,0,.657.113c1.338,0,1.931-1.043,1.931-2.993s-.479-3-1.81-3" transform="translate(-366.231 -119.723)" fill="#fff"/>
      <path id="Path_17" data-name="Path 17" d="M211.638,119.722c-2.46,0-3.931,1.745-3.931,4.472,0,2.956,1.6,4.52,4.2,4.52a7.063,7.063,0,0,0,2.923-.579v-1.8a6.013,6.013,0,0,1-2.642.658c-1.241,0-1.7-.64-1.871-1.915l4.9-.725c.118-2.937-1.127-4.631-3.575-4.631m-1.479,4.14c-.083-1.787.37-2.668,1.383-2.668.889,0,1.395.685,1.395,2.219Z" transform="translate(-180.092 -119.722)" fill="#fff"/>
    </g>
    <path id="Path_18" data-name="Path 18" d="M221.706,248.249" transform="translate(-191.539 -213.464)" fill="#fff"/>
  </g>
</svg>
