<?xml version="1.0" encoding="utf-8"?>
<svg xmlns="http://www.w3.org/2000/svg" width="77.083" height="46.403" viewBox="0 0 77.083 46.403">
  <g id="Group_34" data-name="Group 34" opacity="0.643">
    <path id="Path_1" data-name="Path 1" d="M80.8,30.112c1.107-1.534,3.4-8.1,2.261-14.344-.979-6.293-5.2-11.092-12-11.67-3.045-.325-5.832.2-7.052.971-.023.015-.091.065-.068.048a14.163,14.163,0,0,1,7.967,1.434c3.481,2.034,3.305,5.551,2.2,7.872a22.735,22.735,0,0,1-3.892,5.039,37.214,37.214,0,0,0-4.731,5.57c-1.124,2.024-1.133,4.233-.207,5.1,3.107,2.924,12.161,1.257,15.523-.023" transform="translate(-55.061 -4)" fill="#fff"/>
    <path id="Path_2" data-name="Path 2" d="M18.5,48.1c-.6-2.9,1.562-6.22,3.827-8.436S26.7,34.945,26.7,34.945c3.684-4.818,1.061-6.817,1.061-6.817-2.146-1.954-7.351-1.412-7.351-1.412a28.056,28.056,0,0,0-7.954,1.629c-1.107,1.534-3.4,8.095-2.26,14.344.979,6.293,5.2,11.092,12,11.671,3.045.324,5.832-.2,7.053-.972C29.249,53.388,19.745,54.106,18.5,48.1Z" transform="translate(-9.883 -22.928)" fill="#fff"/>
    <g id="Group_1" data-name="Group 1" transform="translate(0.644 19.002)">
      <path id="Path_3" data-name="Path 3" d="M163.886,203.752a1.414,1.414,0,0,1-1.514-1.314,1.535,1.535,0,0,1,3.041,0,1.418,1.418,0,0,1-1.526,1.314" transform="translate(-137.976 -187.747)" fill="#fff"/>
      <path id="Path_4" data-name="Path 4" d="M116.036,235.121a5.666,5.666,0,0,1-2.905-.7l.691-1.714a4.123,4.123,0,0,0,1.81.478,1.1,1.1,0,0,0,1.235-1.064c0-1.446-3.393-1.106-3.5-4.089-.057-1.657,1.332-2.965,3.319-3a5.949,5.949,0,0,1,2.88.629l-.617,1.645a3.834,3.834,0,0,0-1.624-.462c-.841-.016-1.2.469-1.143,1.033.114,1.218,3.625,1.164,3.625,4.172,0,1.7-1.418,3.072-3.772,3.072" transform="translate(-96.821 -207.739)" fill="#fff"/>
      <path id="Path_5" data-name="Path 5" d="M190.947,235.121a5.7,5.7,0,0,1-2.91-.7l.7-1.714a4.043,4.043,0,0,0,1.8.478,1.1,1.1,0,0,0,1.236-1.064c0-1.446-3.381-1.106-3.488-4.089-.071-1.657,1.321-2.965,3.3-3a5.931,5.931,0,0,1,2.886.629l-.623,1.645a3.8,3.8,0,0,0-1.619-.462c-.844-.016-1.187.469-1.135,1.033.1,1.218,3.613,1.164,3.613,4.172,0,1.7-1.409,3.072-3.762,3.072" transform="translate(-159.427 -207.739)" fill="#fff"/>
      <path id="Path_6" data-name="Path 6" d="M72.289,235.121a5.666,5.666,0,0,1-2.9-.7l.69-1.714a4.13,4.13,0,0,0,1.813.478,1.1,1.1,0,0,0,1.235-1.064c0-1.446-3.392-1.106-3.5-4.089-.058-1.657,1.328-2.965,3.312-3a6,6,0,0,1,2.889.629l-.622,1.645a3.886,3.886,0,0,0-1.623-.462c-.848-.016-1.2.469-1.149,1.033.106,1.218,3.627,1.164,3.627,4.172,0,1.7-1.418,3.072-3.773,3.072" transform="translate(-60.259 -207.739)" fill="#fff"/>
      <path id="Path_7" data-name="Path 7" d="M236.514,209.906l2.782-.72v2.785h1.671V213.8H239.3v5.024c0,.74.267,1.112.885,1.137a2.811,2.811,0,0,0,.786-.11v1.739a4.705,4.705,0,0,1-1.569.27,2.641,2.641,0,0,1-2.884-2.819v-9.134" transform="translate(-199.943 -194.495)" fill="#fff"/>
      <path id="Path_8" data-name="Path 8" d="M273.867,235.146c-2.67,0-4.195-1.047-4.195-3.072,0-2.509,2.414-3.252,5.183-3.53v-.393c0-1-.528-1.294-1.5-1.294a7.44,7.44,0,0,0-2.513.622l-.425-1.727a8.159,8.159,0,0,1,3.438-.713c2.087,0,3.775.917,3.775,3.559v5.6a7.066,7.066,0,0,1-3.76.951m.988-5.3c-1.6.162-2.416.744-2.416,2.114A1.452,1.452,0,0,0,274,233.6a1.587,1.587,0,0,0,.857-.2Z" transform="translate(-227.657 -207.745)" fill="#fff"/>
      <path id="Path_9" data-name="Path 9" d="M333.25,234.966v-6.82a1.234,1.234,0,0,0-1.417-1.348,2.629,2.629,0,0,0-.918.2v7.973h-2.786v-9.1a9.466,9.466,0,0,1,3.772-.827c3.048,0,4.143,1.325,4.143,3.092v6.836H333.25" transform="translate(-276.514 -207.744)" fill="#fff"/>
      <path id="Path_10" data-name="Path 10" d="M433.019,225.037c-2.7,0-4.344,1.975-4.344,5.026,0,3.107,1.769,5.082,4.635,5.082a7.692,7.692,0,0,0,3.259-.658v-2.021a6.544,6.544,0,0,1-2.944.745c-1.368,0-1.828-.7-2.034-2.126l5.391-.84c.124-3.286-1.252-5.205-3.963-5.205m-1.6,4.667c-.087-2.012.383-3,1.488-3,.988,0,1.554.754,1.554,2.494Z" transform="translate(-360.55 -207.744)" fill="#fff"/>
      <path id="Path_11" data-name="Path 11" d="M388.926,235.144c-2.545,0-4.407-1.809-4.407-5.082s2-5.026,4.387-5.026a4.425,4.425,0,0,1,2.618.7l-.633,1.556a2.051,2.051,0,0,0-1.275-.378c-1.341,0-2.283,1.114-2.283,3.108,0,1.974,1.04,3.107,2.262,3.107a1.938,1.938,0,0,0,1.3-.4l.654,1.705a4.513,4.513,0,0,1-2.619.7" transform="translate(-323.645 -207.744)" fill="#fff"/>
      <path id="Path_12" data-name="Path 12" d="M18,235.146c-2.676,0-4.2-1.044-4.2-3.072,0-2.509,2.416-3.252,5.192-3.53v-.393c0-1-.536-1.294-1.5-1.294a7.443,7.443,0,0,0-2.518.622l-.417-1.727a8.118,8.118,0,0,1,3.43-.713c2.09,0,3.788.917,3.788,3.559v5.6a7.143,7.143,0,0,1-3.77.951m.99-5.3c-1.607.162-2.421.744-2.421,2.114a1.452,1.452,0,0,0,1.566,1.634,1.611,1.611,0,0,0,.856-.2Z" transform="translate(-13.803 -207.745)" fill="#fff"/>
      <rect id="Rectangle_1" data-name="Rectangle 1" width="2.782" height="9.746" transform="translate(24.525 17.476)" fill="#fff"/>
      <path id="Path_13" data-name="Path 13" d="M334.04,119.723c-2.821,0-4.2,1.006-4.2,3.415v6.768h2.908v-6.924c0-.72.385-1.254,1.363-1.321a4.121,4.121,0,0,1,.64.013l.339-1.884a8.3,8.3,0,0,0-1.053-.067" transform="translate(-277.947 -119.723)" fill="#fff"/>
      <path id="Path_14" data-name="Path 14" d="M272.53,131c-2.818,0-4.2-1.054-4.2-3.465l0-6.723h2.9v6.927a1.223,1.223,0,0,0,1.377,1.312,2.524,2.524,0,0,0,1.205-.238v-8h2.9v9.26a10.735,10.735,0,0,1-4.18.929" transform="translate(-226.533 -120.635)" fill="#fff"/>
      <path id="Path_15" data-name="Path 15" d="M366.491,130.09c-2.894,0-4.41-2.208-4.41-5.194s1.517-5.174,4.392-5.174c2.922,0,4.436,2.187,4.436,5.174s-1.514,5.194-4.417,5.194m0-8.577c-1.275,0-1.536,1.56-1.536,3.346,0,1.8.281,3.262,1.536,3.262,1.286,0,1.544-1.459,1.544-3.262,0-1.786-.258-3.346-1.544-3.346" transform="translate(-304.891 -119.722)" fill="#fff"/>
      <path id="Path_16" data-name="Path 16" d="M429.1,130.036a5.463,5.463,0,0,1-1.452-.167v3.322h-2.9V120.459a8.43,8.43,0,0,1,3.828-.736c2.99,0,4.921,1.751,4.921,5.119,0,3.207-1.807,5.194-4.4,5.194m-.554-8.617a2.3,2.3,0,0,0-.9.149V128.2a2.1,2.1,0,0,0,.758.13c1.542,0,2.227-1.2,2.227-3.45s-.553-3.457-2.087-3.457" transform="translate(-357.276 -119.723)" fill="#fff"/>
      <path id="Path_17" data-name="Path 17" d="M212.239,119.722c-2.836,0-4.532,2.012-4.532,5.156,0,3.408,1.848,5.212,4.838,5.212a8.144,8.144,0,0,0,3.37-.668v-2.074a6.933,6.933,0,0,1-3.046.758c-1.431,0-1.957-.738-2.158-2.208l5.651-.836c.136-3.386-1.3-5.34-4.122-5.34m-1.7,4.773c-.1-2.06.427-3.077,1.595-3.077,1.025,0,1.608.79,1.608,2.559Z" transform="translate(-175.867 -119.722)" fill="#fff"/>
    </g>
    <path id="Path_18" data-name="Path 18" d="M221.706,248.249" transform="translate(-186.923 -208.142)" fill="#fff"/>
  </g>
</svg>
