<?xml version="1.0" encoding="utf-8"?>
<svg xmlns="http://www.w3.org/2000/svg" width="121.649" height="31.097" viewBox="0 0 121.649 31.097">
  <g id="Group_37" data-name="Group 37" transform="translate(0)" opacity="0.64">
    <path id="Path_75" data-name="Path 75" d="M-1577.155-758.711a77.388,77.388,0,0,1,9.835.619,5.576,5.576,0,0,1,4.851,4.985,85.158,85.158,0,0,1,.594,10.726,83.151,83.151,0,0,1-.6,9.183,5.635,5.635,0,0,1-5.246,5.027,80.269,80.269,0,0,1-11.537.53,57.132,57.132,0,0,1-8.169-.676,5.459,5.459,0,0,1-4.415-4.653,81.447,81.447,0,0,1-.6-12.419,77.949,77.949,0,0,1,.6-7.909,5.561,5.561,0,0,1,4.933-4.808c1.62-.188,3.24-.355,4.868-.454S-1578.787-758.72-1577.155-758.711Zm11.064,15.552a66.161,66.161,0,0,0-.463-7.339,4,4,0,0,0-3.358-3.441,44.081,44.081,0,0,0-5.294-.441,58.9,58.9,0,0,0-8.846.373,3.987,3.987,0,0,0-3.727,3.5,42.213,42.213,0,0,0-.432,5.41,62.517,62.517,0,0,0,.381,9.039,4.006,4.006,0,0,0,3.4,3.662,34.264,34.264,0,0,0,4.637.423,59.821,59.821,0,0,0,9.614-.363,4.083,4.083,0,0,0,3.635-3.526A67.725,67.725,0,0,0-1566.091-743.159Z" transform="translate(1592.474 758.712)" fill="#fff"/>
    <path id="Path_76" data-name="Path 76" d="M-323.3-609.38h-4.278c-.424,0-.439.018-.33.436a3.24,3.24,0,0,0,2.452,2.412,5.191,5.191,0,0,0,2.927-.069,3.492,3.492,0,0,0,1.942-1.438.345.345,0,0,1,.437-.181,1.852,1.852,0,0,1,1.46,1.174,1.638,1.638,0,0,1-.563,1.768,5.53,5.53,0,0,1-3.057,1.423,9.629,9.629,0,0,1-4.943-.3,5.92,5.92,0,0,1-4.114-5.267,6.538,6.538,0,0,1,3.7-6.917,7.2,7.2,0,0,1,7.951,1.214A6.19,6.19,0,0,1-318-610.342c-.027.739-.3.96-1.054.961Q-321.178-609.377-323.3-609.38Zm-1.476-2.14c.976,0,1.952-.012,2.927.007.3.006.344-.1.3-.357a3.2,3.2,0,0,0-.6-1.479,3.166,3.166,0,0,0-3.384-.975,3.311,3.311,0,0,0-2.406,2.555c-.056.226.049.253.237.252C-326.726-611.523-325.75-611.52-324.774-611.52Z" transform="translate(428.671 627.951)" fill="#fff"/>
    <path id="Path_77" data-name="Path 77" d="M-718.143-609.3c-1.439,0-2.878.011-4.317-.008-.352,0-.375.119-.3.405a3.261,3.261,0,0,0,2.5,2.46,5.2,5.2,0,0,0,2.815-.058,3.463,3.463,0,0,0,1.991-1.427.411.411,0,0,1,.538-.2,1.829,1.829,0,0,1,1.4,1.195,1.637,1.637,0,0,1-.545,1.7,5.508,5.508,0,0,1-3.084,1.451,10,10,0,0,1-4.908-.285,6.078,6.078,0,0,1-4.187-5.669,6.492,6.492,0,0,1,5.456-7.061,6.632,6.632,0,0,1,6.308,1.828,6.119,6.119,0,0,1,1.622,4.816c-.036.62-.318.841-.966.843C-715.265-609.3-716.7-609.3-718.143-609.3Zm-1.467-2.14c.976,0,1.951-.01,2.926.007.272,0,.326-.093.293-.332a2.791,2.791,0,0,0-1.66-2.334,3.435,3.435,0,0,0-4.712,2.309c-.065.256-.042.363.265.357C-721.536-611.45-720.573-611.439-719.61-611.439Z" transform="translate(793.067 627.87)" fill="#fff"/>
    <path id="Path_78" data-name="Path 78" d="M-999.539-609.095c-1.439,0-2.879.01-4.318-.007-.33,0-.376.084-.3.389a3.156,3.156,0,0,0,2.05,2.326,5,5,0,0,0,3.793-.1,3.3,3.3,0,0,0,1.5-1.28.324.324,0,0,1,.41-.165,1.828,1.828,0,0,1,1.469,1.163,1.669,1.669,0,0,1-.576,1.8,5.61,5.61,0,0,1-3.03,1.4,10.167,10.167,0,0,1-4.836-.259,6.084,6.084,0,0,1-4.251-5.574,6.664,6.664,0,0,1,1.762-5.239,6.882,6.882,0,0,1,5.938-2.027,6.015,6.015,0,0,1,4.931,3.123,6.182,6.182,0,0,1,.733,3.569c-.047.672-.29.879-.961.881C-996.66-609.092-998.1-609.095-999.539-609.095Zm-1.452-2.14h2.965c.136,0,.287.039.257-.2a3,3,0,0,0-.773-1.8,3.1,3.1,0,0,0-3.231-.786,3.255,3.255,0,0,0-2.388,2.476c-.069.253-.034.329.243.325C-1002.941-611.244-1001.966-611.234-1000.99-611.235Z" transform="translate(1052.743 627.666)" fill="#fff"/>
    <path id="Path_79" data-name="Path 79" d="M-520.959-614.736c.249-.277.463-.532.7-.768a5.531,5.531,0,0,1,6.134-.862,4.5,4.5,0,0,1,2.278,3.514,6.522,6.522,0,0,1,.083,1.035q.012,3.18,0,6.361a1.388,1.388,0,0,1-1.062,1.543,3.539,3.539,0,0,1-1.643-.007,1.424,1.424,0,0,1-1.077-1.576q-.011-2.737,0-5.474a4.405,4.405,0,0,0-.108-1.07A2.348,2.348,0,0,0-518.6-613.8a3.029,3.029,0,0,0-1.472.622,1.963,1.963,0,0,0-.833,1.669c.052,1.913.016,3.829.019,5.743a3.541,3.541,0,0,1-.075.8,1.3,1.3,0,0,1-1.083,1.067,4.043,4.043,0,0,1-1.459,0,1.36,1.36,0,0,1-1.148-1.275,6.074,6.074,0,0,1-.022-.654c0-3.38.007-6.759-.011-10.139a.561.561,0,0,1,.486-.645,3.868,3.868,0,0,1,1.063-.148,2.017,2.017,0,0,1,1.973,1.387C-521.086-615.175-521.035-614.977-520.959-614.736Z" transform="translate(607.032 627.857)" fill="#fff"/>
    <path id="Path_80" data-name="Path 80" d="M-142.015-647.254c0-1.2-.007-2.186.005-3.175,0-.233-.055-.321-.3-.3a3.412,3.412,0,0,1-.844-.044c-.817-.148-1.12-.553-1.1-1.481a1.223,1.223,0,0,1,1.187-1.307c.089-.01.18-.009.269-.013.778-.027.772-.027.781-.828a6.478,6.478,0,0,1,.062-1.382,1.355,1.355,0,0,1,1.081-1.118,3.506,3.506,0,0,1,1.378-.026,1.362,1.362,0,0,1,1.18,1.287,11.476,11.476,0,0,1,.035,1.693c-.005.279.062.382.362.374.706-.02,1.413-.012,2.119,0,.829.02,1.294.426,1.337,1.135.064,1.065-.268,1.552-1.2,1.671a18.519,18.519,0,0,1-2.348.033c-.26,0-.354.059-.352.338.013,1.7.007,3.391.008,5.087q0,.077,0,.154c.032.651.137,1.293.825,1.568a1.879,1.879,0,0,0,1.977-.384c.468-.386.642-.366.977.154a1.784,1.784,0,0,1-.194,2.143,2.891,2.891,0,0,1-1.419.884,5.831,5.831,0,0,1-3.378-.04,3.36,3.36,0,0,1-2.387-3.09C-142.1-645.1-141.974-646.281-142.015-647.254Z" transform="translate(255.943 664.834)" fill="#fff"/>
    <path id="Path_81" data-name="Path 81" d="M-1147.048-647.221c0-1.217-.009-2.206.006-3.2,0-.258-.078-.328-.326-.318a4.094,4.094,0,0,1-.8-.047c-.848-.135-1.157-.574-1.109-1.542a1.222,1.222,0,0,1,1.251-1.247,3.184,3.184,0,0,1,.615-.011c.322.039.375-.1.375-.39a8.923,8.923,0,0,1,.056-1.806,1.344,1.344,0,0,1,1.107-1.137,3.469,3.469,0,0,1,1.377-.014,1.362,1.362,0,0,1,1.157,1.307,14.026,14.026,0,0,1,.034,1.732c0,.236.074.31.309.307.732-.01,1.465-.01,2.2.009a1.175,1.175,0,0,1,1.31,1.122c.071,1.048-.256,1.546-1.147,1.674a16.615,16.615,0,0,1-2.386.04c-.288,0-.367.077-.364.366.014,1.67.007,3.34.008,5.01,0,.077,0,.154.006.231.033.639.145,1.263.813,1.537a1.912,1.912,0,0,0,1.982-.366c.147-.114.226-.374.434-.334a.939.939,0,0,1,.563.5,1.784,1.784,0,0,1-.226,2.14,3.112,3.112,0,0,1-1.8.964,5.733,5.733,0,0,1-3.328-.267,3.374,3.374,0,0,1-2.038-2.95C-1147.13-645.085-1147.006-646.269-1147.048-647.221Z" transform="translate(1183.467 664.835)" fill="#fff"/>
    <path id="Path_82" data-name="Path 82" d="M-805.087-674.116c0-2.608.009-5.216-.01-7.824a.553.553,0,0,1,.49-.641,3.543,3.543,0,0,1,1.372-.112,2.133,2.133,0,0,1,1.891,2.065,8.69,8.69,0,0,1,.068,1.075q.007,6.513,0,13.027c0,1.5-.54,2.018-2.036,1.972-1.246-.039-1.773-.566-1.776-1.816C-805.091-668.951-805.087-671.533-805.087-674.116Z" transform="translate(865.822 688.58)" fill="#fff"/>
    <path id="Path_83" data-name="Path 83" d="M-1474.5-525.367a10.537,10.537,0,0,1-5.563-1.868c-.118-.077-.227-.17-.351-.236a1.423,1.423,0,0,1-.782-1.6c.051-.385.107-.43.441-.23a12.428,12.428,0,0,0,4.369,1.636,11.789,11.789,0,0,0,8-1.534c.067-.038.131-.081.2-.118.317-.178.354-.143.4.2a1.591,1.591,0,0,1-.82,1.7A10.975,10.975,0,0,1-1474.5-525.367Z" transform="translate(1489.797 547.108)" fill="#fff"/>
    <path id="Path_84" data-name="Path 84" d="M-1471.249-632.8a1.792,1.792,0,0,1-1.07,1.762,2.913,2.913,0,0,1-2.6.006,1.788,1.788,0,0,1-1.1-1.712,1.79,1.79,0,0,1,1.1-1.751,2.907,2.907,0,0,1,2.6.007A1.731,1.731,0,0,1-1471.249-632.8Z" transform="translate(1485 644.357)" fill="#fff"/>
    <path id="Path_85" data-name="Path 85" d="M-1373.533-623.817a9.266,9.266,0,0,1,2.411.292.37.37,0,0,1,.336.426c-.013.411-.017.823,0,1.233.014.318-.116.419-.415.359a14.161,14.161,0,0,0-1.606-.178,10.76,10.76,0,0,0-2.382.088c-.282.039-.407-.018-.4-.326.017-.436.017-.874,0-1.311-.011-.282.122-.381.377-.424A8.456,8.456,0,0,1-1373.533-623.817Z" transform="translate(1392.311 634.223)" fill="#fff"/>
  </g>
</svg>
