<?xml version="1.0" encoding="utf-8"?>
<svg xmlns="http://www.w3.org/2000/svg" width="130.895" height="31.097" viewBox="0 0 130.895 31.097">
  <g id="Group_36" data-name="Group 36" opacity="0.64">
    <path id="Path_64" data-name="Path 64" d="M342.5,1237.924a13.692,13.692,0,0,1-5.765-1.061,6.867,6.867,0,0,1,.06-12.537,14.892,14.892,0,0,1,7.116-.988,12.84,12.84,0,0,1,4.083.883,6.879,6.879,0,0,1-.012,12.773A14.457,14.457,0,0,1,342.5,1237.924Zm-.023-3.4a9.272,9.272,0,0,0,2.31-.246,3.481,3.481,0,0,0,2.853-3.517,3.435,3.435,0,0,0-2.7-3.775,8.918,8.918,0,0,0-5.055.052,3.786,3.786,0,0,0,.041,7.145A8.323,8.323,0,0,0,342.481,1234.529Z" transform="translate(-278.3 -1212.601)" fill="#fff"/>
    <path id="Path_66" data-name="Path 66" d="M164.867,1185.7c3.251,0,6.5.011,9.753-.012.471,0,.584.134.563.582a21.226,21.226,0,0,0,0,2.333c.03.488-.149.563-.584.558-2.213-.021-4.427-.013-6.64-.008-.83,0-.727-.107-.727.7q0,6.822.008,13.643c0,.429-.088.584-.539.508a8.036,8.036,0,0,1-3.338-1.183,3.916,3.916,0,0,1-1.741-3.453q.015-4.773,0-9.545c0-.768.092-.671-.648-.672-1.989,0-3.977-.013-5.966.008-.391,0-.5-.1-.488-.491.031-.829.031-1.661,0-2.489-.015-.389.1-.492.486-.49C158.3,1185.707,161.581,1185.7,164.867,1185.7Z" transform="translate(-118.604 -1178.906)" fill="#fff"/>
    <path id="Path_67" data-name="Path 67" d="M710.934,1239.164c-.57,0-1.142-.023-1.711.008-.389.021-.579-.065-.656-.495a11.354,11.354,0,0,0-.7-2.162.491.491,0,0,0-.533-.362q-4.693.017-9.387,0a.491.491,0,0,0-.534.362,13.157,13.157,0,0,0-.727,2.263c-.059.295-.169.4-.473.393-1.279-.016-2.559-.018-3.837,0-.359.005-.372-.094-.307-.415a16.388,16.388,0,0,1,2.2-5.275,37.584,37.584,0,0,1,6.445-7.812,3.158,3.158,0,0,1,3.806-.034,32.394,32.394,0,0,1,8.078,11.035,15.446,15.446,0,0,1,.629,2.131c.089.348-.051.37-.324.365C712.248,1239.156,711.591,1239.164,710.934,1239.164Zm-11.706-5.964h6.824a21.868,21.868,0,0,0-2.37-3.068c-.334-.364-.622-.987-1.06-.978-.4.008-.694.613-1.019.97A22.742,22.742,0,0,0,699.228,1233.2Z" transform="translate(-600.349 -1214.153)" fill="#fff"/>
    <g id="Group_36-2" data-name="Group 36" transform="translate(0)">
      <path id="Path_61" data-name="Path 61" d="M224.645,484.474a18.042,18.042,0,0,0,1.855,1.9,24.26,24.26,0,0,0,9.768,5.263c.09.025.168.05.24-.048.27-.366.554-.723.791-1.112a20.5,20.5,0,0,0,1.54-2.641,31.659,31.659,0,0,0,1.646-3.806,37.652,37.652,0,0,0,1.642-5.906c.062-.326.108-.654.161-.981a.448.448,0,0,1,.075.019,23.132,23.132,0,0,1,4.539,2.59,11.563,11.563,0,0,1,1.728,1.538,27.42,27.42,0,0,1-1.431,4.888c-.4.949-.822,1.882-1.31,2.788-.423.785-.9,1.538-1.387,2.284-.341.456-.668.923-1.063,1.393a17.638,17.638,0,0,0,4.913-.722c-.288.247-.536.467-.792.676s-.517.417-.783.614a14.994,14.994,0,0,1-6.1,2.741c-.382.075-.769.123-1.155.178a.694.694,0,0,0-.257.081,12.441,12.441,0,0,1-4.413,1.585,8.932,8.932,0,0,1-6.711-1.436,6.148,6.148,0,0,1-2.219-2.808c-.012-.03-.024-.06-.033-.091a.3.3,0,0,1,.006-.07,5,5,0,0,0,2.643,1.848,5.864,5.864,0,0,0,3.26.023c-.363-.138-.678-.252-.989-.378a15.754,15.754,0,0,1-5.938-4.027,10.754,10.754,0,0,1-2.657-5.673,9.024,9.024,0,0,1,.084-3.621,5.033,5.033,0,0,1,1.042-2.092c.046-.053.072-.142.171-.128a4.337,4.337,0,0,0-.286.553,3.311,3.311,0,0,0,.067,2.415A6.585,6.585,0,0,0,224.645,484.474Z" transform="translate(-222.07 -466.822)" fill="#fff"/>
      <path id="Path_62" data-name="Path 62" d="M264.72,295.155c.487-.746.964-1.5,1.387-2.284.488-.905.915-1.839,1.31-2.788a3.933,3.933,0,0,0,.859-.4A8.66,8.66,0,0,0,270.549,288c.056-.06.114-.107.069-.216a7.923,7.923,0,0,0-1.769-2.585,11.561,11.561,0,0,0-1.728-1.538,23.135,23.135,0,0,0-4.539-2.59.451.451,0,0,0-.075-.019,18.387,18.387,0,0,0-2.156-.846,32.032,32.032,0,0,0-4.627-1.165,25.663,25.663,0,0,0-5.519-.393,12.956,12.956,0,0,0-4.465.921,5.589,5.589,0,0,0-2.539,2c-.018.026-.023.082-.092.059a14.226,14.226,0,0,1,1.643-2.948,12.607,12.607,0,0,1,6.3-4.617,18.082,18.082,0,0,1,6.775-.966,19.18,19.18,0,0,1,3.264.438.44.44,0,0,0,.21.021l0,0c0,.026.014.026.031.029.264.069.528.134.791.206a16.545,16.545,0,0,1,6.178,3.034c.033.027.06.073.115.055l0,0c-.011.033.014.043.035.057a15.065,15.065,0,0,1,1.64,1.67,12.124,12.124,0,0,1,1.8,12.238,8.143,8.143,0,0,1-.957,1.672,5.266,5.266,0,0,1-2.059,1.69A11.494,11.494,0,0,1,264.72,295.155Z" transform="translate(-242.289 -270.732)" fill="#fff"/>
      <path id="Path_63" data-name="Path 63" d="M248.119,477.268a6.584,6.584,0,0,1-1.355-2.168,3.311,3.311,0,0,1-.067-2.415,4.338,4.338,0,0,1,.286-.553l-.006,0,.051-.06.007-.01a.093.093,0,0,0,.022-.025,4.085,4.085,0,0,1,1.351-1,11.624,11.624,0,0,1,3.741-1.166,21.175,21.175,0,0,1,8.85.595c.262.071.521.152.781.242-.455.048-.907.09-1.358.161a25.7,25.7,0,0,0-3.877.951,23.569,23.569,0,0,0-5.412,2.424,8.556,8.556,0,0,0-2.561,2.286C248.408,476.763,248.27,477.02,248.119,477.268Z" transform="translate(-245.544 -459.616)" fill="#fff"/>
      <path id="Path_65" data-name="Path 65" d="M550.9,219.25c-.056.018-.082-.028-.115-.055a16.545,16.545,0,0,0-6.177-3.034c-.263-.072-.527-.137-.791-.206l-.031-.029,0,0a4.042,4.042,0,0,0-1.3-1.13,5.5,5.5,0,0,0-3.145-.725,10.312,10.312,0,0,0-2.262.4,2.5,2.5,0,0,1,.605-.426,7.574,7.574,0,0,1,3.008-.882,10.574,10.574,0,0,1,5.25.78,8.839,8.839,0,0,1,4.939,5.215A.468.468,0,0,1,550.9,219.25Z" transform="translate(-524.77 -213.106)" fill="#fff"/>
      <path id="Path_68" data-name="Path 68" d="M361.8,670.946a20.494,20.494,0,0,1-1.54,2.641,23.343,23.343,0,0,1-4.314-1.684,25.624,25.624,0,0,1-5.642-3.953l-.273-.253A30.576,30.576,0,0,0,361.8,670.946Z" transform="translate(-345.033 -649.935)" fill="#fff"/>
    </g>
    <path id="Path_69" data-name="Path 69" d="M542.309,1226.4c2.679,0,5.358.009,8.036-.01.393,0,.506.105.491.491-.029.742-.026,1.487,0,2.229.013.365-.106.468-.468.464-1.642-.018-3.284.009-4.925-.019-.445-.007-.539.135-.537.555.018,2.921.01,5.841.009,8.762,0,.835-.223,1.163-1.01,1.4a5.376,5.376,0,0,1-3.263-.02,1.166,1.166,0,0,1-.95-1.346c0-2.938-.009-5.876.011-8.814,0-.433-.109-.548-.541-.541-1.641.026-3.284,0-4.925.019-.37,0-.471-.112-.459-.47.025-.742.031-1.487,0-2.229-.018-.4.118-.487.5-.484C536.951,1226.406,539.63,1226.4,542.309,1226.4Z" transform="translate(-458.505 -1215.383)" fill="#fff"/>
    <path id="Path_70" data-name="Path 70" d="M927.777,1238.7a36.767,36.767,0,0,1-6.568-.3c-2.98-.532-4.591-2.33-4.665-5.366-.059-2.4-.016-4.806-.028-7.21a.951.951,0,0,1,.661-.953,4.852,4.852,0,0,1,3.638-.015,1.048,1.048,0,0,1,.7,1.094c-.017,2.109-.008,4.219-.006,6.328,0,.259,0,.52.022.777.15,1.479,1.007,2.252,2.732,2.316,1.83.068,3.664.04,5.5.051.761,0,1.522.012,2.282,0,.292-.007.392.083.386.381-.018.847-.021,1.695,0,2.541.007.313-.118.366-.395.364C930.612,1238.694,929.194,1238.7,927.777,1238.7Z" transform="translate(-801.532 -1213.7)" fill="#fff"/>
  </g>
</svg>
