<?xml version="1.0" encoding="utf-8"?>
<svg xmlns="http://www.w3.org/2000/svg" width="69.918" height="46.006" viewBox="0 0 69.918 46.006">
  <g id="Group_38" data-name="Group 38" transform="translate(0)" opacity="0.64">
    <path id="Path_86" data-name="Path 86" d="M212.147-931.206a12.835,12.835,0,0,1,3.168.961q6.572,2.281,13.128,4.611c.278.1.812-.116.793.346-.017.391-.532.4-.868.521-4.168,1.458-8.331,2.931-12.5,4.381-4.849,1.687-9.706,3.352-14.558,5.032q-2.988,1.034-5.968,2.092a1.69,1.69,0,0,1-1.208-.016c-3.744-1.321-7.5-2.619-11.247-3.924l-13.924-4.849-7.944-2.763a4.781,4.781,0,0,1-.542-.214c-.122-.06-.255-.148-.237-.311s.179-.17.309-.215q6.257-2.151,12.512-4.307c1.129-.387,2.268-.744,3.4-1.115.551-.09.807.093.755.7a13.318,13.318,0,0,0,0,1.729c.016.363-.158.785.249,1.061l.592.186a.436.436,0,0,0,.645.259l.388.107a8.045,8.045,0,0,0,2.565.933l.581.174c.092.285.335.188.531.21a4.184,4.184,0,0,1,.959.245c3.528,1.241,7.065,2.457,10.6,3.688a1.35,1.35,0,0,0,.962-.02c1.877-.669,3.765-1.308,5.648-1.962,3.585-1.246,7.168-2.5,10.756-3.735a.614.614,0,0,0,.5-.659c-.016-1.055-.027-2.11-.039-3.166Z" transform="translate(-160.092 937.4)" fill="#fff"/>
    <path id="Path_87" data-name="Path 87" d="M177.142-764.281c.423-1.626.837-3.2,1.241-4.775.172-.672.339-1.347.48-2.026a.529.529,0,0,1,.563-.495c1.726,0,3.453-.008,5.179,0,.376,0,.535.1.367.566q-2.13,5.906-4.19,11.837a.9.9,0,0,1-.982.7c-1.587-.008-3.175-.032-4.761.012-.709.019-.834-.482-.976-.936-.439-1.4-.827-2.822-1.239-4.234-.159-.545-.332-1.087-.5-1.628-.358.1-.333.352-.4.558-.546,1.806-1.117,3.6-1.632,5.42a.95.95,0,0,1-1.061.812c-1.531-.02-3.063-.018-4.594,0a.9.9,0,0,1-.99-.684c-.951-2.779-1.926-5.55-2.9-8.32-.415-1.176-.837-2.351-1.3-3.51-.174-.438-.025-.578.368-.58q2.59-.013,5.179,0c.547,0,.565.474.655.83.518,2.044,1.014,4.094,1.522,6.141a3.731,3.731,0,0,0,.187.432,8.168,8.168,0,0,0,.873-2.444c.456-1.4.832-2.82,1.212-4.24a.873.873,0,0,1,1.023-.73c1.14.036,2.286.056,3.424-.011.706-.041.987.241,1.158.876.518,1.93,1.076,3.848,1.633,5.767C176.749-764.733,176.757-764.45,177.142-764.281Z" transform="translate(-159.379 804.466)" fill="#fff"/>
    <path id="Path_88" data-name="Path 88" d="M258.288-958.255c-.407-.276-.233-.7-.249-1.061a13.323,13.323,0,0,1,0-1.729c.052-.608-.2-.791-.755-.7a15.314,15.314,0,0,1,3.349-1.273c2.731-.99,5.487-1.911,8.234-2.859,2.145-.74,4.295-1.465,6.43-2.232.535-.192.924.121,1.342.263,3.564,1.2,7.115,2.448,10.671,3.678q2.667.923,5.337,1.839a.521.521,0,0,1,.325.353l0-.018-2.2.767q-7.377,2.573-14.752,5.154a1.1,1.1,0,0,1-.795,0c-5.438-1.9-10.882-3.783-16.318-5.69-.487-.171-.662-.105-.65.422C258.28-960.312,258.279-959.283,258.288-958.255Z" transform="translate(-240.918 968.169)" fill="#fff"/>
    <path id="Path_89" data-name="Path 89" d="M333.232-771.513c2.145,0,4.289-.022,6.434.008a8.417,8.417,0,0,1,3.539.87,4.777,4.777,0,0,1,2.8,3.8,8.109,8.109,0,0,1-.566,5.213c-1.205,2.208-3.305,2.857-5.6,3.035-4.42.341-8.85.084-13.275.165-.589.011-.775-.229-.773-.794.015-3.844.021-7.687,0-11.531,0-.656.268-.8.85-.794,2.2.021,4.4.009,6.6.009Zm1.162,9.676a15.789,15.789,0,0,0,2.842-.186,2.829,2.829,0,0,0,2.38-3.2,2.811,2.811,0,0,0-2.507-2.853,38.382,38.382,0,0,0-4.416-.143c-.511-.018-.6.242-.593.67.015,1.113-.013,2.227.012,3.34.017.744-.32,1.693.145,2.181C332.763-761.5,333.735-761.932,334.394-761.837Z" transform="translate(-297.963 804.412)" fill="#fff"/>
    <path id="Path_90" data-name="Path 90" d="M471.672-771.525c2.227,0,4.455-.029,6.682.012a5.73,5.73,0,0,1,3.215,1.01,3.372,3.372,0,0,1,1.513,2.732c.161,3.064-.92,4.444-3.951,5.046-2.567.509-5.16.2-7.74.218-.676,0-.9.172-.872.833.039.806,0,1.615.013,2.422.01.557-.228.818-.8.814-1.615-.01-3.23-.017-4.845.005-.564.008-.751-.289-.747-.769.005-.667.068-1.334.064-2-.02-3.171.089-6.344-.078-9.512-.036-.682.209-.85.862-.839,2.227.038,4.455.015,6.682.015Zm1.428,5.765c.626-.046,1.43.043,2.236-.077.756-.113,1.263-.4,1.262-1.246,0-.732-.446-1.195-1.321-1.325a33.278,33.278,0,0,0-4.246-.093.523.523,0,0,0-.608.522c-.266,2.073-.15,2.219,1.915,2.219Z" transform="translate(-413.18 804.423)" fill="#fff"/>
  </g>
</svg>
