<?xml version="1.0" encoding="utf-8"?>
<svg xmlns="http://www.w3.org/2000/svg" width="98" height="98" viewBox="0 0 98 98">
  <g id="sipwell" transform="translate(-1190 -1053)">
    <g id="Group_469" data-name="Group 469" transform="translate(1190 1053)">
      <circle id="Ellipse_6" data-name="Ellipse 6" cx="49" cy="49" r="49" fill="#aca8e8"/>
    </g>
    <path id="Exclusion_1" data-name="Exclusion 1" d="M-1958,64a31.8,31.8,0,0,1-12.455-2.515,31.9,31.9,0,0,1-10.172-6.858,31.892,31.892,0,0,1-6.858-10.171A31.8,31.8,0,0,1-1990,32a31.8,31.8,0,0,1,2.515-12.456,31.893,31.893,0,0,1,6.858-10.172,31.894,31.894,0,0,1,10.172-6.858A31.8,31.8,0,0,1-1958,0a31.8,31.8,0,0,1,12.456,2.515,31.9,31.9,0,0,1,10.172,6.858,31.894,31.894,0,0,1,6.858,10.172A31.8,31.8,0,0,1-1926,32a31.8,31.8,0,0,1-2.515,12.455,31.9,31.9,0,0,1-6.858,10.171,31.9,31.9,0,0,1-10.172,6.858A31.8,31.8,0,0,1-1958,64Zm-2.83-21.064h0a5.148,5.148,0,0,0,2,3.043,5.765,5.765,0,0,0,3.408,1.151,4.644,4.644,0,0,0,2.449-.674c.482-.3.666-.648.563-1.069-.072-.293-.212-.424-.452-.424a1.7,1.7,0,0,0-.358.056c-.083.019-.167.038-.249.049a15.681,15.681,0,0,1-2,.166,5.919,5.919,0,0,1-1.708-.228c-.78-.233-1.173-.629-1.237-1.247a1.337,1.337,0,0,1,.634-1.449,3.257,3.257,0,0,1,1.58-.467,3.3,3.3,0,0,1,2.117.919l-.875.055c-.58.036-1.037.065-1.487.1-.285.023-.639.052-.72.448a.625.625,0,0,0,.442.724,3.977,3.977,0,0,0,1.563.323,4.83,4.83,0,0,0,2.05-.5,1.069,1.069,0,0,0,.536-1.268,2.758,2.758,0,0,0-2.31-2.157,3.745,3.745,0,0,0-.839-.1,5.135,5.135,0,0,1-.639-.055,2.43,2.43,0,0,0-.41-.035,4.39,4.39,0,0,0-1.877.572,5.082,5.082,0,0,1-1.592.555l-.181.857a.545.545,0,0,0-.057-.029c-.042-.019-.085-.039-.094-.069a.628.628,0,0,1,.317-.771,1.084,1.084,0,0,0-.846-1.267,1.145,1.145,0,0,0-.277-.036,1.315,1.315,0,0,0-1.1.787c-.41.682-.758,1.416-1.1,2.126l0,.009c-.133.28-.27.57-.41.852-.311.631-.586.889-.95.889a1.6,1.6,0,0,1-.9-.392c-1.3-.969-1.955-1.434-2.58-1.434-.655,0-1.3.526-2.469,1.482a1.9,1.9,0,0,1-1.087.537c-.4,0-.7-.333-.939-1.048l-.093-.282a12.569,12.569,0,0,0-1.275-2.974c-.221-.34-.533-.731-.978-.731a.954.954,0,0,0-.4.1.94.94,0,0,0-.531.523,1.394,1.394,0,0,0,.174,1.068c.52,1.054,1.135,2.3,1.75,3.513.7,1.39,1.265,1.957,1.936,1.957.547,0,1.186-.367,2.136-1.226a2.5,2.5,0,0,1,1.61-.854,2.231,2.231,0,0,1,1.5.806,3.358,3.358,0,0,0,2.2,1.226c.808,0,1.564-.631,2.377-1.984.1-.161.187-.329.275-.491a3.552,3.552,0,0,1,1.389-1.631Zm16.3,2.7a1.067,1.067,0,0,1,.719.376,3.37,3.37,0,0,0,2.359.947,5.167,5.167,0,0,0,1.822-.373c.149-.057.317-.1.5-.153.706-.2,1.506-.42,1.266-1.353-.11-.428-.313-.636-.62-.636a2.128,2.128,0,0,0-.809.26,2.384,2.384,0,0,1-.6.223,5.7,5.7,0,0,1-.785.06,1.967,1.967,0,0,1-1.594-.575,2.614,2.614,0,0,1-.325-2.166c.035-.209.077-.422.118-.627v-.005a10.392,10.392,0,0,0,.19-1.2l0-.046c.037-.453.083-1.017-.6-1.121a1.077,1.077,0,0,0-.16-.013c-.561,0-.779.494-.894.865-.311,1-.587,2.03-.819,3.058a2.533,2.533,0,0,1-2.723,1.793,4.989,4.989,0,0,1-.741-.057c-1.529-.23-1.57-1.332-1.475-2.539.031-.392.1-.788.157-1.171v-.006c.055-.337.111-.685.145-1.03.051-.515-.112-.812-.484-.882a.824.824,0,0,0-.151-.014.915.915,0,0,0-.766.517,6.562,6.562,0,0,0-.778,3.034v.01c-.016.177-.032.361-.051.538a3.587,3.587,0,0,0,.919,2.661,2.9,2.9,0,0,0,2.129.849,4.132,4.132,0,0,0,.93-.111,8.173,8.173,0,0,0,2.427-.85A1.354,1.354,0,0,1-1944.531,45.634ZM-1950.1,17.35a1.262,1.262,0,0,0-.935.3,1.546,1.546,0,0,0-.325,1.144c.02,3.639.021,7.339.023,10.918v.069c0,1.783,0,3.627,0,5.44,0,.059,0,.121,0,.186v.006c-.011.412-.024.878.364.976a10.554,10.554,0,0,0,2.581.327,8.868,8.868,0,0,0,2.208-.269c.9-.231.779-1.052.662-1.846a4.733,4.733,0,0,1-.074-.785l0-.151c.082-2.859.082-2.859,2.946-3.448a6.767,6.767,0,0,0,3.689-2.154,6.1,6.1,0,0,0,1.562-3.813,6.734,6.734,0,0,0-1.093-4.278,6.46,6.46,0,0,0-3.657-2.333,8.117,8.117,0,0,0-2.237-.251c-.2,0-.4,0-.588.005h-.011c-.193,0-.392.006-.584.006-.352,0-.633-.01-.885-.031-.393,0-.773,0-1.141.007s-.695.007-1.032.007c-.517,0-.941-.008-1.333-.026Q-1950.028,17.35-1950.1,17.35Zm-8.592,19.16h0a9.292,9.292,0,0,1,1.15.1,9.334,9.334,0,0,0,1.151.1,2.465,2.465,0,0,0,2.022-.878c.108-.125.078-.387.051-.618,0-.041-.009-.078-.012-.112a76.5,76.5,0,0,1-.2-8.451c.023-1.7.047-3.458,0-5.192-.024-.86-.006-1.533.009-2.073.025-.932.039-1.445-.217-1.709-.286-.3-.9-.3-2.231-.3-.468,0-1.049,0-1.727-.022h-.114a1.572,1.572,0,0,0-1.18.356,1.9,1.9,0,0,0-.341,1.43c.049,1.87.038,3.769.028,5.605,0,.737-.008,1.5-.008,2.254v.355c0,2.391,0,5.1,0,7.693v.105a1.825,1.825,0,0,0,.266,1.242.721.721,0,0,0,.538.191,1.652,1.652,0,0,0,.263-.023A3.425,3.425,0,0,1-1958.691,36.51Zm-12.011.068h0c.233.02.477.031.726.031a10.392,10.392,0,0,0,2.924-.432c2.675-.8,4.107-2.209,4.506-4.447a5.282,5.282,0,0,0-2.426-5.794,15.654,15.654,0,0,0-2.2-1.158c-.48-.221-.975-.449-1.447-.706-.4-.216-.938-.512-.844-1.108.082-.523.576-.668,1.011-.8l.122-.036a3.316,3.316,0,0,1,.978-.14,7.852,7.852,0,0,1,1.953.335c.184.048.373.1.558.141a2.5,2.5,0,0,0,.562.079c.575,0,.69-.356.731-1.155.106-2.066.064-3.083-.469-3.651s-1.538-.675-3.585-.7l-.3,0c-.185,0-.376-.005-.564-.005-.4,0-.715.012-1.007.041a7.965,7.965,0,0,0-4.131,1.616,5.189,5.189,0,0,0-2.025,3.237,5.5,5.5,0,0,0,.738,3.883,7.8,7.8,0,0,0,3.526,2.749c.248.11.506.22.733.317.38.163.77.329,1.147.505.431.2.968.453.845,1.074a1.15,1.15,0,0,1-1.148.8,15.192,15.192,0,0,1-1.544.084,9.7,9.7,0,0,1-2.533-.311,2.748,2.748,0,0,0-.7-.112c-.539,0-.86.3-1.01.94-.424,1.82-.365,2.948.19,3.656s1.64,1.036,3.511,1.059l.388,0h.777Zm26.007-10.744h-.047a.885.885,0,0,1-.67-.233,1.266,1.266,0,0,1-.133-.95,1.63,1.63,0,0,0-.05-.815,4.1,4.1,0,0,0,.043-.668c.008-.663.015-1.288.822-1.318h.064a1.51,1.51,0,0,1,1.1.461,1.894,1.894,0,0,1,.476,1.415C-1943.142,25.046-1943.744,25.834-1944.7,25.834Z" transform="translate(3197 1070)" fill="#fff"/>
  </g>
</svg>
