<?xml version="1.0" encoding="utf-8"?>
<svg xmlns="http://www.w3.org/2000/svg" width="144.599" height="38.5" viewBox="0 0 144.599 38.5">
  <g id="masterfood" transform="translate(-0.5 -1.699)" opacity="0.64">
    <path id="Exclusion_1" data-name="Exclusion 1" d="M-672.5-2366.8v0c0-7.484,1.357-13.874,4.032-18.992a25.584,25.584,0,0,1,8.981-9.878A28.258,28.258,0,0,1-645.366-2400H-544.3a27.809,27.809,0,0,0,12.662-2.65,13,13,0,0,0,3.737-2.65c0,7.822-1.088,14.452-3.231,19.708a24.52,24.52,0,0,1-7.571,10.378c-6.1,4.717-13.121,4.717-15.428,4.717l-.57,0H-656.2c-6.509,0-10.594,1.006-12.875,1.85a10.356,10.356,0,0,0-3.423,1.848Zm18.4-22.675a.448.448,0,0,0,.048.125.358.358,0,0,1,.05.15l5.2,12.8,5.8-13v7.7a14.761,14.761,0,0,1-.4,4.2l-.2.4h4.8l-.3-.5a10.041,10.041,0,0,1-.6-2.9v-.2a51.161,51.161,0,0,1-.3-6.8v-2.3a6.181,6.181,0,0,1,.4-2.8l.3-.5h-3.2c-.755,0-1.071.529-1.3,1.1l-4.4,10-.1.1a.1.1,0,0,1-.1.1c0-.1,0-.1-.1-.2a.265.265,0,0,0-.035-.177.086.086,0,0,0-.065-.023l-3.4-10.3c-.1-.387-.487-.6-1.1-.6h-4.4l1.1.6c.4.3.5.4.5,1.1v6c0,1.509,0,6.1-1,7.4l-.6.9h4.3l-.4-.5c-.5-.7-.5-2.229-.5-4v-7.875Zm87.4-.525c-3.886,0-6.3,2.682-6.3,7a7.483,7.483,0,0,0,1.175,4.15,4.669,4.669,0,0,0,4.025,2.05c3.886,0,6.3-2.682,6.3-7C-561.5-2388.376-564.3-2390-566.7-2390Zm-12.4,0c-3.886,0-6.3,2.682-6.3,7a7.482,7.482,0,0,0,1.175,4.15,4.669,4.669,0,0,0,4.025,2.05c3.886,0,6.3-2.682,6.3-7C-573.9-2388.376-576.7-2390-579.1-2390Zm-28.4,0c-3.349,0-5.6,2.652-5.6,6.6a8.087,8.087,0,0,0,1.25,4.538,4.6,4.6,0,0,0,3.95,2.063c1.948,0,4.3-1.338,4.3-3v-1.2l-.6.7a4.187,4.187,0,0,1-2.8,1.1,2.953,2.953,0,0,1-2.637-1.413,5.608,5.608,0,0,1-.762-2.987,4.079,4.079,0,0,1,.1-1.1l4.3-.1c1.508,0,2.7,0,2.7-1.5a3.577,3.577,0,0,0-1.087-2.525A4.289,4.289,0,0,0-607.5-2390Zm-11,2v8.1c0,2.7,1.628,3.1,2.6,3.1,1.017,0,2.4-.8,2.5-1.3l.2-2.1-.6.7a3.359,3.359,0,0,1-1.4.5c-.606,0-.8-.316-.8-1.3v-7.7h.1c1.1,0,2.2-.34,2.2-1.1a.448.448,0,0,0-.5-.5H-616v-3.8h0l-2.4.7-.1,3.2-1.1.1v1.4Zm-15.3-.4c.745,0,1.6.227,1.6,2,0,1.418-.11,1.5-1.3,2l-.3.1c-.1.05-.224.1-.344.147s-.254.1-.356.153l-.175.082c-1.7.8-3.826,1.793-3.826,3.917a3.181,3.181,0,0,0,3.5,3.2,3.147,3.147,0,0,0,3-1.6v.1a3.073,3.073,0,0,0,.138.762c.02.077.041.155.062.238l.1.3,3.2-.2-.3-.5c-.9-1-.9-2.374-.9-3.7v-6.1c0-1.615-1.21-2.4-3.7-2.4-2.214,0-4.8.707-4.8,2.7a1.206,1.206,0,0,0,1.3,1.3c.985,0,1.291-.671,1.5-1.3l.066-.135A1.473,1.473,0,0,1-633.8-2388.4Zm79.7-1.7a6.88,6.88,0,0,0-5.063,1.887A7.115,7.115,0,0,0-561-2383.1a7.854,7.854,0,0,0,1.15,4.225,4.116,4.116,0,0,0,3.55,1.975,4.869,4.869,0,0,0,3.2-1.1l.1,1.1,3.1-.4-.3-.4a7.759,7.759,0,0,1-.3-2.7v-15.9l-3.5.6.5.4c.4.4.4,1.417.4,2.4v2.9a2.79,2.79,0,0,1-.421-.043h-.006A3.544,3.544,0,0,0-554.1-2390.1Zm4.7,8.6v1.1a2.2,2.2,0,0,1-.1.8,3.765,3.765,0,0,1-.05.551,3.768,3.768,0,0,0-.05.55.817.817,0,0,0,.486.827l.011.007.1.066a7.925,7.925,0,0,0,2.9.6,5.447,5.447,0,0,0,3.3-1.037,3.72,3.72,0,0,0,1.5-3.062c.2-1.887-1.379-2.788-2.771-3.583l-.029-.017-.108-.063c-1.176-.685-2.191-1.277-2.191-2.537,0-1.207,1.224-1.3,1.6-1.3.97,0,1.378.174,2.4,1.4l.5.7v-.9c0-.25.025-.581.05-.9s.05-.649.05-.9c0-.4-.393-.5-.6-.5a11.283,11.283,0,0,0-2.4-.3c-3.388,0-4.1,1.686-4.1,3.1,0,2.177,1.465,3.079,2.758,3.875l.042.025c1.229.717,2.1,1.323,2.1,2.6,0,1.261-.673,1.9-2,1.9-1.465,0-2.07-.645-2.8-2l-.6-1Zm-78.9,0v1.1a2.2,2.2,0,0,1-.1.8,3.735,3.735,0,0,1-.05.549,3.749,3.749,0,0,0-.051.552.817.817,0,0,0,.485.826l.115.074a7.925,7.925,0,0,0,2.9.6,5.448,5.448,0,0,0,3.3-1.037,3.72,3.72,0,0,0,1.5-3.062c.192-1.827-1.264-2.719-2.548-3.507l-.152-.093-.107-.062c-1.177-.685-2.193-1.277-2.193-2.538,0-1.207,1.225-1.3,1.6-1.3.97,0,1.378.174,2.4,1.4l.5.7v-2.7c0-.4-.393-.5-.6-.5a11.281,11.281,0,0,0-2.4-.3c-3.389,0-4.1,1.686-4.1,3.1,0,2.177,1.465,3.079,2.758,3.875l.042.025c1.23.717,2.1,1.323,2.1,2.6,0,1.261-.673,1.9-2,1.9-1.465,0-2.07-.645-2.8-2l-.6-1Zm32.7-11.5.3.5a5.532,5.532,0,0,1,.4,2.7v9.2a5.43,5.43,0,0,1-.5,2.9l-.3.5h4.6l-.3-.5a5.43,5.43,0,0,1-.5-2.9v-3.4h.3c1.721,0,4.6,0,5.6-1.5l.4-.6-.7.1h-5.6v-5.4h2.3c.972,0,2.6,0,3.2,1l.1.1h.6v-2.2c0-.5-.6-.5-1.5-.5h-8.4Zm-7.9,3.3.7.5c.5.4.5,2.312.5,4v4.6a5.733,5.733,0,0,1-.4,2.7l-.3.5h3.9l-.3-.5a5.733,5.733,0,0,1-.4-2.7v-5.4c0-1.35.226-1.7,1.1-1.7h1.6a1.1,1.1,0,0,0,1.2-1.2.685.685,0,0,0-.154-.57,1.721,1.721,0,0,0-1.447-.53,3.218,3.218,0,0,0-2.3,1.2c0-.3-.061-1-.6-1h-.7c-.182,0-.395.022-.6.042a8.748,8.748,0,0,1-.9.057Zm65.1-.3a2.229,2.229,0,0,0-2.2,2.2,2.23,2.23,0,0,0,2.2,2.2,2.23,2.23,0,0,0,2.2-2.2A2.229,2.229,0,0,0-538.4-2390Zm-28.6,11.6a2.9,2.9,0,0,1-2.738-2.213,10.554,10.554,0,0,1-.563-3.488c0-1.961.468-4.3,2.7-4.3a2.9,2.9,0,0,1,2.738,2.212,10.548,10.548,0,0,1,.563,3.487C-564.3-2381.407-564.563-2378.4-567-2378.4Zm-12.4,0a2.9,2.9,0,0,1-2.738-2.213,10.555,10.555,0,0,1-.563-3.488c0-1.961.468-4.3,2.7-4.3a2.891,2.891,0,0,1,2.775,2.212,10.511,10.511,0,0,1,.525,3.487C-576.7-2380.738-577.169-2378.4-579.4-2378.4Zm24.6-.4a2.946,2.946,0,0,1-2.562-1.45,6.088,6.088,0,0,1-.837-3.25c0-3.022,1.533-4.9,4-4.9.942,0,1.2.344,1.2,1.6v5.7C-553-2380.56-553.13-2378.8-554.8-2378.8Zm-79.3-.1a1.415,1.415,0,0,1-1.6-1.5c0-1.28.763-1.681,2.608-2.652l.092-.048.9-.4v2.1C-632.2-2380.247-632.778-2378.9-634.1-2378.9Zm95.7-7.1a1.8,1.8,0,0,1-1.8-1.8,1.8,1.8,0,0,1,1.8-1.8,1.8,1.8,0,0,1,1.8,1.8A1.853,1.853,0,0,1-538.4-2386Zm-.1-3.1a1.954,1.954,0,0,0-.35.05,1.989,1.989,0,0,1-.35.05v2.4h.5v-1l0,0,.6,1h.6l-.7-1.1c.42-.105.6-.314.6-.7C-537.6-2388.831-537.945-2389.1-538.5-2389.1Zm-69.4,3-2.1-.1c.407-1.526,1.113-2.3,2.1-2.3a1.658,1.658,0,0,1,1.6,1.7C-606.3-2386.191-606.51-2386.1-607.9-2386.1Zm69.3-1.9h-.1v-.8h.2c.173,0,.5.084.5.4C-538-2388.039-538.42-2388-538.6-2388Z" transform="translate(673 2407)" fill="#fff"/>
  </g>
</svg>
