<?xml version="1.0" encoding="utf-8"?>
<svg xmlns="http://www.w3.org/2000/svg" width="63" height="63" viewBox="0 0 63 63">
  <g id="sipwell" opacity="0.64">
    <g id="Group_3" data-name="Group 3">
      <path id="Path_15" data-name="Path 15" d="M0,32.48V31.054l.009-.131a5.412,5.412,0,0,0,.056-.985c.006-.051.016-.1.019-.154.026-.549.074-1.1.132-1.642a30.731,30.731,0,0,1,.5-3.163A31.426,31.426,0,0,1,24.988.7,31.037,31.037,0,0,1,28.35.171C29.029.1,29.709.048,30.392.036A.416.416,0,0,0,30.609,0h1.827a.362.362,0,0,0,.194.036c.824.02,1.644.089,2.463.178A30.633,30.633,0,0,1,39.25.973,31.481,31.481,0,0,1,62.57,26.305a27.1,27.1,0,0,1,.387,3.76c0,.064-.019.136.043.187v2.5c-.057.043-.042.107-.042.164-.006.624-.068,1.244-.13,1.864a30.2,30.2,0,0,1-.569,3.513A31.491,31.491,0,0,1,39.628,61.913a30.658,30.658,0,0,1-4.3.829q-1.194.143-2.394.21c-.064,0-.136-.015-.185.048H30.3c-.035-.05-.09-.045-.141-.047-.371-.015-.74-.05-1.11-.078a30.56,30.56,0,0,1-3.177-.41A31.482,31.482,0,0,1,.078,33.116,2.11,2.11,0,0,0,0,32.48Zm28.2,5.79,0,0c-.015-.14-.026-.281-.046-.42a1,1,0,0,0-1.482-.645,1.593,1.593,0,0,0-.5.533c-.164.282-.328.565-.474.857-.313.624-.613,1.254-.919,1.881a2.8,2.8,0,0,1-.33.554.706.706,0,0,1-.929.233,2.356,2.356,0,0,1-.46-.269c-.282-.206-.562-.415-.848-.614a5.476,5.476,0,0,0-.953-.573,1.4,1.4,0,0,0-1.284.069,4.888,4.888,0,0,0-.666.445c-.333.262-.663.527-1,.787a2.141,2.141,0,0,1-.654.375.651.651,0,0,1-.759-.216,1.708,1.708,0,0,1-.3-.545c-.106-.3-.2-.6-.308-.907a11.392,11.392,0,0,0-.794-1.886,3.628,3.628,0,0,0-.492-.714.83.83,0,0,0-1.246-.07.7.7,0,0,0-.274.56,1.52,1.52,0,0,0,.192.724q.8,1.6,1.6,3.209a7.644,7.644,0,0,0,.641,1.1,2.188,2.188,0,0,0,.565.562,1.074,1.074,0,0,0,.851.156,2.589,2.589,0,0,0,.913-.449,8.5,8.5,0,0,0,.827-.677,4.035,4.035,0,0,1,.788-.578,1.292,1.292,0,0,1,1.278-.014,2.181,2.181,0,0,1,.3.185,5.4,5.4,0,0,1,.554.482,4.631,4.631,0,0,0,1.043.793A1.616,1.616,0,0,0,25,43.02a2.994,2.994,0,0,0,.384-.371,6.878,6.878,0,0,0,.8-1.148c.172-.3.338-.61.518-.909a2.543,2.543,0,0,1,.718-.782c.213-.151.221-.148.294.111a4.7,4.7,0,0,0,1.747,2.515A5.281,5.281,0,0,0,32.191,43.5a4.317,4.317,0,0,0,2.557-.513,1.768,1.768,0,0,0,.478-.36A.755.755,0,0,0,35.4,41.9a.421.421,0,0,0-.561-.359c-.313.065-.629.108-.946.144a8.288,8.288,0,0,1-2.285.013,3.187,3.187,0,0,1-1.116-.361,1.137,1.137,0,0,1-.6-.956,2.543,2.543,0,0,1,0-.4,1.061,1.061,0,0,1,.542-.87,3.55,3.55,0,0,1,.923-.382,2.23,2.23,0,0,1,.972-.031,3.127,3.127,0,0,1,1.418.709.074.074,0,0,1,.031.091.6.6,0,0,1-.093.017c-.518.033-1.037.059-1.555.1a4.971,4.971,0,0,0-.73.071.51.51,0,0,0-.22.866.874.874,0,0,0,.241.158A3.442,3.442,0,0,0,33,41.02a4.584,4.584,0,0,0,1.717-.433.889.889,0,0,0,.565-.9,2.153,2.153,0,0,0-.945-1.734,3.278,3.278,0,0,0-1.52-.6c-.441-.051-.886-.077-1.33-.111a2.762,2.762,0,0,0-1.314.289c-.334.145-.661.3-.993.454A3.1,3.1,0,0,1,28.2,38.27Zm8.187-13.081H36.4V26.7q0,3.106,0,6.213a1.282,1.282,0,0,0,.049.44.4.4,0,0,0,.293.278c.065.017.13.033.195.047a9.32,9.32,0,0,0,3.028.215,5.487,5.487,0,0,0,1.287-.248.776.776,0,0,0,.547-.714,3.21,3.21,0,0,0-.024-.733,6.172,6.172,0,0,1-.1-1.151c.014-.3.019-.609.04-.912a4.59,4.59,0,0,1,.126-.9,1.151,1.151,0,0,1,.691-.792,4.1,4.1,0,0,1,.419-.152c.433-.135.879-.215,1.322-.307a6.254,6.254,0,0,0,2.843-1.357,5.708,5.708,0,0,0,2.013-3.35,6.989,6.989,0,0,0-.235-3.387,4.675,4.675,0,0,0-1.356-2.11,5.847,5.847,0,0,0-1.574-.995,6.362,6.362,0,0,0-2.426-.606c-1.253-.029-2.508-.039-3.762-.04-.608,0-1.216,0-1.825-.008-.163,0-.326,0-.49,0a1.5,1.5,0,0,0-.352.045.84.84,0,0,0-.65.607,2.225,2.225,0,0,0-.089.659c0,.824.013,1.648.019,2.472C36.4,21.67,36.388,23.43,36.388,25.189ZM21.452,15.851c-.06-.005-.119-.01-.178-.013a8.572,8.572,0,0,0-3.566.5,6.513,6.513,0,0,0-2.558,1.73,4.385,4.385,0,0,0-1.037,1.92,5.683,5.683,0,0,0-.129,1.437,4.693,4.693,0,0,0,1.336,3.234,7.918,7.918,0,0,0,2.6,1.754c.61.272,1.223.538,1.834.807a1.9,1.9,0,0,1,.424.242.727.727,0,0,1-.033,1.209,1.5,1.5,0,0,1-.73.245c-.273.03-.548.037-.821.057a9.224,9.224,0,0,1-2.415-.146c-.306-.057-.606-.146-.912-.2a.908.908,0,0,0-1.143.722c-.033.122-.058.246-.084.369a7.352,7.352,0,0,0-.192,1.9,1.962,1.962,0,0,0,1.382,1.88,5.63,5.63,0,0,0,1.327.272c.865.092,1.735.035,2.6.07a7.6,7.6,0,0,0,1.77-.158,8.939,8.939,0,0,0,2.837-1.015,4.536,4.536,0,0,0,2.1-2.506,6.036,6.036,0,0,0,.3-2.457,4.492,4.492,0,0,0-.549-1.841,5.514,5.514,0,0,0-1.944-1.951,15.662,15.662,0,0,0-1.778-.921c-.511-.238-1.025-.471-1.518-.748a1.691,1.691,0,0,1-.492-.376.707.707,0,0,1,.155-1.067,1.726,1.726,0,0,1,.382-.178,3.86,3.86,0,0,1,2.1-.141c.481.094.952.231,1.427.347a2.043,2.043,0,0,0,.617.07.5.5,0,0,0,.475-.342,1.452,1.452,0,0,0,.089-.412c.057-.711.052-1.424.046-2.136a4.275,4.275,0,0,0-.055-.6,1.518,1.518,0,0,0-1.28-1.382,7.558,7.558,0,0,0-.791-.123C22.52,15.849,21.986,15.861,21.452,15.851Zm6.7,9.17h-.028v7.528a2.964,2.964,0,0,0,.073.751.619.619,0,0,0,.642.509,1.843,1.843,0,0,0,.222-.017,5.874,5.874,0,0,1,.664-.042c.632.017,1.253.146,1.883.176a2.344,2.344,0,0,0,1.867-.667.626.626,0,0,0,.192-.563c-.075-.6-.116-1.2-.154-1.8-.06-.933-.07-1.869-.086-2.8-.013-.772,0-1.544.014-2.316.024-1.425.024-2.85.027-4.275,0-.639.007-1.277-.03-1.915a7.534,7.534,0,0,1-.006-.823c.028-.564.032-1.128.026-1.692a1.422,1.422,0,0,0-.026-.243.656.656,0,0,0-.626-.618,5.892,5.892,0,0,0-1.019-.079q-1.135-.01-2.271-.015a2.5,2.5,0,0,0-.532.041.981.981,0,0,0-.825.824,3.318,3.318,0,0,0-.048.731c.015,1.062.048,2.123.042,3.184C28.148,22.275,28.153,23.648,28.153,25.021ZM46.346,41.534a3.357,3.357,0,0,1-.818-.054,1.373,1.373,0,0,1-1.113-1.11,3.279,3.279,0,0,1-.017-1.152c.059-.411.148-.817.221-1.226a5.412,5.412,0,0,0,.107-1.062.615.615,0,0,0-.33-.588.772.772,0,0,0-.991.243,1.73,1.73,0,0,0-.23.5c-.272.887-.52,1.781-.718,2.688a2.032,2.032,0,0,1-1.428,1.566,3.591,3.591,0,0,1-2.171.026,1.269,1.269,0,0,1-.943-1.052,4.2,4.2,0,0,1-.028-1.131c.043-.563.152-1.117.233-1.675a3.082,3.082,0,0,0,.057-.664.589.589,0,0,0-.883-.505.9.9,0,0,0-.183.126,1.194,1.194,0,0,0-.248.312,4.172,4.172,0,0,0-.5,1.28,12.607,12.607,0,0,0-.234,1.965,3.679,3.679,0,0,0,.143,1.255,2.654,2.654,0,0,0,2.618,1.988,4.876,4.876,0,0,0,1.207-.176,6.771,6.771,0,0,0,2.05-.783,1.274,1.274,0,0,1,.221-.1.689.689,0,0,1,.7.088c.107.079.211.164.31.253a3.181,3.181,0,0,0,1.188.681,3.357,3.357,0,0,0,1.89.007c.566-.151,1.121-.343,1.679-.52a1.351,1.351,0,0,0,.339-.166.732.732,0,0,0,.351-.657,1.218,1.218,0,0,0-.165-.572.5.5,0,0,0-.564-.26,1.8,1.8,0,0,0-.545.191A2.359,2.359,0,0,1,46.346,41.534Z" fill="#fff"/>
      <path id="Path_16" data-name="Path 16" d="M0,29.941l.065,0a5.412,5.412,0,0,1-.056.985L0,31.054Z" fill="#fff"/>
      <path id="Path_22" data-name="Path 22" d="M43.984,21.841a2.906,2.906,0,0,1-.3,1.357,1.311,1.311,0,0,1-1.4.721.593.593,0,0,1-.585-.653,3.548,3.548,0,0,1,.03-.555,1.248,1.248,0,0,0-.023-.53.408.408,0,0,1-.023-.174,6.413,6.413,0,0,0,.025-.733,2.128,2.128,0,0,1,.074-.527.628.628,0,0,1,.559-.472,1.412,1.412,0,0,1,1.5.874A1.781,1.781,0,0,1,43.984,21.841Z" fill="#fff"/>
      <path id="Path_23" data-name="Path 23" d="M28.2,38.27q-.068.348-.137.694c-.006.029-.012.061-.048.068a.09.09,0,0,1-.094-.044.356.356,0,0,1-.052-.254.559.559,0,0,1,.334-.461Z" fill="#fff"/>
    </g>
  </g>
</svg>
