<?xml version="1.0" encoding="utf-8"?>
<svg id="light-bulb" xmlns="http://www.w3.org/2000/svg" width="45.123" height="47.02" viewBox="0 0 45.123 47.02">
  <path id="XMLID_49_" d="M37.721,41.089v1.374a2.179,2.179,0,0,1-1.848,2.157l-.339,1.248a1.553,1.553,0,0,1-1.5,1.151H30.678a1.553,1.553,0,0,1-1.5-1.151L28.85,44.62a2.189,2.189,0,0,1-1.858-2.167V41.079a1.321,1.321,0,0,1,1.325-1.325H36.4A1.336,1.336,0,0,1,37.721,41.089Zm6.221-18.517a11.525,11.525,0,0,1-3.251,8.04,10.622,10.622,0,0,0-2.844,5.766,1.915,1.915,0,0,1-1.9,1.616H28.763a1.9,1.9,0,0,1-1.887-1.606A10.74,10.74,0,0,0,24.012,30.6a11.582,11.582,0,1,1,19.93-8.03ZM33.668,15.557a1.307,1.307,0,0,0-1.306-1.306A8.367,8.367,0,0,0,24,22.61a1.306,1.306,0,0,0,2.612,0,5.754,5.754,0,0,1,5.747-5.747A1.3,1.3,0,0,0,33.668,15.557ZM32.362,7.188a1.307,1.307,0,0,0,1.306-1.306V1.306a1.306,1.306,0,0,0-2.612,0V5.882A1.307,1.307,0,0,0,32.362,7.188ZM16.988,22.562a1.307,1.307,0,0,0-1.306-1.306H11.106a1.306,1.306,0,1,0,0,2.612h4.576A1.3,1.3,0,0,0,16.988,22.562Zm36.629-1.306H49.041a1.306,1.306,0,0,0,0,2.612h4.576a1.306,1.306,0,1,0,0-2.612ZM19.649,33.436l-3.241,3.241a1.3,1.3,0,0,0,1.838,1.848l3.241-3.241a1.3,1.3,0,0,0-1.838-1.848ZM44.155,12.074a1.3,1.3,0,0,0,.919-.377l3.241-3.241a1.307,1.307,0,0,0-1.848-1.848L43.226,9.849a1.3,1.3,0,0,0,0,1.848A1.327,1.327,0,0,0,44.155,12.074Zm-24.506-.387a1.3,1.3,0,0,0,1.838-1.848L18.246,6.6A1.307,1.307,0,0,0,16.4,8.446ZM45.074,33.436a1.307,1.307,0,1,0-1.848,1.848l3.241,3.241a1.3,1.3,0,1,0,1.838-1.848Z" transform="translate(-9.8)" fill="#3880eb"/>
</svg>
