<?xml version="1.0" encoding="utf-8"?>
<svg id="trophy" xmlns="http://www.w3.org/2000/svg" width="39" height="39" viewBox="0 0 39 39">
  <path id="Path_20" data-name="Path 20" d="M37.858,2.815h-5q.027-.831.028-1.672A1.143,1.143,0,0,0,31.739,0H7.262A1.143,1.143,0,0,0,6.119,1.143q0,.84.028,1.672h-5A1.143,1.143,0,0,0,0,3.957a24.764,24.764,0,0,0,3.768,13.6c2.4,3.61,5.6,5.68,9.056,5.881A11.733,11.733,0,0,0,15.3,25.517V30.6H13.381a4.207,4.207,0,0,0-4.2,4.2v1.917H9.1A1.143,1.143,0,0,0,9.1,39H29.9a1.143,1.143,0,0,0,0-2.285h-.081V34.8a4.207,4.207,0,0,0-4.2-4.2H23.7V25.517a11.732,11.732,0,0,0,2.474-2.078c3.456-.2,6.654-2.272,9.056-5.881A24.764,24.764,0,0,0,39,3.957,1.143,1.143,0,0,0,37.858,2.815ZM5.67,16.293A22.021,22.021,0,0,1,2.309,5.1H6.275A38.183,38.183,0,0,0,9.824,18.961q.457.914.954,1.727A11.019,11.019,0,0,1,5.67,16.293Zm27.66,0a11.019,11.019,0,0,1-5.108,4.4q.5-.814.954-1.727A38.189,38.189,0,0,0,32.725,5.1h3.966A22.021,22.021,0,0,1,33.33,16.293Zm0,0" fill="#3880eb"/>
</svg>
