<?xml version="1.0" encoding="utf-8"?>
<svg id="start-up" xmlns="http://www.w3.org/2000/svg" width="43.757" height="43.757" viewBox="0 0 43.757 43.757">
  <path id="Path_12" data-name="Path 12" d="M73.285,285.731a1.283,1.283,0,0,0,.239,1.482l.313.313c.906-1.073,1.961-2.238,3.242-3.518.09-.09.184-.134.274-.218l-2.017-2.017C74.165,283.894,73.481,285.343,73.285,285.731Zm0,0" transform="translate(-66.898 -257.692)" fill="#3880eb"/>
  <path id="Path_13" data-name="Path 13" d="M166.4,389.837c-1.283,1.283-2.445,2.341-3.512,3.247l.425.425a1.281,1.281,0,0,0,1.493.234c.664-.342,1.708-.834,3.925-2.068l-2.112-2.112C166.537,389.654,166.494,389.746,166.4,389.837Zm0,0" transform="translate(-148.97 -356.27)" fill="#3880eb"/>
  <path id="Path_14" data-name="Path 14" d="M71.246,311.7c-.926-.926-3.532-.1-4.756,1.128-4.094,4.094-5.943,7-6.774,8.711a1.282,1.282,0,0,0,1.714,1.712c1.676-.814,4.543-2.654,8.686-6.8,1.346-1.346,2.01-3.873,1.13-4.753Zm0,0" transform="translate(-54.496 -284.697)" fill="#3880eb"/>
  <path id="Path_15" data-name="Path 15" d="M4,166.854.376,170.48a1.282,1.282,0,0,0,1.238,2.145,10.534,10.534,0,0,1,4.845-.45,68.79,68.79,0,0,1,5.307-8.1C10.679,163.382,7.086,163.77,4,166.854Zm0,0" transform="translate(-0.001 -149.786)" fill="#3880eb"/>
  <path id="Path_16" data-name="Path 16" d="M246.345,387.935a1.279,1.279,0,0,0,1.483-.238l3.626-3.626c2.807-2.808,3.3-6.431,2.664-7.579a73.175,73.175,0,0,1-8.1,5.266c.179,1.009.06,1.987-.363,4.845A1.279,1.279,0,0,0,246.345,387.935Zm0,0" transform="translate(-224.647 -344.316)" fill="#3880eb"/>
  <path id="Path_17" data-name="Path 17" d="M285.768,138.433a3.846,3.846,0,1,0,5.439,0A3.85,3.85,0,0,0,285.768,138.433Zm0,0" transform="translate(-260.317 -125.574)" fill="#3880eb"/>
  <path id="Path_18" data-name="Path 18" d="M398.315,1.252A1.28,1.28,0,0,0,397.132.069a25.343,25.343,0,0,0-9.358,1.09,10.763,10.763,0,0,0,3.188,6.262,10.729,10.729,0,0,0,6.384,3.183,26.511,26.511,0,0,0,.968-9.353Zm0,0" transform="translate(-354.633 -0.001)" fill="#3880eb"/>
  <path id="Path_19" data-name="Path 19" d="M139.084,31.179A13.467,13.467,0,0,1,135.23,24c-7.7,3.157-15.067,10.052-20.89,19.737l2.893,2.893c1.977-.8,4.376-1.015,5.9.507s1.308,3.923.506,5.9l2.988,2.988c7.452-4.491,16.128-11.567,19.817-20.981A13.4,13.4,0,0,1,139.084,31.179Zm-1.813,10.877a6.41,6.41,0,1,1,0-9.065A6.417,6.417,0,0,1,137.271,42.056Zm0,0" transform="translate(-104.568 -21.945)" fill="#3880eb"/>
</svg>
