<?xml version="1.0" encoding="utf-8"?>
<svg id="speed-meter" xmlns="http://www.w3.org/2000/svg" width="45.976" height="32.165" viewBox="0 0 45.976 32.165">
  <g id="Group_24" data-name="Group 24" transform="translate(0 0)">
    <path id="Path_5" data-name="Path 5" d="M46.858,170.4a.558.558,0,0,0-.138-.4l-4.42-5.029a.558.558,0,0,0-.788-.051,23,23,0,0,0-5.011,6.258.558.558,0,0,0,.222.757L42.6,175.14a.558.558,0,0,0,.757-.222,15.2,15.2,0,0,1,3.314-4.138A.556.556,0,0,0,46.858,170.4Z" transform="translate(-33.696 -159.302)" fill="#3880eb"/>
    <path id="Path_6" data-name="Path 6" d="M162.035,102.38a.558.558,0,0,0,.754.231,15.025,15.025,0,0,1,5.035-1.62.558.558,0,0,0,.478-.628l-.9-6.635a.559.559,0,0,0-.628-.478,22.808,22.808,0,0,0-7.646,2.459.558.558,0,0,0-.232.754Z" transform="translate(-146.901 -93.146)" fill="#3880eb"/>
    <path id="Path_7" data-name="Path 7" d="M7.947,312.521l-6.462-1.753a.558.558,0,0,0-.685.392,23.049,23.049,0,0,0-.8,6.032c0,.35.008.7.026,1.073a.558.558,0,0,0,.557.532H.609l6.688-.309a.558.558,0,0,0,.532-.583c-.012-.251-.017-.484-.017-.712a15.23,15.23,0,0,1,.528-3.987A.558.558,0,0,0,7.947,312.521Z" transform="translate(0 -294.31)" fill="#3880eb"/>
    <path id="Path_8" data-name="Path 8" d="M328.057,94.087a22.817,22.817,0,0,0-7.732-2.163.558.558,0,0,0-.609.5l-.646,6.664a.558.558,0,0,0,.5.609,15.03,15.03,0,0,1,5.093,1.424.558.558,0,0,0,.745-.26l2.907-6.032A.558.558,0,0,0,328.057,94.087Z" transform="translate(-295.098 -91.922)" fill="#3880eb"/>
    <path id="Path_9" data-name="Path 9" d="M441.062,163.971a.558.558,0,0,0-.062-.423,23.005,23.005,0,0,0-5.247-6.061.558.558,0,0,0-.785.081l-4.225,5.194a.558.558,0,0,0,.081.785,15.214,15.214,0,0,1,3.471,4.009.558.558,0,0,0,.765.193l5.747-3.435A.559.559,0,0,0,441.062,163.971Z" transform="translate(-398.268 -152.446)" fill="#3880eb"/>
    <path id="Path_10" data-name="Path 10" d="M505.959,300.121a.558.558,0,0,0-.7-.366l-6.389,2a.558.558,0,0,0-.366.7A15.185,15.185,0,0,1,499.2,307c0,.228-.006.462-.017.712a.558.558,0,0,0,.531.583l6.688.309h.026a.558.558,0,0,0,.557-.532c.017-.372.026-.723.026-1.073A22.985,22.985,0,0,0,505.959,300.121Z" transform="translate(-461.031 -284.118)" fill="#3880eb"/>
    <path id="Path_11" data-name="Path 11" d="M179.947,314.036c-.1,0-.192,0-.287.008L170.6,308.7a.574.574,0,0,0-.8.765l4.944,9.267a5.334,5.334,0,0,0-.028.541,5.233,5.233,0,1,0,5.233-5.233Z" transform="translate(-156.979 -292.338)" fill="#3880eb"/>
  </g>
</svg>
