<?xml version="1.0" encoding="utf-8"?>
<svg id="graphic-progression" xmlns="http://www.w3.org/2000/svg" width="45.479" height="39.485" viewBox="0 0 45.479 39.485">
  <g id="Layer_5_45_" transform="translate(0 0)">
    <g id="Group_23" data-name="Group 23">
      <g id="Group_20" data-name="Group 20" transform="translate(1.816 25.792)">
        <path id="Path_1" data-name="Path 1" d="M25.852,217.644a2.1,2.1,0,0,1-2.1,2.1H15.094a2.1,2.1,0,0,1-2.1-2.1v-9.5a2.1,2.1,0,0,1,2.1-2.1h8.663a2.1,2.1,0,0,1,2.1,2.1Z" transform="translate(-12.998 -206.047)" fill="#3880eb"/>
      </g>
      <g id="Group_21" data-name="Group 21" transform="translate(17.221 20.762)">
        <path id="Path_2" data-name="Path 2" d="M136.1,186.674a2.1,2.1,0,0,1-2.1,2.1h-8.663a2.1,2.1,0,0,1-2.1-2.1V172.143a2.1,2.1,0,0,1,2.1-2.1h8.663a2.1,2.1,0,0,1,2.1,2.1Z" transform="translate(-123.248 -170.047)" fill="#3880eb"/>
      </g>
      <g id="Group_22" data-name="Group 22" transform="translate(32.625 15.173)">
        <path id="Path_3" data-name="Path 3" d="M246.352,152.263a2.1,2.1,0,0,1-2.1,2.1h-8.663a2.1,2.1,0,0,1-2.1-2.1v-20.12a2.1,2.1,0,0,1,2.1-2.1h8.663a2.1,2.1,0,0,1,2.1,2.1Z" transform="translate(-233.498 -130.047)" fill="#3880eb"/>
      </g>
      <path id="Path_4" data-name="Path 4" d="M43.666,21.49l-9.414,2.29c-.747.181-.913.773-.37,1.317l2.009,1.962c.169.192-.031.448-.19.556a60.094,60.094,0,0,1-6.047,3.578C14.548,39.075,2.1,38.591,1.908,38.583a1.816,1.816,0,0,0-.186,3.628c.074,0,.373.017.876.017,3.229,0,14.826-.557,28.735-7.814a61.542,61.542,0,0,0,6.9-4.135c.188-.133.517-.361.819-.053l2.2,2.2c.543.543,1.133.376,1.311-.372L44.7,22.521C44.879,21.773,44.413,21.309,43.666,21.49Z" transform="translate(0 -21.451)" fill="#3880eb"/>
    </g>
  </g>
</svg>
